<svg id="Layer_1" data-name="Layer 1" xmlns="http://www.w3.org/2000/svg" xmlns:xlink="http://www.w3.org/1999/xlink" viewBox="0 0 445.05 445.4"><defs><style>.cls-1,.cls-2{fill:none;}.cls-2{clip-rule:evenodd;}.cls-3,.cls-9{fill:#fff;}.cls-3{stroke:#231f20;stroke-miterlimit:10;stroke-width:0.83px;}.cls-4{fill:#f37920;}.cls-5{clip-path:url(#clip-path);}.cls-6{fill:url(#linear-gradient);}.cls-7{fill:#ff5000;}.cls-8{fill:#002a53;}.cls-10,.cls-27{fill:#001d3f;}.cls-10{fill-rule:evenodd;}.cls-11{clip-path:url(#clip-path-2);}.cls-12{fill:url(#linear-gradient-2);}.cls-13{clip-path:url(#clip-path-3);}.cls-14{fill:url(#linear-gradient-3);}.cls-15{clip-path:url(#clip-path-4);}.cls-16{fill:url(#linear-gradient-4);}.cls-17{clip-path:url(#clip-path-5);}.cls-18{fill:url(#linear-gradient-5);}.cls-19{clip-path:url(#clip-path-6);}.cls-20{fill:url(#linear-gradient-6);}.cls-21{clip-path:url(#clip-path-7);}.cls-22{fill:url(#linear-gradient-7);}.cls-23{clip-path:url(#clip-path-8);}.cls-24{fill:url(#linear-gradient-8);}.cls-25{clip-path:url(#clip-path-9);}.cls-26{fill:url(#linear-gradient-9);}.cls-28{clip-path:url(#clip-path-10);}.cls-29{fill:url(#linear-gradient-10);}.cls-30{clip-path:url(#clip-path-11);}.cls-31{fill:url(#linear-gradient-11);}</style><clipPath id="clip-path" transform="translate(-33.98 -34.39)"><path class="cls-1" d="M256,364.76c-7.35-1.25-45.06-9.14-66-41.49C175,300.32,171.66,269.94,179.88,233c6.16-27.69,2.09-57.33-.89-72.54l-.57-2.9,2.92.34A297.43,297.43,0,0,0,214.88,160c19.24,0,32.42-2.62,40.29-8l1.21-.82,1.21.82c7.89,5.39,21.07,8,40.29,8a297.35,297.35,0,0,0,33.52-2.14l2.92-.34-.57,2.9c-3,15.21-7,44.85-.88,72.54,8.22,37,4.84,67.35-10.06,90.29-21,32.36-58.75,40.26-66.11,41.51l-.36.06Zm.36,5.83s110.53-14.27,82.74-139.29c-8.48-38.15,4.41-82.36,4.41-82.36S270,160,256.65,141.21H255.5c-13.31,18.83-87.07,8-87.07,8s14,44,5.49,82.12C146.13,356.38,256.76,373,256.35,370.58Z"/></clipPath><linearGradient id="linear-gradient" x1="-12.64" y1="607.5" x2="-12.35" y2="607.5" gradientTransform="matrix(-0.01, 961.4, -969.27, 0, 589090.17, 12275.42)" gradientUnits="userSpaceOnUse"><stop offset="0" stop-color="#004071"/><stop offset="0.52" stop-color="#00adee"/><stop offset="1" stop-color="#004572"/></linearGradient><clipPath id="clip-path-2" transform="translate(-33.98 -34.39)"><polygon class="cls-2" points="205.51 236.09 209.53 223.4 201.98 218.8 213.7 213.78 219.42 203.38 224.47 210.17 237.77 206.97 228 217.48 231.63 229.89 218.15 226.71 217.88 226.64 205.51 236.09"/></clipPath><linearGradient id="linear-gradient-2" x1="-12.06" y1="607.83" x2="-11.77" y2="607.83" gradientTransform="matrix(0, 169.48, -143.84, 0, 87648.32, 2240)" gradientUnits="userSpaceOnUse"><stop offset="0" stop-color="#004071"/><stop offset="0.48" stop-color="#00adee"/><stop offset="1" stop-color="#003b60"/></linearGradient><clipPath id="clip-path-3" transform="translate(-33.98 -34.39)"><polygon class="cls-2" points="245.07 201.22 241.77 192.87 234.92 188.77 239.38 185.17 237.32 175.98 244.07 182.69 252.28 180.06 250.17 189.92 256.51 198.81 248.07 195.87 245.07 201.22"/></clipPath><linearGradient id="linear-gradient-3" x1="-11.7" y1="608.39" x2="-11.4" y2="608.39" gradientTransform="matrix(0, 112.43, -112.19, 0, 68502.79, 1487.77)" gradientUnits="userSpaceOnUse"><stop offset="0" stop-color="#004071"/><stop offset="0.5" stop-color="#00adee"/><stop offset="1" stop-color="#004470"/></linearGradient><clipPath id="clip-path-4" transform="translate(-33.98 -34.39)"><polygon class="cls-2" points="250.25 225.99 246.95 227.57 248.34 223.37 246.63 220.29 249.82 219.94 252.01 215.89 252.88 220.06 257.07 220.86 253.27 224.03 253.25 229.16 250.25 225.99"/></clipPath><linearGradient id="linear-gradient-4" x1="-11.9" y1="608.53" x2="-11.62" y2="608.53" gradientTransform="matrix(0, 57.58, -57.19, 0, 35055, 900.03)" gradientUnits="userSpaceOnUse"><stop offset="0" stop-color="#004370"/><stop offset="0.5" stop-color="#00adee"/><stop offset="1" stop-color="#00436e"/></linearGradient><clipPath id="clip-path-5" transform="translate(-33.98 -34.39)"><polygon class="cls-2" points="245.13 258.51 247.64 247.23 232.13 239.59 252.13 236.41 261.49 220.47 269.83 235.1 288.48 235.34 273.49 245.02 275.29 255.92 260.4 251.95 245.13 258.51"/></clipPath><linearGradient id="linear-gradient-5" x1="-12.61" y1="607.68" x2="-12.3" y2="607.68" gradientTransform="matrix(0, 220.76, -194.9, 0, 118696.72, 2987.98)" xlink:href="#linear-gradient-4"/><clipPath id="clip-path-6" transform="translate(-33.98 -34.39)"><polygon class="cls-2" points="317.82 229.63 311.43 230.37 306.61 225.76 306.88 231.46 302.43 233.16 307.6 235.63 308.95 240.02 312.15 237.32 317.91 238.9 314.79 234.31 317.82 229.63"/></clipPath><linearGradient id="linear-gradient-6" x1="-13.74" y1="608.99" x2="-13.45" y2="608.99" gradientTransform="matrix(0, 70.86, -66.45, 0, 40774.77, 1197.27)" xlink:href="#linear-gradient-4"/><clipPath id="clip-path-7" transform="translate(-33.98 -34.39)"><polygon class="cls-2" points="263.94 340.78 269.04 326.89 281.09 322.06 272.72 314.01 275.44 300.69 267.02 310.21 260.31 307.61 260.51 318.88 253.98 329.04 261.52 328.72 263.94 340.78"/></clipPath><linearGradient id="linear-gradient-7" x1="-13.17" y1="606.85" x2="-12.9" y2="606.85" gradientTransform="matrix(-0.01, 164.66, -167.64, -0.01, 101996.51, 2471.4)" xlink:href="#linear-gradient-4"/><clipPath id="clip-path-8" transform="translate(-33.98 -34.39)"><polygon class="cls-2" points="230.31 280.53 232.81 275.35 227.6 273.35 236.35 269.5 241.91 261.59 242.52 267.3 247.88 265.98 242.21 271.17 241.19 276.03 236.45 275.94 230.31 280.53"/></clipPath><linearGradient id="linear-gradient-8" x1="-12.44" y1="606.96" x2="-12.15" y2="606.96" gradientTransform="matrix(0, 93.54, -87.94, 0, 53612.44, 1421.19)" xlink:href="#linear-gradient-4"/><clipPath id="clip-path-9" transform="translate(-33.98 -34.39)"><path class="cls-1" d="M187.82,244.76l-.15.9,3.61,1.17-2.14,5.08,8.69-3.63,9.37,1.42-3.62-4.32,4.59-2.93-7.53.51-4.14-2.58-3.16,3.45Z"/></clipPath><linearGradient id="linear-gradient-9" x1="-11.05" y1="606.83" x2="-10.73" y2="606.83" gradientTransform="matrix(0, 74.13, -63.09, 0, 38485.66, 1052.52)" xlink:href="#linear-gradient-4"/><clipPath id="clip-path-10" transform="translate(-33.98 -34.39)"><path class="cls-1" d="M201.39,321.31a81.14,81.14,0,0,0,26.14,21.89l-.19-4,10.86-4.15-12.63-6-3.28-10.71-7.81,6.57Z"/></clipPath><linearGradient id="linear-gradient-10" x1="-12.72" y1="606.1" x2="-12.41" y2="606.1" gradientTransform="matrix(0, 144.29, -127.41, 0, 77440.72, 2144.42)" xlink:href="#linear-gradient-4"/><clipPath id="clip-path-11" transform="translate(-33.98 -34.39)"><path class="cls-1" d="M323,298.72A87.65,87.65,0,0,0,326,285.28l-3.28-5,.16,9.54L315.33,294Z"/></clipPath><linearGradient id="linear-gradient-11" x1="-14.79" y1="607.56" x2="-14.54" y2="607.56" gradientTransform="matrix(0.01, 71.92, -74.94, 0.01, 45849.16, 1339.05)" xlink:href="#linear-gradient-4"/></defs><title>istanbul-baakehir-logo</title><path class="cls-3" d="M174.4,154.59,178.12,176l2.13,26.6-2.92,23.19-2.92,14.61-2.13,23.86,1.86,23.88,5.05,22.26,9.53,16.75,11.66,15.79,14,9.2,16.16,8.71s12.5,5.38,13.29,5.38,13.13,1.86,13.13,1.86l11.44-3.19,19.73-7.3,20.36-14.37,9.47-8.29,9.24-12.84,7.56-15.42,3.72-13.56,2.13-16.75V259.77l-3.19-15.63-2.66-18.38-1.15-16.68V179l3-13.82,2.13-12-11.55,1.33-13.26,1.28H284.16l-13.23-2.61-9.67-3.19-4.75-2.13L250,151.66l-12.3,4.2-23.55,1.64-19.58-1.64-13.83-1.28Z" transform="translate(-33.98 -34.39)"/><path class="cls-4" d="M255.74,360.72C245.89,358.89,212.2,350.6,193,321c-9.14-14.09-13.78-31.34-13.77-51.28a166.06,166.06,0,0,1,4.27-35.88,151,151,0,0,0,3.29-32.53,218.86,218.86,0,0,0-2.93-34.84l-.72-4.46,4.37.43c9.6,1,19.07,1.46,27.4,1.46,18,0,31.39-2.41,39.9-7.15l1.59-.91,1.62.91c8.51,4.75,21.91,7.15,39.83,7.15,8.38,0,17.86-.5,27.46-1.46l4.37-.43-.72,4.46A216.26,216.26,0,0,0,326,201.31a150.71,150.71,0,0,0,3.3,32.56,166.5,166.5,0,0,1,4.27,35.87c0,19.93-4.63,37.18-13.77,51.26-19.26,29.6-53,37.89-62.85,39.72l-.62.11Z" transform="translate(-33.98 -34.39)"/><g class="cls-5"><rect class="cls-6" x="97.32" y="98.89" width="318.37" height="316.4" transform="translate(-137.76 268.35) rotate(-52.29)"/></g><path class="cls-7" d="M255.74,360.72C245.89,358.89,212.2,350.6,193,321c-9.14-14.09-13.78-31.34-13.77-51.28a166.06,166.06,0,0,1,4.27-35.88,151,151,0,0,0,3.29-32.53,218.86,218.86,0,0,0-2.93-34.84l-.72-4.46,4.37.43c9.6,1,19.07,1.46,27.4,1.46,18,0,31.39-2.41,39.9-7.15l1.59-.91,1.62.91c8.51,4.75,21.91,7.15,39.83,7.15,8.38,0,17.86-.5,27.46-1.46l4.37-.43-.72,4.46A216.26,216.26,0,0,0,326,201.31a150.71,150.71,0,0,0,3.3,32.56,166.5,166.5,0,0,1,4.27,35.87c0,19.93-4.63,37.18-13.77,51.26-19.26,29.6-53,37.89-62.85,39.72l-.62.11Z" transform="translate(-33.98 -34.39)"/><path class="cls-8" d="M193,202.77a152.18,152.18,0,0,1-3.33,32.77,156.36,156.36,0,0,0-4,33.94q0,27.89,12.66,47.38C216,344.28,248,352,256.35,353.54c8.38-1.55,40.38-9.27,58.15-36.71q12.62-19.46,12.66-47.38a156.74,156.74,0,0,0-4-33.92,152.07,152.07,0,0,1-3.34-32.8,217.1,217.1,0,0,1,2.66-33.08C315,170.36,306,171,296.84,171c-18,0-31.27-2.32-40.47-7.23-9.18,4.9-22.46,7.22-40.46,7.23-9.17,0-18.18-.6-25.6-1.29A218.29,218.29,0,0,1,193,202.77" transform="translate(-33.98 -34.39)"/><path class="cls-9" d="M266.8,188.85a2.69,2.69,0,0,0,.05.54.87.87,0,0,0,.55.67,1.54,1.54,0,0,0,.58.09,1.19,1.19,0,0,0,.74-.25.94.94,0,0,0,.33-.79,1.38,1.38,0,0,0-.08-.49,1,1,0,0,0-.27-.37,1.9,1.9,0,0,0-.49-.3,7.28,7.28,0,0,0-.75-.28,6.55,6.55,0,0,1-1-.42,2.8,2.8,0,0,1-.73-.53,1.87,1.87,0,0,1-.43-.7,2.81,2.81,0,0,1-.14-.92,2.31,2.31,0,0,1,.74-1.88,3,3,0,0,1,2-.62,4.64,4.64,0,0,1,1.1.12,2.38,2.38,0,0,1,.87.4,1.9,1.9,0,0,1,.57.71,2.41,2.41,0,0,1,.21,1v.24h-1.72a1.64,1.64,0,0,0-.22-.93.84.84,0,0,0-.75-.33,1.29,1.29,0,0,0-.5.08.84.84,0,0,0-.32.22.75.75,0,0,0-.16.31,1.5,1.5,0,0,0,0,.37,1.18,1.18,0,0,0,.17.66,1.57,1.57,0,0,0,.75.49l1.39.57a4.31,4.31,0,0,1,.83.45,2.19,2.19,0,0,1,.52.5,1.62,1.62,0,0,1,.27.59,3.17,3.17,0,0,1,.08.71,2.28,2.28,0,0,1-.82,2,3.73,3.73,0,0,1-2.28.61,3.09,3.09,0,0,1-2.18-.63,2.39,2.39,0,0,1-.65-1.81v-.34h1.8Zm1.11,3.17.21,0,.21,0a1.25,1.25,0,0,1,.37.06,1.13,1.13,0,0,1,.34.17.84.84,0,0,1,.24.27.76.76,0,0,1,.09.37,1,1,0,0,1-.4.83,2,2,0,0,1-1.16.29,3.72,3.72,0,0,1-.76-.07,1.92,1.92,0,0,1-.49-.15l.24-.55a1.56,1.56,0,0,0,.38.13,2.3,2.3,0,0,0,.48.05.79.79,0,0,0,.44-.12.34.34,0,0,0,.18-.29.35.35,0,0,0-.15-.29.65.65,0,0,0-.4-.11l-.23,0-.19.05-.27-.24.69-1.06h.67Z" transform="translate(-33.98 -34.39)"/><path class="cls-9" d="M286.92,188.85a2.6,2.6,0,0,0,.05.54.92.92,0,0,0,.19.41.9.9,0,0,0,.37.26,1.54,1.54,0,0,0,.58.09,1.18,1.18,0,0,0,.74-.25.93.93,0,0,0,.33-.79,1.39,1.39,0,0,0-.08-.49,1,1,0,0,0-.27-.37,1.91,1.91,0,0,0-.49-.3,7.32,7.32,0,0,0-.76-.28,6.41,6.41,0,0,1-1-.42,2.79,2.79,0,0,1-.73-.53,1.87,1.87,0,0,1-.43-.7,2.82,2.82,0,0,1-.14-.92,2.31,2.31,0,0,1,.74-1.88,3,3,0,0,1,2-.62,4.66,4.66,0,0,1,1.1.12,2.39,2.39,0,0,1,.87.4,1.92,1.92,0,0,1,.57.71,2.41,2.41,0,0,1,.21,1v.24H289a1.63,1.63,0,0,0-.23-.93.84.84,0,0,0-.75-.33,1.3,1.3,0,0,0-.5.08.86.86,0,0,0-.32.22.75.75,0,0,0-.16.31,1.59,1.59,0,0,0,0,.37,1.18,1.18,0,0,0,.17.66,1.57,1.57,0,0,0,.75.49l1.38.57a4.35,4.35,0,0,1,.84.45,2.2,2.2,0,0,1,.52.5,1.64,1.64,0,0,1,.27.59,3.16,3.16,0,0,1,.08.71,2.28,2.28,0,0,1-.82,2,3.73,3.73,0,0,1-2.28.61,3.09,3.09,0,0,1-2.18-.63,2.39,2.39,0,0,1-.65-1.81v-.34h1.8ZM288,192l.21,0,.21,0a1.25,1.25,0,0,1,.37.06,1.13,1.13,0,0,1,.34.17.84.84,0,0,1,.24.27.75.75,0,0,1,.09.37,1,1,0,0,1-.4.83,2,2,0,0,1-1.16.29,3.73,3.73,0,0,1-.76-.07,1.9,1.9,0,0,1-.49-.15l.24-.55a1.58,1.58,0,0,0,.38.13,2.3,2.3,0,0,0,.48.05.78.78,0,0,0,.44-.12.34.34,0,0,0,.18-.29.35.35,0,0,0-.15-.29.64.64,0,0,0-.4-.11l-.23,0-.19.05-.27-.24.68-1.06h.67Z" transform="translate(-33.98 -34.39)"/><path class="cls-9" d="M283.22,266.37a28,28,0,0,0-6.51-6.88l-.9-.66a22.8,22.8,0,0,0,2.91-4.32,24.68,24.68,0,0,0,2.67-11.41,25.48,25.48,0,0,0-5.77-16.56,28.37,28.37,0,0,0-15-9.41c-4.16-1.16-10.29-1.72-18.74-1.72H223.09v66.15h0v31.53h29.47c7.9,0,14-1.16,18.79-3.54a29.34,29.34,0,0,0,11.8-10.92,30,30,0,0,0,4.57-16.15,28.91,28.91,0,0,0-4.5-16.09m-4.37,29.53a24.24,24.24,0,0,1-9.77,9.07q-6,3-16.52,3h-24.4V276.45h0V259.74h0v-4.93h20.19q6.06,0,9-2.56a8.74,8.74,0,0,0,2.94-7,10.72,10.72,0,0,0-.08-1.32,8.11,8.11,0,0,0-1.23-3.51,8,8,0,0,0-1.48-1.68,7.81,7.81,0,0,0-.87-.64,14,14,0,0,0-7.62-1.76h-4.27v13.24H228.17V220.5h13.68q11.9,0,17.41,1.55a23.32,23.32,0,0,1,12.44,7.73,20.4,20.4,0,0,1,4.62,13.32,19.5,19.5,0,0,1-2.1,9.07,23,23,0,0,1-6.83,7.64h0a23.59,23.59,0,0,1-3,1.78q-6,3-16.52,3h-3.18v11.85h0v15.65h4.15q10.32,0,13.91-2.62a8.83,8.83,0,0,0,3.59-7.61,10.69,10.69,0,0,0-4.21-8.92q-3.89-3-12.57-3.25c7.1-.16,12.71-1.31,17.12-3.52a28.44,28.44,0,0,0,5.52-3.63,22.44,22.44,0,0,1,10.42,19.92A24.84,24.84,0,0,1,278.86,295.9ZM249.8,249.66v-8.17a8.23,8.23,0,0,1,4.09.95,2.5,2.5,0,0,1,.3.22,2.85,2.85,0,0,1,.54.6,3.08,3.08,0,0,1,.44,1.34,5.7,5.7,0,0,1,0,.7,3.63,3.63,0,0,1-1.18,3.1C253.55,248.81,252.39,249.48,249.8,249.66Zm0,37.33V274.8c5.86.2,8.32,1.44,9.26,2.18a5.65,5.65,0,0,1,2.24,4.89c0,2.1-.72,2.92-1.49,3.48C259.45,285.61,257.32,286.89,249.8,287Z" transform="translate(-33.98 -34.39)"/><path class="cls-8" d="M193,202.77a152.18,152.18,0,0,1-3.33,32.77,156.36,156.36,0,0,0-4,33.94q0,27.89,12.66,47.38C216,344.28,248,352,256.35,353.54c8.38-1.55,40.38-9.27,58.15-36.71q12.62-19.46,12.66-47.38a156.74,156.74,0,0,0-4-33.92,152.07,152.07,0,0,1-3.34-32.8,217.1,217.1,0,0,1,2.66-33.08C315,170.36,306,171,296.84,171c-18,0-31.27-2.32-40.47-7.23-9.18,4.9-22.46,7.22-40.46,7.23-9.17,0-18.18-.6-25.6-1.29A218.29,218.29,0,0,1,193,202.77" transform="translate(-33.98 -34.39)"/><path class="cls-9" d="M266.8,188.85a2.69,2.69,0,0,0,.05.54.87.87,0,0,0,.55.67,1.54,1.54,0,0,0,.58.09,1.19,1.19,0,0,0,.74-.25.93.93,0,0,0,.33-.79,1.38,1.38,0,0,0-.08-.49,1,1,0,0,0-.27-.37,1.9,1.9,0,0,0-.49-.3,7.28,7.28,0,0,0-.75-.28,6.55,6.55,0,0,1-1-.42,2.8,2.8,0,0,1-.73-.53,1.87,1.87,0,0,1-.43-.7,2.81,2.81,0,0,1-.14-.92,2.31,2.31,0,0,1,.74-1.88,3,3,0,0,1,2-.62,4.64,4.64,0,0,1,1.1.12,2.38,2.38,0,0,1,.87.4,1.91,1.91,0,0,1,.57.71,2.41,2.41,0,0,1,.21,1v.24h-1.72a1.64,1.64,0,0,0-.22-.93.84.84,0,0,0-.75-.33,1.29,1.29,0,0,0-.5.08.84.84,0,0,0-.32.22.75.75,0,0,0-.16.31,1.5,1.5,0,0,0,0,.37,1.18,1.18,0,0,0,.17.66,1.57,1.57,0,0,0,.75.49l1.39.57a4.31,4.31,0,0,1,.83.45,2.19,2.19,0,0,1,.52.5,1.65,1.65,0,0,1,.27.59,3.17,3.17,0,0,1,.08.71,2.28,2.28,0,0,1-.82,2,3.73,3.73,0,0,1-2.28.61,3.09,3.09,0,0,1-2.18-.63,2.39,2.39,0,0,1-.65-1.81v-.34h1.8Zm1.11,3.17.21,0,.21,0a1.25,1.25,0,0,1,.37.06,1.13,1.13,0,0,1,.34.17.84.84,0,0,1,.24.27.76.76,0,0,1,.09.37,1,1,0,0,1-.4.83,2,2,0,0,1-1.16.29,3.72,3.72,0,0,1-.76-.07,1.92,1.92,0,0,1-.49-.15l.24-.55a1.56,1.56,0,0,0,.38.13,2.3,2.3,0,0,0,.48.05.79.79,0,0,0,.44-.12.34.34,0,0,0,.18-.29.35.35,0,0,0-.15-.29.65.65,0,0,0-.4-.11l-.23,0-.19.05-.27-.24.69-1.06h.67Z" transform="translate(-33.98 -34.39)"/><polygon class="cls-10" points="168.21 253.72 166.88 244.09 155.71 244.48 166.74 233.62 167.99 218.48 175.65 226.22 184.65 220.22 179.76 232.18 183.37 239.76 174.63 242.63 168.21 253.72"/><g class="cls-11"><rect class="cls-12" x="198.61" y="197.52" width="42.52" height="44.44" transform="translate(-93.1 322.44) rotate(-71.15)"/></g><g class="cls-13"><rect class="cls-14" x="229.13" y="172.33" width="33.18" height="32.54" transform="translate(-87.92 232.65) rotate(-52.18)"/></g><polygon class="cls-10" points="246.66 187.67 244.54 174.41 234.37 168.19 243.83 162.75 244.34 148.7 253.16 159.03 266.9 155.66 260.21 169.47 267.48 183.11 254.18 178.85 246.66 187.67"/><g class="cls-15"><rect class="cls-16" x="243.52" y="214.74" width="16.67" height="15.57" transform="translate(-98.92 300.34) rotate(-60.96)"/></g><g class="cls-17"><rect class="cls-18" x="230" y="205.63" width="60.61" height="67.73" transform="translate(-109.41 316.45) rotate(-60.96)"/></g><g class="cls-19"><rect class="cls-20" x="300.18" y="222.66" width="19.98" height="20.46" transform="translate(-77.97 356.66) rotate(-60.97)"/></g><polygon class="cls-10" points="276.08 216.14 267.77 209.75 268.63 215.83 262.37 216.17 270 219.65 272.42 224.26 277.6 222.67 285.55 225.38 281.45 220.91 286.56 217.3 276.08 216.14"/><polygon class="cls-10" points="226.26 267.46 230.12 250.98 218.5 242.42 234.53 239.11 241.03 226.57 248.57 237.6 265.4 237.45 254.02 248.56 259.48 264.7 242.23 257.66 226.26 267.46"/><g class="cls-21"><rect class="cls-22" x="243.43" y="299.16" width="48.21" height="43.16" transform="translate(-176.72 364.6) rotate(-60.97)"/></g><g class="cls-23"><rect class="cls-24" x="224.54" y="257.6" width="26.4" height="26.93" transform="translate(-148.63 312.96) rotate(-60.96)"/></g><polygon class="cls-10" points="201.2 259.04 192.67 249.38 192.65 263.74 184.04 270.22 193.72 276.02 196.17 289.96 202.97 280.03 216.34 283.79 208.4 269.41 214.2 254.18 201.2 259.04"/><g class="cls-25"><rect class="cls-26" x="187.9" y="234.38" width="20.04" height="23.52" transform="translate(-147.33 265.33) rotate(-60.96)"/></g><path class="cls-27" d="M300.84,332.46a73.89,73.89,0,0,0,12.61-14.05l-.34-.46,2.56-11.69-10.44,3.1L294.77,300l1.32,13.54-11.94,7.64,14.55,4.7Z" transform="translate(-33.98 -34.39)"/><g class="cls-28"><rect class="cls-29" x="199.99" y="308.64" width="39.62" height="44.26" transform="translate(-210.06 328.01) rotate(-60.96)"/></g><g class="cls-30"><rect class="cls-31" x="310.04" y="280.37" width="21.29" height="18.29" transform="translate(-122.09 394.92) rotate(-60.96)"/></g><path class="cls-27" d="M320.87,222.27c-.64-5.42-1-10.8-1.07-16l-5.91-.33,6.19,8.22-2,9Z" transform="translate(-33.98 -34.39)"/><path class="cls-27" d="M188.72,295.07a76.22,76.22,0,0,0,7.07,17.69l1.41,1.09L196,305.69l8.41-.45-10.23-4.68L191,294.38Z" transform="translate(-33.98 -34.39)"/><path class="cls-9" d="M201.23,184.07h-1.72v-1.4h1.72Zm0,7.17h-1.72v-6.39h1.72Z" transform="translate(-33.98 -34.39)"/><path class="cls-9" d="M203.94,188.85a2.69,2.69,0,0,0,.05.54.89.89,0,0,0,.19.41.91.91,0,0,0,.37.26,1.54,1.54,0,0,0,.58.09,1.19,1.19,0,0,0,.74-.25.94.94,0,0,0,.33-.79,1.39,1.39,0,0,0-.08-.49,1,1,0,0,0-.27-.37,1.93,1.93,0,0,0-.49-.3,7.52,7.52,0,0,0-.76-.28,6.66,6.66,0,0,1-1-.42,2.8,2.8,0,0,1-.73-.53,1.87,1.87,0,0,1-.43-.7,2.8,2.8,0,0,1-.14-.92,2.31,2.31,0,0,1,.74-1.88,3,3,0,0,1,2-.62,4.66,4.66,0,0,1,1.1.12,2.39,2.39,0,0,1,.87.4,1.9,1.9,0,0,1,.57.71,2.42,2.42,0,0,1,.21,1v.24h-1.72a1.63,1.63,0,0,0-.22-.93.85.85,0,0,0-.75-.33,1.31,1.31,0,0,0-.5.08.85.85,0,0,0-.32.22.77.77,0,0,0-.16.31,1.58,1.58,0,0,0,0,.37,1.18,1.18,0,0,0,.17.66,1.56,1.56,0,0,0,.75.49l1.39.57a4.31,4.31,0,0,1,.83.45,2.22,2.22,0,0,1,.52.5,1.66,1.66,0,0,1,.27.59,3.16,3.16,0,0,1,.08.71,2.28,2.28,0,0,1-.82,2,3.73,3.73,0,0,1-2.28.61,3.09,3.09,0,0,1-2.18-.63,2.39,2.39,0,0,1-.65-1.81v-.34h1.8Z" transform="translate(-33.98 -34.39)"/><polygon class="cls-9" points="180.21 149.78 178.26 149.78 178.26 156.85 176.46 156.85 176.46 149.78 174.52 149.78 174.52 148.38 180.21 148.38 180.21 149.78"/><path class="cls-9" d="M218.91,182.77l2.36,8.48H219.4l-.41-1.79h-2.37l-.41,1.79h-1.87l2.36-8.48Zm-.24,5.28-.86-3.81h0l-.86,3.81Z" transform="translate(-33.98 -34.39)"/><polygon class="cls-9" points="192.16 154.18 192.18 154.18 192.18 148.38 193.83 148.38 193.83 156.85 191.78 156.85 189.59 150.92 189.56 150.92 189.56 156.85 187.92 156.85 187.92 148.38 189.99 148.38 192.16 154.18"/><path class="cls-9" d="M232.07,182.77a4.59,4.59,0,0,1,1,.11,2.15,2.15,0,0,1,.81.36,1.64,1.64,0,0,1,.52.66,2.51,2.51,0,0,1,.19,1,2,2,0,0,1-.34,1.18,1.7,1.7,0,0,1-1,.67v0a1.79,1.79,0,0,1,1.19.61,2,2,0,0,1,.44,1.37,3.24,3.24,0,0,1-.14,1,1.9,1.9,0,0,1-.47.79,2.36,2.36,0,0,1-.86.54,3.71,3.71,0,0,1-1.32.2h-3v-8.48Zm-.7,3.48a1.85,1.85,0,0,0,1.09-.25,1,1,0,0,0,.34-.86,1,1,0,0,0-.31-.85,1.58,1.58,0,0,0-1-.25h-.65v2.22Zm.19,3.74a1.82,1.82,0,0,0,1-.27,1.14,1.14,0,0,0,.4-1,1.53,1.53,0,0,0-.11-.61,1,1,0,0,0-.29-.39,1.06,1.06,0,0,0-.43-.21,2.41,2.41,0,0,0-.55-.06h-.77V190Z" transform="translate(-33.98 -34.39)"/><path class="cls-9" d="M237.68,188.68a3.89,3.89,0,0,0,0,.59,1.33,1.33,0,0,0,.16.46.86.86,0,0,0,.32.31,1.07,1.07,0,0,0,.52.11,1.06,1.06,0,0,0,.52-.11.87.87,0,0,0,.32-.31,1.31,1.31,0,0,0,.16-.46,3.73,3.73,0,0,0,0-.59v-5.91h1.8v5.91a3.31,3.31,0,0,1-.24,1.34,2.14,2.14,0,0,1-.64.84,2.2,2.2,0,0,1-.91.42,5.18,5.18,0,0,1-1.06.11,5.78,5.78,0,0,1-1.06-.09,2.19,2.19,0,0,1-.91-.39,2,2,0,0,1-.64-.83,3.45,3.45,0,0,1-.24-1.39v-5.91h1.8Z" transform="translate(-33.98 -34.39)"/><polygon class="cls-9" points="208.73 148.38 210.53 148.38 210.53 155.45 213.71 155.45 213.71 156.85 208.73 156.85 208.73 148.38"/><path class="cls-9" d="M254.49,182.77a4.6,4.6,0,0,1,1,.11,2.15,2.15,0,0,1,.8.36,1.65,1.65,0,0,1,.52.66,2.48,2.48,0,0,1,.19,1,2,2,0,0,1-.34,1.18,1.7,1.7,0,0,1-1,.67v0a1.79,1.79,0,0,1,1.19.61,2,2,0,0,1,.44,1.37,3.19,3.19,0,0,1-.14,1,1.9,1.9,0,0,1-.47.79,2.35,2.35,0,0,1-.86.54,3.71,3.71,0,0,1-1.32.2h-3v-8.48Zm-.7,3.48a1.85,1.85,0,0,0,1.09-.25,1,1,0,0,0,.34-.86,1,1,0,0,0-.31-.85,1.58,1.58,0,0,0-1-.25h-.65v2.22ZM254,190a1.82,1.82,0,0,0,1-.27,1.13,1.13,0,0,0,.4-1,1.56,1.56,0,0,0-.11-.61,1,1,0,0,0-.29-.39,1.07,1.07,0,0,0-.43-.21,2.4,2.4,0,0,0-.55-.06h-.77V190Z" transform="translate(-33.98 -34.39)"/><path class="cls-9" d="M262.37,182.77l2.36,8.48h-1.87l-.41-1.79h-2.37l-.41,1.79H257.8l2.36-8.48Zm-.24,5.28-.86-3.81h0l-.86,3.81Z" transform="translate(-33.98 -34.39)"/><path class="cls-9" d="M275.79,182.77l2.36,8.48h-1.87l-.41-1.79h-2.37l-.41,1.79h-1.87l2.36-8.48Zm-.24,5.28-.86-3.81h0L273.8,188Z" transform="translate(-33.98 -34.39)"/><polygon class="cls-9" points="246.59 151.77 246.61 151.77 248.88 148.38 250.83 148.38 248.41 152.01 251.1 156.85 249.08 156.85 247.25 153.38 246.59 154.34 246.59 156.85 244.79 156.85 244.79 148.38 246.59 148.38 246.59 151.77"/><polygon class="cls-9" points="262.95 149.78 259.76 149.78 259.76 151.77 262.76 151.77 262.76 153.18 259.76 153.18 259.76 155.45 263.07 155.45 263.07 156.85 257.97 156.85 257.97 148.38 262.95 148.38 262.95 149.78"/><polygon class="cls-9" points="265.76 148.38 265.76 151.62 267.86 151.62 267.86 148.38 269.66 148.38 269.66 156.85 267.86 156.85 267.86 153.09 265.76 153.09 265.76 156.85 263.97 156.85 263.97 148.38 265.76 148.38"/><path class="cls-9" d="M306.62,184.07H304.9v-1.4h1.72Zm0,7.17H304.9v-6.39h1.72Z" transform="translate(-33.98 -34.39)"/><path class="cls-9" d="M311.2,182.77a2.59,2.59,0,0,1,1.75.54,2.06,2.06,0,0,1,.62,1.64,2.46,2.46,0,0,1-.36,1.4,1.69,1.69,0,0,1-1.12.69v0a1.67,1.67,0,0,1,1,.42,1.71,1.71,0,0,1,.39,1c0,.16,0,.33,0,.52s0,.39,0,.62c0,.45,0,.79.08,1a.66.66,0,0,0,.32.49v.07H312a.89.89,0,0,1-.18-.41,4.44,4.44,0,0,1,0-.48l-.05-1.63a1.29,1.29,0,0,0-.26-.78,1,1,0,0,0-.8-.29h-1v3.59h-1.8v-8.48Zm-.77,3.7a1.52,1.52,0,0,0,1-.29,1.21,1.21,0,0,0,.35-1q0-1.18-1.25-1.18h-.85v2.45Z" transform="translate(-33.98 -34.39)"/><path class="cls-9" d="M283.22,266.37a28,28,0,0,0-6.51-6.88l-.9-.66a22.8,22.8,0,0,0,2.91-4.32,24.68,24.68,0,0,0,2.67-11.41,25.48,25.48,0,0,0-5.77-16.56,28.37,28.37,0,0,0-15-9.41c-4.16-1.16-10.29-1.72-18.74-1.72H223.09v66.15h0v31.53h29.47c7.9,0,14-1.16,18.79-3.54a29.34,29.34,0,0,0,11.8-10.92,30,30,0,0,0,4.57-16.15,28.91,28.91,0,0,0-4.5-16.09m-4.37,29.53a24.24,24.24,0,0,1-9.77,9.07q-6,3-16.52,3h-24.4V276.45h0V259.74h0v-4.93h20.19q6.06,0,9-2.56a8.74,8.74,0,0,0,2.94-7,10.72,10.72,0,0,0-.08-1.32,8.11,8.11,0,0,0-1.23-3.51,8,8,0,0,0-1.48-1.68,7.81,7.81,0,0,0-.87-.64,14,14,0,0,0-7.62-1.76h-4.27v13.24H228.17V220.5h13.68q11.9,0,17.41,1.55a23.32,23.32,0,0,1,12.44,7.73,20.4,20.4,0,0,1,4.62,13.32,19.5,19.5,0,0,1-2.1,9.07,23,23,0,0,1-6.83,7.64h0a23.59,23.59,0,0,1-3,1.78q-6,3-16.52,3h-3.18v11.85h0v15.65h4.15q10.32,0,13.91-2.62a8.83,8.83,0,0,0,3.59-7.61,10.69,10.69,0,0,0-4.21-8.92q-3.89-3-12.57-3.25c7.1-.16,12.71-1.31,17.12-3.52a28.44,28.44,0,0,0,5.52-3.63,22.44,22.44,0,0,1,10.42,19.92A24.84,24.84,0,0,1,278.86,295.9ZM249.8,249.66v-8.17a8.23,8.23,0,0,1,4.09.95,2.5,2.5,0,0,1,.3.22,2.85,2.85,0,0,1,.54.6,3.08,3.08,0,0,1,.44,1.34,5.7,5.7,0,0,1,0,.7,3.63,3.63,0,0,1-1.18,3.1C253.55,248.81,252.39,249.48,249.8,249.66Zm0,37.33V274.8c5.86.2,8.32,1.44,9.26,2.18a5.65,5.65,0,0,1,2.24,4.89c0,2.1-.72,2.92-1.49,3.48C259.45,285.61,257.32,286.89,249.8,287Z" transform="translate(-33.98 -34.39)"/><path class="cls-9" d="M245.45,332.79a2.23,2.23,0,0,1,.45-.84,2.16,2.16,0,0,1,.77-.55,2.61,2.61,0,0,1,1-.2,2.78,2.78,0,0,1,.9.14,2.17,2.17,0,0,1,.74.41,1.9,1.9,0,0,1,.5.66,2.2,2.2,0,0,1,.18.92,2.33,2.33,0,0,1-.15.87,2.5,2.5,0,0,1-.4.68,3.52,3.52,0,0,1-.57.54q-.32.24-.67.46l-.69.42a5.28,5.28,0,0,0-.63.43,2.89,2.89,0,0,0-.49.5,1.41,1.41,0,0,0-.27.61H250v.79h-4.83a3.94,3.94,0,0,1,.23-1.13,3,3,0,0,1,.46-.82,3.57,3.57,0,0,1,.64-.61c.24-.17.48-.34.74-.49l.82-.54a3.64,3.64,0,0,0,.59-.5,1.69,1.69,0,0,0,.48-1.23,1.26,1.26,0,0,0-.12-.55,1.37,1.37,0,0,0-.31-.43,1.35,1.35,0,0,0-.45-.27,1.6,1.6,0,0,0-.55-.1,1.26,1.26,0,0,0-.66.17,1.38,1.38,0,0,0-.45.42,1.78,1.78,0,0,0-.26.59,2.49,2.49,0,0,0-.07.67h-.89a3,3,0,0,1,.11-1" transform="translate(-33.98 -34.39)"/><path class="cls-9" d="M250.9,334.14a5.77,5.77,0,0,1,.11-.86,4.26,4.26,0,0,1,.24-.8,2.18,2.18,0,0,1,.43-.66,2,2,0,0,1,.68-.45,3,3,0,0,1,2,0,1.94,1.94,0,0,1,.68.45,2.13,2.13,0,0,1,.43.66,4.16,4.16,0,0,1,.24.8,5.75,5.75,0,0,1,.1.86q0,.44,0,.85t0,.85a5.7,5.7,0,0,1-.1.86,4.1,4.1,0,0,1-.24.79,2.13,2.13,0,0,1-.43.66,1.86,1.86,0,0,1-.68.45,3.09,3.09,0,0,1-2,0,1.88,1.88,0,0,1-.68-.45,2.19,2.19,0,0,1-.43-.66,4.2,4.2,0,0,1-.24-.79,5.72,5.72,0,0,1-.11-.86c0-.29,0-.57,0-.85s0-.56,0-.85m.95,1.78a4,4,0,0,0,.17,1,1.85,1.85,0,0,0,.45.77,1.38,1.38,0,0,0,1.75,0,1.82,1.82,0,0,0,.45-.77,3.89,3.89,0,0,0,.17-1c0-.35,0-.66,0-.94s0-.38,0-.6a5.17,5.17,0,0,0-.19-1.31,1.7,1.7,0,0,0-.26-.55,1.36,1.36,0,0,0-.43-.39,1.48,1.48,0,0,0-1.27,0,1.35,1.35,0,0,0-.43.39,1.73,1.73,0,0,0-.26.55,5.1,5.1,0,0,0-.14.64,5.19,5.19,0,0,0-.05.66c0,.22,0,.42,0,.6S251.83,335.57,251.85,335.92Z" transform="translate(-33.98 -34.39)"/><path class="cls-9" d="M258.84,338.64v-5.33h-1.92v-.71a4.88,4.88,0,0,0,.73-.06,2,2,0,0,0,.64-.22,1.44,1.44,0,0,0,.48-.43,1.64,1.64,0,0,0,.27-.69h.68v7.44Z" transform="translate(-33.98 -34.39)"/><path class="cls-9" d="M266.95,336.11v.79h-1v1.74h-.84V336.9h-3.25V336l3.37-4.84h.71v4.91Zm-1.84-3.64h0l-2.46,3.64h2.48Z" transform="translate(-33.98 -34.39)"/><path class="cls-9" d="M286.92,188.85a2.6,2.6,0,0,0,.05.54.92.92,0,0,0,.19.41.9.9,0,0,0,.37.26,1.54,1.54,0,0,0,.58.09,1.18,1.18,0,0,0,.74-.25.93.93,0,0,0,.33-.79,1.39,1.39,0,0,0-.08-.49,1,1,0,0,0-.27-.37,1.91,1.91,0,0,0-.49-.3,7.32,7.32,0,0,0-.76-.28,6.41,6.41,0,0,1-1-.42,2.79,2.79,0,0,1-.73-.53,1.87,1.87,0,0,1-.43-.7,2.82,2.82,0,0,1-.14-.92,2.31,2.31,0,0,1,.74-1.88,3,3,0,0,1,2-.62,4.66,4.66,0,0,1,1.1.12,2.39,2.39,0,0,1,.87.4,1.92,1.92,0,0,1,.57.71,2.41,2.41,0,0,1,.21,1v.24H289a1.63,1.63,0,0,0-.23-.93.84.84,0,0,0-.75-.33,1.3,1.3,0,0,0-.5.08.86.86,0,0,0-.32.22.75.75,0,0,0-.16.31,1.59,1.59,0,0,0,0,.37,1.18,1.18,0,0,0,.17.66,1.57,1.57,0,0,0,.75.49l1.38.57a4.35,4.35,0,0,1,.84.45,2.2,2.2,0,0,1,.52.5,1.64,1.64,0,0,1,.27.59,3.16,3.16,0,0,1,.08.71,2.28,2.28,0,0,1-.82,2,3.73,3.73,0,0,1-2.28.61,3.09,3.09,0,0,1-2.18-.63,2.39,2.39,0,0,1-.65-1.81v-.34h1.8ZM288,192l.21,0,.21,0a1.25,1.25,0,0,1,.37.06,1.13,1.13,0,0,1,.34.17.84.84,0,0,1,.24.27.75.75,0,0,1,.09.37,1,1,0,0,1-.4.83,2,2,0,0,1-1.16.29,3.73,3.73,0,0,1-.76-.07,1.9,1.9,0,0,1-.49-.15l.24-.55a1.58,1.58,0,0,0,.38.13,2.3,2.3,0,0,0,.48.05.78.78,0,0,0,.44-.12.34.34,0,0,0,.18-.29.35.35,0,0,0-.15-.29.64.64,0,0,0-.4-.11l-.23,0-.19.05-.27-.24.68-1.06h.67Z" transform="translate(-33.98 -34.39)"/></svg>