<svg id="Layer_1" data-name="Layer 1" xmlns="http://www.w3.org/2000/svg" viewBox="0 0 230.53 302.08"><title>Club Brugge KV logo - Brandlogos.net</title><g id="layer1"><g id="g143"><g id="Layer_5" data-name="Layer 5"><circle id="circle66" cx="115.64" cy="187.19" r="102.45" style="fill:#fff"/><path id="path68" d="M354.76,330.81,340,293.89l6.55-10.45,46.74,4.11,27.42,6.35,5,10-12.69,26.92-58.28,4Z" transform="translate(-268.73 -232.96)" style="fill:#fff"/></g><g id="_ÎÓÈ_1" data-name="—ÎÓÈ_1"><path id="path71" d="M384,528.78a109,109,0,0,1-39.74-210.54l0,0c-.91-1.12-1.82-2.28-2.65-3.53-5.27-7.8-6.64-23.64,5-31.27,10.54-6.93,23.23-1.95,25.05-1.16v-.08a12.37,12.37,0,0,1,24.72,0v.08c1.87-.79,14.52-5.72,25.05,1.16,11.61,7.63,10.24,23.48,5,31.27-.83,1.24-1.74,2.41-2.65,3.53l0,0A109,109,0,0,1,384,528.78Zm0-9.79a99.21,99.21,0,1,0-99.21-99.21A99.32,99.32,0,0,0,384,519Zm0-229.91c-1.29,0-2.41,1.08-3,2.65h0a16.8,16.8,0,0,0-14.6-1.66h0c-2.9-.87-8.83-1.87-14.06,1.82-7.05,5-5.56,15.6-2.07,21.11a54.27,54.27,0,0,0,9.25,10.66l0,0,.25,3.07a90.68,90.68,0,0,1,48.61,0l.25-3.07,0,0A55.69,55.69,0,0,0,417.89,313c3.48-5.52,5-16.13-2.07-21.11-5.23-3.69-11.16-2.65-14.06-1.82h0a17,17,0,0,0-14.6,1.66h0C386.41,290.12,385.29,289.08,384,289.08Z" transform="translate(-268.73 -232.96)"/><path id="path73" d="M384,270.25a12.36,12.36,0,0,1,12.36,11.95v.08a33.82,33.82,0,0,1,12.28-2.45,23.24,23.24,0,0,1,12.82,3.61c11.61,7.63,10.24,23.48,5,31.27-.83,1.24-1.74,2.41-2.65,3.53l0,0a108.95,108.95,0,1,1-79.47,0l0,0c-.91-1.12-1.82-2.28-2.65-3.53-5.27-7.8-6.64-23.64,5-31.27a23.15,23.15,0,0,1,12.82-3.61,33.82,33.82,0,0,1,12.28,2.45v-.08A12.33,12.33,0,0,1,384,270.25m3,21.49c-.62-1.62-1.74-2.65-3-2.65s-2.41,1.08-3,2.65h0a17.43,17.43,0,0,0-9.08-2.65,16.2,16.2,0,0,0-5.52,1h0a20.24,20.24,0,0,0-5.48-.79,14.84,14.84,0,0,0-8.59,2.61c-7.05,5-5.56,15.6-2.07,21.11a54.27,54.27,0,0,0,9.25,10.66l0,0a99.21,99.21,0,1,0,49.11,0l0,0A55.69,55.69,0,0,0,417.89,313c3.48-5.52,5-16.13-2.07-21.11a14.55,14.55,0,0,0-8.59-2.61,20.51,20.51,0,0,0-5.48.79h0a16.2,16.2,0,0,0-5.52-1,17.09,17.09,0,0,0-9.13,2.65m-3,28.87a100.06,100.06,0,0,1,24.55,3.07l-.25,3.07a90.68,90.68,0,0,0-48.61,0l-.25-3.07A97.86,97.86,0,0,1,384,320.6M384,264a18.53,18.53,0,0,0-13,5.27,18.91,18.91,0,0,0-3.77,5.14,37.37,37.37,0,0,0-7.88-.83,29.36,29.36,0,0,0-16.26,4.65A25.42,25.42,0,0,0,332,294.93a32.92,32.92,0,0,0,2.82,20.61,114,114,0,0,0-22.31,13.89,115.91,115.91,0,0,0-23.19,24.68A115.28,115.28,0,1,0,455.55,329.4a117.31,117.31,0,0,0-22.31-13.89,32.92,32.92,0,0,0,2.82-20.61,25.42,25.42,0,0,0-11.16-16.72,29.26,29.26,0,0,0-16.26-4.65,40.32,40.32,0,0,0-7.88.83,18.3,18.3,0,0,0-3.77-5.14A18.58,18.58,0,0,0,384,264Zm.17,36.67,6-3.44h0l.17-.08.17-.08a11.05,11.05,0,0,1,5.64-1.62,9.62,9.62,0,0,1,3.36.62l.21.08.21,0h0l1.78.5,1.78-.54a13.68,13.68,0,0,1,3.69-.54,8.32,8.32,0,0,1,5,1.49c3.77,2.65,2.24,9.62.37,12.61a44,44,0,0,1-5.81,7.09,106.4,106.4,0,0,0-45.38,0,41.55,41.55,0,0,1-5.81-7.09c-1.87-3-3.4-10,.37-12.61a8.32,8.32,0,0,1,5-1.49,13.68,13.68,0,0,1,3.69.54l1.78.54,1.78-.5h0l.21,0,.21-.08a9.45,9.45,0,0,1,3.36-.62A11.05,11.05,0,0,1,377.7,297l.17.08.17.08h0l6,3.44.08.17.12-.08.12.08ZM354,334.87l7.38-2.07a84.78,84.78,0,0,1,45.21,0l7.38,2.07.21-2.94A92.34,92.34,0,0,1,434.81,342a93.63,93.63,0,0,1,36.79,46.83A93,93,0,1,1,311,362.37,93.84,93.84,0,0,1,333.11,342a92.34,92.34,0,0,1,20.61-10.12Z" transform="translate(-268.73 -232.96)" style="fill:#fff"/><path id="path75" d="M368.36,348.06l-1.16-5.48-1.58.33-.17-.79.12,0c.71-.17,1.53-.5,1.53-1.49l0-.17.87-.21,1.62,7.55Zm8.25-3.48c-.08-1.12.41-1.82,1.2-2v0a1.52,1.52,0,0,1-1.16-1.58,2.08,2.08,0,0,1,4.15-.29,1.6,1.6,0,0,1-1,1.74v0c.79.08,1.37.71,1.45,1.82a2,2,0,0,1-2.16,2.45C377.53,346.82,376.7,346.07,376.62,344.58Zm2.16-2.53c.79,0,.91-.62.87-1.24s-.29-1.12-1-1.08-.91.62-.87,1.2S378,342.13,378.77,342Zm.25,3.77c.87,0,1-.71,1-1.53s-.33-1.45-1.16-1.37-1,.71-1,1.53S378.15,345.9,379,345.82Zm9.71-1a.9.9,0,0,0,.75,1.08c1.16.08,1.33-1.45,1.41-2.57l0,0a1.58,1.58,0,0,1-1.58.71c-1-.08-1.82-.91-1.74-2.45.12-1.78,1-2.78,2.57-2.65,1.95.12,2.2,1.66,2,3.86s-.75,4.11-2.78,4c-1.33-.08-2-.75-1.95-2Zm1.24-5.06c-.75,0-1.08.66-1.16,1.58-.08,1.08.21,1.7.91,1.74.91.08,1.12-.71,1.2-1.62s-.21-1.62-1-1.7Zm9.58,8.25,1.2-5.48-1.58-.33.17-.79.12,0a1.61,1.61,0,0,0,2-.75l0-.17.87.21-1.66,7.51Z" transform="translate(-268.73 -232.96)"/><path id="path77" d="M385.37,285v2.2a.28.28,0,0,1-.29.29H383a.28.28,0,0,1-.29-.29v-2.28h-2.28a.28.28,0,0,1-.29-.29v-2.12a.28.28,0,0,1,.29-.29h2.28V280a.28.28,0,0,1,.29-.29h2.12a.28.28,0,0,1,.29.29v2.32h2.28a.28.28,0,0,1,.29.29v2.12a.28.28,0,0,1-.29.29h-2.28Z" transform="translate(-268.73 -232.96)" style="fill:#fff"/><circle id="circle79" cx="115.31" cy="69.1" r="4.69"/><circle id="circle81" cx="115.31" cy="78.72" r="2.57"/><circle id="circle83" cx="115.31" cy="94.15" r="1.78"/><circle id="circle85" cx="95.85" cy="96.06" r="1.78"/><path id="path87" d="M310.75,455.2l-1.16-2.86a1.93,1.93,0,0,0,.37-.12c2-.83,2.78-1.95,2.2-3.4a2,2,0,0,0-1.53-1.37,2.89,2.89,0,0,0-1.33.08c-.41.12-.87.29-1.41.5l-5.81,2.36a8,8,0,0,0-2.49,1.37,2,2,0,0,0-.37,2.32c.58,1.49,2,1.74,4.31.83.08,0,.25-.08.46-.17l1.16,2.86a4.82,4.82,0,0,1-.66.25,7.25,7.25,0,0,1-4.44.54,5.06,5.06,0,0,1-3.36-3.28,4.82,4.82,0,0,1,.29-4.94,5.39,5.39,0,0,1,1.91-1.7c.66-.33,1.45-.71,2.41-1.12l4.85-1.95a14,14,0,0,1,3.61-1.08,4.41,4.41,0,0,1,3.36,1.16,6.14,6.14,0,0,1,1.53,2.28,5.38,5.38,0,0,1,.12,4.23,6.05,6.05,0,0,1-3.48,3,5.09,5.09,0,0,1-.54.21Zm9.5,4.11L306.64,468,310,473.2l-2.28,1.45-5-7.8,15.89-10.16Zm10.41,13.23,2.12,2.24-9.33,8.71a9.82,9.82,0,0,1-2.78,2c-1.95.79-3.77.29-5.48-1.53a5,5,0,0,1-1.58-4.19,4.22,4.22,0,0,1,1-2.2,16.13,16.13,0,0,1,1.66-1.83l9.33-8.71,2.12,2.24L318,478.38a4.91,4.91,0,0,0-1.41,1.91,1.88,1.88,0,0,0,.58,1.87,1.94,1.94,0,0,0,1.83.71,4.58,4.58,0,0,0,2-1.24Zm-5,20.95,10.87-15.39,3.77,2.65a6.53,6.53,0,0,1,2.74,3.32,4.31,4.31,0,0,1-.75,4,4.12,4.12,0,0,1-2.65,1.83,4.82,4.82,0,0,1-2.45-.29,5.77,5.77,0,0,1,1.29,2.24,4.24,4.24,0,0,1-.83,3.61,5,5,0,0,1-3.65,2.28,6.23,6.23,0,0,1-4.27-1.37Zm4.06-.46,1.29.91a3.42,3.42,0,0,0,2.32.75,2.41,2.41,0,0,0,1.74-1.12,3.11,3.11,0,0,0,.54-2.32A3.54,3.54,0,0,0,334,489l-.91-.66Zm4.89-6.89.91.66a3.36,3.36,0,0,0,2.28.71,2.56,2.56,0,0,0,1.78-1.08,2.11,2.11,0,0,0,.37-1.83,3.37,3.37,0,0,0-1.49-1.78l-1-.71Zm13.6,20.61L354.43,489l4.36,1.53a7.11,7.11,0,0,1,3.57,2.45,4.39,4.39,0,0,1,.41,4,4,4,0,0,1-4.48,2.86,6,6,0,0,1,1.87,1.78,4.28,4.28,0,0,1,.21,3.73,4.87,4.87,0,0,1-2.9,3.19,6.44,6.44,0,0,1-4.48-.12Zm3.82-1.53,1.45.5a3.35,3.35,0,0,0,2.45.08,2.41,2.41,0,0,0,1.37-1.53,2.93,2.93,0,0,0-.12-2.36,3.56,3.56,0,0,0-2.2-1.74l-1.08-.37Zm2.78-8,1.08.37a3.22,3.22,0,0,0,2.41,0,2.59,2.59,0,0,0,1.41-1.53,2.11,2.11,0,0,0-.17-1.87,3.27,3.27,0,0,0-1.95-1.29l-1.12-.37ZM370.52,505l-1,7.63-3.07-.41,2.53-18.71,4.81.66a6.27,6.27,0,0,1,3.77,1.66,5.25,5.25,0,0,1,1.2,4.48c-.33,2.36-1.45,3.9-3.36,4.52l1.78,8.83-3.24-.41-1.58-8Zm.37-2.7,1.12.17a5.73,5.73,0,0,0,1.87,0c1-.25,1.53-1,1.74-2.45a2.89,2.89,0,0,0-.46-2.32,1.85,1.85,0,0,0-1-.66,5.82,5.82,0,0,0-1.33-.25l-1.12-.17Zm20.95-7.8,3.07-.25,1,12.73a10.22,10.22,0,0,1-.17,3.4c-.62,2-2.16,3.15-4.65,3.32a5.08,5.08,0,0,1-4.23-1.37,4.38,4.38,0,0,1-1.12-2.12,18,18,0,0,1-.37-2.45l-1-12.73,3.07-.25,1,13.23a4.56,4.56,0,0,0,.62,2.28,1.84,1.84,0,0,0,1.82.71,1.9,1.9,0,0,0,1.7-1,4.58,4.58,0,0,0,.25-2.32Zm15.64,6.59,5.43-1.58,2.61,9-1.53.46-1-1.37a5.06,5.06,0,0,1-.87,1.49,4.68,4.68,0,0,1-2.24,1.37,4.63,4.63,0,0,1-5.77-2.65,20.35,20.35,0,0,1-1-2.86l-1.45-5a13.38,13.38,0,0,1-.71-3.73,4.27,4.27,0,0,1,1.49-3.24,6.26,6.26,0,0,1,2.45-1.29,4.91,4.91,0,0,1,5.23,1.12,8.13,8.13,0,0,1,1.78,3.57l-3,.87a6.28,6.28,0,0,0-1-2.24,2.07,2.07,0,0,0-2.28-.66,2,2,0,0,0-1.49,1.45,3.57,3.57,0,0,0,0,1.33c.08.41.21.87.37,1.45l1.62,5.56a10.06,10.06,0,0,0,1.16,2.82,2,2,0,0,0,2.41.79,1.89,1.89,0,0,0,1.49-1.62,6.54,6.54,0,0,0-.33-2.61l-.21-.75-2.45.71Zm15.43-6.18,5-2.61,4.31,8.3-1.41.75-1.2-1.16a4.93,4.93,0,0,1-.54,1.62,4.34,4.34,0,0,1-1.91,1.74,4.79,4.79,0,0,1-3.24.54,4.85,4.85,0,0,1-2.94-2,18.31,18.31,0,0,1-1.58-2.61l-2.41-4.6a12.48,12.48,0,0,1-1.41-3.53,4.39,4.39,0,0,1,.83-3.44,6.28,6.28,0,0,1,2.12-1.74,5,5,0,0,1,5.35,0,8.72,8.72,0,0,1,2.45,3.11l-2.74,1.45a6.11,6.11,0,0,0-1.45-2,2.14,2.14,0,0,0-2.36-.21,2,2,0,0,0-1.2,1.7,3.38,3.38,0,0,0,.25,1.29c.17.37.37.83.62,1.33l2.65,5.1a10.4,10.4,0,0,0,1.7,2.57,2,2,0,0,0,2.53.29,2,2,0,0,0,1.16-1.87,6.63,6.63,0,0,0-.83-2.49l-.33-.66L424.11,497Zm11.36-19.16,1.7,2.12-4.69,3.69,3.07,3.9,3.44-2.7,1.7,2.12-3.44,2.7,3.57,4.52,4.69-3.69,1.7,2.12-7.09,5.6-11.66-14.81Zm7.92-8.5,1.45-2,7.55,5.31,0,0-3.53-11,1.58-2.28,3,9.58,12.86,1L463.55,470l-10.62-.83,1,3.28,5.31,3.73-1.45,2ZM450.45,455l1-2.41,16.59,2.74,0,0-13.48-10,1-2.41L471.19,455l-1.24,2.9ZM384,334.79a142,142,0,0,0,19.83-1.33c1.82-.25,1.49-.71-.12-1a115,115,0,0,0-39.4,0c-1.62.29-1.91.75-.12,1A142,142,0,0,0,384,334.79Zm69.35,85A69.37,69.37,0,1,1,384,350.42,69.35,69.35,0,0,1,453.39,419.77Zm-69.35,61a60.93,60.93,0,1,0-60.93-60.93A61,61,0,0,0,384,480.75Z" transform="translate(-268.73 -232.96)"/><circle id="circle89" cx="115.31" cy="186.81" r="58.36" style="fill:#0078bf"/><path id="path91" d="M398.6,476.35a58.81,58.81,0,0,1-28.58.12l0,0,70.59-70.59,0,0a58.81,58.81,0,0,1-.12,28.58l0,0-41.89,41.89Zm-48.11-8.79a59.41,59.41,0,0,1-14.23-14.23l0,0,81.21-81.21,0-.08a59.41,59.41,0,0,1,14.23,14.23l0,0-81.21,81.25Zm-23.14-33.76a58.81,58.81,0,0,1,.12-28.58h0l41.89-41.89,0,0a59,59,0,0,1,28.62-.12l0,0-70.64,70.55Z" transform="translate(-268.73 -232.96)"/><circle id="circle93" cx="105.97" cy="94.61" r="1.45"/><path id="path95" d="M364.67,318.61c-1,.21-2.07.41-3.15.66a46.14,46.14,0,0,1-7.38-8.71c-2.24-3.57-3.86-11.57.83-14.89a10.09,10.09,0,0,1,5.35-1.74v0c-6.06,6.59-1.58,16.84.62,20A42.73,42.73,0,0,0,364.67,318.61Z" transform="translate(-268.73 -232.96)"/><path id="path97" d="M368.49,315.92a34.83,34.83,0,0,1-3.77-4.65,17.13,17.13,0,0,1-2.78-7.92c-.17-3.44,1.37-6.47,3.65-7.8a12.06,12.06,0,0,1,11.57-.66l0,0c-2.28.62-6.59,2.45-7.26,7.3-.87,6.51,4.36,12.82,6.26,14.89h0c-2,.17-3.94.37-5.89.62C370.31,317.7,369.15,316.62,368.49,315.92Z" transform="translate(-268.73 -232.96)"/><circle id="circle99" cx="134.72" cy="96.06" r="1.78"/><circle id="circle101" cx="124.6" cy="94.61" r="1.45"/><path id="path103" d="M403.41,318.61c1,.21,2.07.41,3.15.66a46.14,46.14,0,0,0,7.38-8.71c2.24-3.57,3.86-11.57-.83-14.89a10.09,10.09,0,0,0-5.35-1.74v0c6.06,6.59,1.58,16.84-.62,20A42.73,42.73,0,0,1,403.41,318.61Z" transform="translate(-268.73 -232.96)"/><path id="path105" d="M399.55,315.92a34.83,34.83,0,0,0,3.77-4.65,17.13,17.13,0,0,0,2.78-7.92c.17-3.44-1.37-6.47-3.65-7.8a12.06,12.06,0,0,0-11.57-.66l0,0c2.28.62,6.59,2.45,7.26,7.3.87,6.51-4.36,12.82-6.26,14.89h0c2,.17,3.94.37,5.89.62,0,0,1.12-1.12,1.78-1.82Z" transform="translate(-268.73 -232.96)"/><path id="path107" d="M342.19,351.42c.08,0,.08.08,0,.17a9.93,9.93,0,0,1-5.81,2.65c-3.24.33-4.85-.66-5.27-1-.08,0,0-.12,0-.17a12.12,12.12,0,0,1,5.43-2.53A10.32,10.32,0,0,1,342.19,351.42Zm-35.46,75.65c.08,0,.12,0,.12.08a10.51,10.51,0,0,1-1.41,6.55c-1.74,2.9-3.61,3.69-4.11,3.86q-.12.06-.12-.12a12.44,12.44,0,0,1,1.29-6.18A10.81,10.81,0,0,1,306.73,427.07ZM292,429.6a.11.11,0,0,0-.12.12,10.42,10.42,0,0,0,3.11,5.89c2.45,2.32,4.4,2.57,4.89,2.57.08,0,.08,0,.08-.17-.08-1-.21-3-2.86-5.56a11,11,0,0,0-5.1-2.86Zm-.71-9.46c-.08,0-.12,0-.12.08a10.31,10.31,0,0,0,2.57,6c2.2,2.45,4.11,2.86,4.56,2.9.08,0,.12,0,.08-.12,0-1,0-2.94-2.36-5.64A10.57,10.57,0,0,0,291.34,420.15Zm14.89-.91c.08,0,.12,0,.12.08a10,10,0,0,1-2.07,6.26c-2,2.65-3.9,3.24-4.4,3.32a.11.11,0,0,1-.12-.12,12.25,12.25,0,0,1,1.87-5.89,10.51,10.51,0,0,1,4.6-3.65Zm-.33-8.67c.08,0,.12,0,.12.08a10.27,10.27,0,0,1-2.41,5.93c-2.12,2.45-4,2.86-4.48,2.94a.11.11,0,0,1-.12-.12,11.91,11.91,0,0,1,2.2-5.56,10.62,10.62,0,0,1,4.69-3.28Zm1.49-8a.11.11,0,0,1,.12.12,9.75,9.75,0,0,1-3.11,5.52c-2.41,2.12-4.27,2.32-4.77,2.32-.08,0-.12,0-.08-.17a11.66,11.66,0,0,1,2.86-5.18A10.61,10.61,0,0,1,307.39,402.6Zm2.7-7.42c.08,0,.12,0,.08.12a10.16,10.16,0,0,1-3.73,5.1c-2.61,1.82-4.44,1.82-4.94,1.78-.08,0-.08-.08-.08-.17a12.07,12.07,0,0,1,3.44-4.81,10.47,10.47,0,0,1,5.23-2Zm3.77-7.18c.08,0,.12,0,.08.12a10.06,10.06,0,0,1-4.56,4.4c-2.9,1.37-4.77,1-5.23.87-.08,0-.08-.08,0-.17a11.84,11.84,0,0,1,4.23-4.15A9.81,9.81,0,0,1,313.86,388Zm3.44-6.1c.08,0,.08.08,0,.12a9.87,9.87,0,0,1-5,4c-3.07,1.12-4.94.58-5.39.41-.08,0-.08-.08,0-.17a12.23,12.23,0,0,1,4.69-3.86,10.77,10.77,0,0,1,5.72-.54Zm4.31-6.59c.08,0,.08.08,0,.17a10,10,0,0,1-5.43,3.53,8.16,8.16,0,0,1-5.39-.12c-.08,0-.08-.08,0-.17a12.27,12.27,0,0,1,5.06-3.36A9.57,9.57,0,0,1,321.62,375.31Zm4.11-7c.08,0,.08.08,0,.17a10.23,10.23,0,0,1-5.48,3.53c-3.19.79-5,.08-5.43-.17-.08,0-.08-.08,0-.17a12.2,12.2,0,0,1,5.1-3.36A10.34,10.34,0,0,1,325.72,368.34Zm5.85-5.89c.08,0,.08.08,0,.17a10.22,10.22,0,0,1-5.68,3.07c-3.24.54-4.94-.33-5.35-.58a.09.09,0,0,1,0-.17,12.11,12.11,0,0,1,5.31-2.94A10.25,10.25,0,0,1,331.57,362.45Zm5.93-5.56c.08,0,.08.08,0,.17a9.72,9.72,0,0,1-5.81,2.61c-3.24.29-4.85-.66-5.27-1-.08,0,0-.12,0-.17a12.12,12.12,0,0,1,5.43-2.53A10.19,10.19,0,0,1,337.5,356.89Zm-2.16-8c0,.17,0,.25.17.21a11.13,11.13,0,0,0,5.52-1.87,9.45,9.45,0,0,0,3.61-4.27c0-.08,0-.12-.12-.17a9.33,9.33,0,0,0-6,1.66,8,8,0,0,0-3.19,4.44ZM292,409.74c-.08,0-.12,0-.12.08a10,10,0,0,0,1.24,6.26c1.62,2.78,3.36,3.57,3.82,3.73q.12.06.12-.12c.21-1,.62-2.82-1.12-5.89a10.58,10.58,0,0,0-3.94-4.06Zm1.74-9.62c-.08,0-.12,0-.12,0a9.79,9.79,0,0,0,.71,6.35c1.37,2.94,3,3.86,3.44,4,.08,0,.12,0,.12-.08.29-1,.83-2.74-.58-6A10.6,10.6,0,0,0,293.79,400.11Zm3.15-9s-.12,0-.12,0a9.78,9.78,0,0,0-.12,6.26c1,3,2.45,4.11,2.86,4.36.08,0,.12,0,.17-.08.41-.91,1.16-2.57.17-5.89A11.14,11.14,0,0,0,296.94,391.15Zm3.57-9s-.12,0-.12,0a10.54,10.54,0,0,0-.62,6.35c.71,3.15,2.12,4.36,2.49,4.65.08,0,.12,0,.17-.08.46-.87,1.37-2.53.62-6A10.55,10.55,0,0,0,300.51,382.2Zm4.69-7.8c0-.08-.08,0-.17,0a10.35,10.35,0,0,0-1.53,6.18c.25,3.19,1.45,4.6,1.78,4.94,0,0,.08,0,.17,0a7.86,7.86,0,0,0,1.53-5.81,11.2,11.2,0,0,0-1.78-5.27Zm4.69-7.63c0-.08-.08-.08-.17,0a10.29,10.29,0,0,0-1.83,6.14c.08,3.19,1.24,4.69,1.58,5,0,0,.08,0,.17,0,.62-.79,1.83-2.2,1.78-5.72A10.23,10.23,0,0,0,309.88,366.77Zm5-7.51c0-.08-.08-.08-.17,0a10.3,10.3,0,0,0-2,6.06c0,3.19,1.08,4.73,1.41,5.06,0,0,.08,0,.17,0,.66-.75,1.91-2.16,1.95-5.68A10.17,10.17,0,0,0,314.86,359.26Zm6.1-6.8c0-.08-.08-.08-.17,0a10.41,10.41,0,0,0-2.57,5.93c-.29,3.24.66,4.85,1,5.23,0,.08.08,0,.17,0,.75-.71,2.12-2,2.49-5.52A10.75,10.75,0,0,0,321,352.46Zm5.93-6c0-.08-.08-.08-.17,0a10.13,10.13,0,0,0-2.65,5.89,8.14,8.14,0,0,0,.87,5.27c0,.08.08,0,.17,0,.75-.71,2.12-1.95,2.57-5.48A10.46,10.46,0,0,0,326.89,346.48Zm7.42-4.81c0-.08-.08-.08-.12,0a10.35,10.35,0,0,0-3.77,5.23c-1,3.11-.37,4.89-.17,5.31,0,.08.08.08.17,0,.87-.54,2.49-1.49,3.57-4.89A9.87,9.87,0,0,0,334.31,341.67Zm91.54,9.75c-.08,0-.08.08,0,.17a9.93,9.93,0,0,0,5.81,2.65c3.24.33,4.85-.66,5.27-1,.08,0,0-.12,0-.17a12.12,12.12,0,0,0-5.43-2.53A10.32,10.32,0,0,0,425.85,351.42Zm35.46,75.65c-.08,0-.12,0-.12.08a10.51,10.51,0,0,0,1.41,6.55c1.74,2.9,3.61,3.69,4.11,3.86q.12.06.12-.12a12.44,12.44,0,0,0-1.29-6.18,10.3,10.3,0,0,0-4.23-4.19ZM476,429.6a.11.11,0,0,1,.12.12,10.42,10.42,0,0,1-3.11,5.89c-2.45,2.32-4.4,2.57-4.89,2.57-.08,0-.08,0-.08-.17.08-1,.21-3,2.86-5.56a11,11,0,0,1,5.1-2.86Zm.75-9.46c.08,0,.12,0,.12.08a10.31,10.31,0,0,1-2.57,6c-2.2,2.45-4.11,2.86-4.56,2.9-.08,0-.08,0-.08-.12,0-1,0-2.94,2.36-5.64a10.36,10.36,0,0,1,4.73-3.19Zm-14.89-.91c-.08,0-.12,0-.12.08a10,10,0,0,0,2.07,6.26c2,2.65,3.9,3.24,4.4,3.32a.11.11,0,0,0,.12-.12,12.25,12.25,0,0,0-1.87-5.89,10.75,10.75,0,0,0-4.6-3.65Zm.29-8.67c-.08,0-.12,0-.12.08a10.27,10.27,0,0,0,2.41,5.93c2.12,2.45,4,2.86,4.48,2.94a.11.11,0,0,0,.12-.12,11.91,11.91,0,0,0-2.2-5.56,10.4,10.4,0,0,0-4.69-3.28Zm-1.49-8a.11.11,0,0,0-.12.12,9.75,9.75,0,0,0,3.11,5.52c2.41,2.12,4.27,2.32,4.77,2.32.08,0,.12,0,.08-.17a11.66,11.66,0,0,0-2.86-5.18,10.44,10.44,0,0,0-5-2.61Zm-2.7-7.42c-.08,0-.12,0-.08.12a10.16,10.16,0,0,0,3.73,5.1c2.61,1.82,4.44,1.82,4.94,1.78.08,0,.08-.08.08-.17a12.07,12.07,0,0,0-3.44-4.81,10.47,10.47,0,0,0-5.23-2ZM454.22,388c-.08,0-.12,0-.08.12a10.06,10.06,0,0,0,4.56,4.4c2.9,1.37,4.77,1,5.23.87.08,0,.08-.08,0-.17a11.84,11.84,0,0,0-4.23-4.15A9.89,9.89,0,0,0,454.22,388Zm-3.48-6.1c-.08,0-.08.08,0,.12a9.87,9.87,0,0,0,5,4c3.07,1.12,4.94.58,5.39.41.08,0,.08-.08,0-.17a12.23,12.23,0,0,0-4.69-3.86,10.77,10.77,0,0,0-5.72-.54Zm-4.31-6.59c-.08,0-.08.08,0,.17a10,10,0,0,0,5.43,3.53,8.16,8.16,0,0,0,5.39-.12c.08,0,.08-.08,0-.17a12.27,12.27,0,0,0-5.06-3.36A9.57,9.57,0,0,0,446.42,375.31Zm-4.11-7c-.08,0-.08.08,0,.17a10.23,10.23,0,0,0,5.48,3.53c3.19.79,5,.08,5.43-.17.08,0,.08-.08,0-.17a12.2,12.2,0,0,0-5.1-3.36,10.41,10.41,0,0,0-5.77,0Zm-5.85-5.89c-.08,0-.08.08,0,.17a10.22,10.22,0,0,0,5.68,3.07c3.24.54,4.94-.33,5.35-.58a.09.09,0,0,0,0-.17,12.11,12.11,0,0,0-5.31-2.94A10.39,10.39,0,0,0,436.47,362.45Zm-5.93-5.56c-.08,0-.08.08,0,.17a9.72,9.72,0,0,0,5.81,2.61c3.24.29,4.85-.66,5.27-1,.08,0,0-.12,0-.17a12.12,12.12,0,0,0-5.43-2.53A10.28,10.28,0,0,0,430.54,356.89Zm2.16-8c0,.17,0,.25-.17.21a11.13,11.13,0,0,1-5.52-1.87A9.45,9.45,0,0,1,423.4,343c0-.08,0-.12.12-.17a9.33,9.33,0,0,1,6,1.66,7.81,7.81,0,0,1,3.19,4.44ZM476,409.74c.08,0,.12,0,.12.08a10,10,0,0,1-1.24,6.26c-1.62,2.78-3.36,3.57-3.82,3.73q-.12.06-.12-.12c-.21-1-.62-2.82,1.12-5.89a10.29,10.29,0,0,1,3.94-4.06Zm-1.74-9.62c.08,0,.12,0,.12,0a9.79,9.79,0,0,1-.71,6.35c-1.37,2.94-3,3.86-3.44,4-.08,0-.12,0-.12-.08-.29-1-.83-2.74.58-6A10.6,10.6,0,0,1,474.3,400.11Zm-3.15-9s.12,0,.12,0a9.78,9.78,0,0,1,.12,6.26c-1,3-2.45,4.11-2.86,4.36-.08,0-.12,0-.17-.08-.41-.91-1.16-2.57-.17-5.89A10.35,10.35,0,0,1,471.14,391.15Zm-3.57-9s.12,0,.12,0a10.54,10.54,0,0,1,.62,6.35c-.71,3.15-2.12,4.36-2.49,4.65-.08,0-.12,0-.17-.08-.46-.87-1.37-2.53-.62-6A9.82,9.82,0,0,1,467.58,382.2Zm-4.69-7.8c0-.08.08,0,.17,0a10.35,10.35,0,0,1,1.53,6.18c-.25,3.19-1.45,4.6-1.78,4.94,0,0-.08,0-.17,0a7.86,7.86,0,0,1-1.53-5.81,10.74,10.74,0,0,1,1.78-5.27Zm-4.73-7.63c0-.08.08-.08.17,0a10.29,10.29,0,0,1,1.82,6.14c-.08,3.19-1.24,4.69-1.58,5,0,0-.08,0-.17,0-.62-.79-1.82-2.2-1.78-5.72a11.11,11.11,0,0,1,1.53-5.39Zm-5-7.51c0-.08.08-.08.17,0a10.3,10.3,0,0,1,2,6.06c0,3.19-1.08,4.73-1.41,5.06,0,0-.08,0-.17,0-.66-.75-1.91-2.16-1.95-5.68A10.59,10.59,0,0,1,453.18,359.26Zm-6.06-6.8c0-.08.08-.08.17,0a10.41,10.41,0,0,1,2.57,5.93c.29,3.24-.66,4.85-1,5.23,0,.08-.08,0-.17,0-.75-.71-2.12-2-2.49-5.52a10.31,10.31,0,0,1,.87-5.6Zm-6-6c0-.08.08-.08.17,0a10.13,10.13,0,0,1,2.65,5.89,8.14,8.14,0,0,1-.87,5.27c0,.08-.08,0-.17,0-.75-.71-2.12-1.95-2.57-5.48a10.9,10.9,0,0,1,.79-5.68Zm-7.42-4.81c0-.08.08-.08.12,0a10.35,10.35,0,0,1,3.77,5.23c1,3.11.37,4.89.17,5.31,0,.08-.08.08-.17,0-.87-.54-2.49-1.49-3.57-4.89A10.28,10.28,0,0,1,433.73,341.67Z" transform="translate(-268.73 -232.96)" style="fill:#b48b13"/></g><path id="Layer_3" data-name="Layer 3" d="M383.88,233l3.36,10.78,11.61.12-8.75,7.3,3,10.33-9.25-6.14-9.29,6.14,3-10.33-8.75-7.3,11.61-.12Z" transform="translate(-268.73 -232.96)" style="fill:#d59f0f"/></g></g></svg>