<svg id="Layer_1" data-name="Layer 1" xmlns="http://www.w3.org/2000/svg" xmlns:xlink="http://www.w3.org/1999/xlink" width="179.35" height="179.36" viewBox="0 0 179.35 179.36"><defs><mask id="mask" x="0" y="0" width="179.35" height="179.36" maskUnits="userSpaceOnUse"><g transform="translate(-294.33 -294.32)"><g id="celtic-b"><polygon id="celtic-a" points="294.32 294.32 473.67 294.32 473.67 473.68 294.32 473.68 294.32 294.32" style="fill:#fff"/></g></g></mask></defs><title>Celtic FC logo - Brandlogos.net</title><circle cx="90" cy="89.36" r="89" style="fill:#fff"/><polygon points="121.03 56.93 121.31 56.93 121.31 55.42 121.03 55.42 121.03 56.93" style="fill:#00a851"/><path d="M430.62,390.19c-7-5.64-17.85-2.68-25.39.19-2.86.76-6.88,2.66-9.06-.49a5.25,5.25,0,0,1-.2-4.48c1.06-2.47,3.35-2.67,5.64-3,9.91,1.52,22.23,2.58,28.91-5.44a16.33,16.33,0,0,0,3.05-13.75c-1.33-5-6.39-8.49-10.31-10.89-6-2-7-9.35-12.21-12.69a17.14,17.14,0,0,0-17.47-.37c-7.82,5.44-4.58,15.84-4.47,24-.1,3.25.38,7.17-1.91,9.64a1.55,1.55,0,0,1-2.2-.86c-3.63-8.29.86-19.93-4.49-27.48-1.71-3.83-3.8-7.54-7.44-10.12-7-2.1-13.45,2.39-17.27,7.25-4.2,9.54-19.08,7.63-21.37,19.18-1,4.58,0,9.35,3.15,12.6,8.78,9.36,22.8,2.19,34.17,4.11.95.46,2.38,1.62,2.09,3a5.29,5.29,0,0,1-2.29,3.64c-11,6-26.15-5.16-34.35,5.52a13.27,13.27,0,0,0-2.77,10.79c1,7.73,9.92,9.94,14.12,15.28,2.1,3.63,4.48,7.92,7.25,10.5a18.46,18.46,0,0,0,17,3.82c7.92-5.54,5.25-18.53,3.63-26.64a3.77,3.77,0,0,1,1-4c1.24-.76,3-.85,3.81.67,1.62,6.87,0,14.5-.67,21.38-1.23,4-1.9,9.06-5.81,11.25a82.11,82.11,0,0,0,11.82.58c-2.75-10-.76-21.57-.37-32,.57-.95,1.33-2.38,2.77-1.53,1.62.76,1.8,2.39,1.89,3.92-.75,6.39-3,13.46-.66,19.76,2.39,5.53,8.31,7.92,14.22,7.53,5.63.29,9-3.63,11.55-8.21,4.1-6.68,13.17-7,17-14.6,1.81-5.43,2.86-14.13-2.29-18.22Zm.38,7.92a84.26,84.26,0,0,0-27.49,7.72,9.78,9.78,0,0,1-2.57-2.38c9.26-3.92,18.71-7.26,29.39-7.73Zm-1.72-4.49a98,98,0,0,0-29.58,8.32l-2.19-2.3c6.19-2.76,13.27-4.39,19.94-6.29l9.06-2.1c1.05.47,1.91,1.71,2.77,2.37Zm-26.62.19c6.87-1.71,13.55-5.81,21-3.91-9,1.82-18.42,5-27.48,7.83a16.8,16.8,0,0,1-3-4.78c3.25-.47,6,2.39,9.46.85ZM399,380.08a19.53,19.53,0,0,1,3-2.58c5.82,1.62,12.21,1.81,18.51,2.38-6,4.68-14.21-.1-21.47.2Zm24.24-1.34c-4-1-8.58-.77-12.69-1.62L404,376l1.63-1.44c6.58,1.24,13.75,1.15,20.71,1.63-.68,1.22-1.92,1.62-3.06,2.57Zm5-4.21a183.56,183.56,0,0,1-20.81-1.72c2-3.15,6.11-.28,9.16-1.13,5.15.37,9.75-.67,14.6-1.05a9.2,9.2,0,0,1-3,3.91Zm3.62-6.11a77.54,77.54,0,0,1-21.08,1.15c.36-3.82,4.95-1.24,7.34-2.19a119.17,119.17,0,0,0,13.07-2.1,12,12,0,0,1,.67,3.14Zm-1.33-5.06a70.2,70.2,0,0,1-16.89,2.29l1.53-3c4.66,0,9.64.1,13.73-1.52.86.3,1.25,1.43,1.62,2.19Zm-12.89-12,5.25,3.63a8.91,8.91,0,0,1-5.25,1.05Zm6.68,4.87a8.79,8.79,0,0,1,3.63,3.43,31.86,31.86,0,0,1-11.73,1.05l.86-2.48c2.48-.39,5.35-.29,7.25-2Zm-9.44-6.4h.19v-1.05h-.19Zm-4.3-7.06c4.11,2.1,1.24,7.35,3.06,10.49-.58,1.43-1.15,3.15-2.2,4-1.9-4.4-.86-9.53-.86-14.51Zm-5-2.39,3,1c0,5.83-1.05,12.5,1.53,17.56,0,1.14-1.14,2.09-1.72,2.86-2.49-6.29-3-13.84-2.86-21.47Zm-4.2-.68,2.28.2c0,8.4.49,16.61,3.25,23.86-1,1.05-1.44,2-2.58,2.57-3.82-7.72-3.43-17.56-3-26.63Zm-2,0c-.39,9.45-.67,19.86,3.62,27.88a6.75,6.75,0,0,1-2.76,2.67c-3-5.06-3.53-11.36-4-17.66L396,341a6.43,6.43,0,0,1,3.44-1.35Zm-5.53,3.44c.57,9.84.57,20.33,4.68,28.73l-2.29,1.35c-2.39-3.83-5-7.83-4.59-12.9-1-5.63-2.1-12.88,2.2-17.18Zm.66,31.12-3.53,2c-.2-2,.86-4.21,1-6.49ZM381.37,360.7a4.07,4.07,0,0,1,0,.66l.18,8.78c-3.91-2-.37-5.67-.18-8.78Zm-4-15.36a47.18,47.18,0,0,1,3.14,9.34c-1.14,3.44-1.14,7.35-2.1,11L376,363.27Zm-1.73-3.06c-.66,5.92-.56,12.4-1.33,18.7l-2.77-2.58c.2-7.44-.19-14.31-.28-21.47,2.2.76,3.62,3.44,4.38,5.34ZM369,336.65a153.12,153.12,0,0,1,.66,19.85c-.77-.47-2.2-1.33-2.57-2.39a167.27,167.27,0,0,0-1-16.79,7.21,7.21,0,0,1,2.87-.66ZM364.2,338c.48,4.95,1,10.29,1,15.07l-2.57-1.34-1.25-12.4A8.23,8.23,0,0,1,364.2,338Zm-4.68,2.76c.67,3,.86,6.49,1.24,9.74-4.29.85-2.57-3.74-4-6Zm-4.11,6.29a15.29,15.29,0,0,1,.39,2.28h-2.1Zm-5.53,5.06L341,355.83c2.48-2.29,5.92-2.48,8.89-3.71ZM340,358.6c4.21-2.1,8.4-4.21,13.07-5.35a4.6,4.6,0,0,1,2.59,1c-6,2.58-12,5-17.76,8.21-.28-1.33.29-3.53,2.1-3.91Zm-2.39,6.48c6.3-4.2,13.27-6.76,20.24-9.44a10.6,10.6,0,0,1,2.76,1.72A114,114,0,0,0,338,369.11a9.6,9.6,0,0,1-.48-4Zm1.33,6c6.69-5.44,15.09-9.26,23.38-12a6.61,6.61,0,0,1,3,2.48,52.84,52.84,0,0,0-24.61,11.25Zm3.14,3.15c7.36-5.91,15.38-9.84,24.92-11,1,.29,1.53,1.24,2.38,2.19a46.68,46.68,0,0,0-22.14,10.7c-1.82-.49-3.73-.77-5.16-1.91Zm7.74,2.19c5.83-4.49,13.08-8.5,21.28-8.87l2,2.57v.29a33.06,33.06,0,0,0-16.12,5.83Zm12.12-.85a19.94,19.94,0,0,1,12.88-2.87l1.71,3.25v.28c-4.49-1.44-9.63-1.05-14.6-.66Zm6.2,12.68c-1.14.58-1.81,2.58-3,1.44l-1.43-1.05c1.43-.39,3.14,0,4.48-.39Zm-9.73-.09c.76,2.2,4.1,1.24,5.63,3.06h.19c-2,3.62-5.82-.77-9-.49a71.74,71.74,0,0,0-12.88-1.43c4.39-3,10.88-2.39,16-1.14Zm-18.8,3.06a58,58,0,0,1,21.18,3c.1.58-.57.86-.86,1.24-7-1.24-15-2-22.14-.67a5.94,5.94,0,0,1,1.81-3.62Zm2.29,5a70,70,0,0,1,16.13.86c.2.67-.77,1.52-1.34,2.1a79.75,79.75,0,0,0-19.08-.58c-.67-2.57,2.67-2.1,4.3-2.39Zm-4,4.48a56,56,0,0,1,17.37.19c-.29,3.06-2.67,1-4.58,1.15-4.19-.48-8.49-.09-11.93,1.73a5.27,5.27,0,0,1-.86-3.06Zm12.79,13.56c-.58.09-1.24-1.05-1.71-1.33.38-.59,1-.39,1.52-.68.77.47,0,1.34.19,2Zm-3.34-2.58c-1.13-.48-1.33-1.44-2.57-1.91a12,12,0,0,1,6.21-1c1.14,2.67-2.87,1-3.64,2.86Zm-4.38-3.25-3-2.76c3.43-2.3,8.68-2.2,12.88-1.34.39,1-.75,1.62-.86,2.58-3-.19-6.48,0-9,1.52Zm10.58,9.27h.19v-1.06h-.19Zm4.3,6.38a8.45,8.45,0,0,1-2.78-3.64,14.21,14.21,0,0,0-.09-7.24l1.53-3c1.73,3.91,1.62,9.16,1.35,13.93Zm3.8,3.06c-4.28-1-.47-5.35-1.9-8.21A29.28,29.28,0,0,0,358,408l1.91-2.67c2.1,6.49,2.38,14.81,1.71,21.76Zm5.63,1.24a6.21,6.21,0,0,1-3.71-.38c.58-7.36.58-17-2.11-24.23l1.72-2.2.67.68c1.81,8.49,3.82,16.79,3.43,26.14Zm1.91-.57A88.3,88.3,0,0,0,364.87,400l1.91-1.9c3,9,4.1,18.7,5,28.53-.77.58-1.53,1.34-2.59,1.15Zm4.49-3.26c-1.53-9.16-2.38-19-5.14-27.76l2.57-2.1c1.81,3,1.81,6,2.19,9.64,1.05,6.4,4.29,14.13.38,20.23Zm.48-27.29c.19-1.62-2.67-3.44-.19-4.48a8.6,8.6,0,0,1,2.57-1.15,6.41,6.41,0,0,1-2.39,5.63Zm19.76,26.82c-5.25-5.34-.19-12.5-.29-18.71l1,1c-1,6-.19,11.93-.66,17.75Zm2.09,2.2c.09-6.49-.28-11.74.3-18.24l2.76,2.59a98.14,98.14,0,0,0,.57,17.54c-1.52.1-2.37-1.14-3.62-1.9Zm5.45,2.76a136.56,136.56,0,0,1-.68-16.79c1.06.77,2.78,1.05,3.25,2.39a59.57,59.57,0,0,0,1.63,13.93c-1.43.19-2.86,1-4.2.47Zm5.91-1.34c-1.24-3.82-1.35-8.29-1.24-12.4l3.82,1.72c-.1,2.48-.2,5,1.32,6.86-.86,1.35-2.18,3.35-3.91,3.82Zm5.26-5.53c-1.06-.76-.77-3.34-.86-4.76l4.29.09Zm-20.43-20.61c-3-4.39-6.29-8.77-8.77-13.94-14.13,3.44-25.48,15.19-31,28.07-1.42-9.54,5.46-16.23,11.65-22.32a78.54,78.54,0,0,1,16.12-10.5C377,369.11,365,356.4,352,351.06c6.69-1.33,12.42,3,17.18,6.87l7.35,7.91A73.5,73.5,0,0,1,385,379.4c12.22-2.29,21.19-11.36,27.77-21.28,1.06-2.29,2.67-4.29,3.16-6.77,1,3.72-.39,7.92-2.1,11.17-5.63,9.74-15.94,17.08-25.39,22,4,14.69,15,25.67,28.35,31.4-11,1.52-18.32-7.64-24.63-14.42Zm28.06,13.75a15.72,15.72,0,0,1-4.86-1.33c3.43-3,8.3-3.73,12.88-4.49a34.84,34.84,0,0,1-8,5.82Zm9.55-7.92c-5.82.57-11.84,1.91-16.41,5.55a10.15,10.15,0,0,1-3.43-2.11,63.55,63.55,0,0,1,20.89-6.2,4.76,4.76,0,0,1-1,2.76Zm1.43-4.58c-8.2,1.06-16,2.87-23,6.87-1-.67-2.69-1.53-3-2.58a78.51,78.51,0,0,1,26-6.87Z" transform="translate(-294.33 -294.32)" style="fill:#00a851"/><g style="mask:url(#mask)"><path d="M384,294.32A89.68,89.68,0,1,0,473.67,384,89.78,89.78,0,0,0,384,294.32m0,175.45A85.77,85.77,0,1,1,469.77,384,85.86,85.86,0,0,1,384,469.77" transform="translate(-294.33 -294.32)" style="fill:#00a851"/></g><path d="M384,301.43a82.29,82.29,0,1,0,82.28,82.3A82.39,82.39,0,0,0,384,301.43m0,163.76a81.47,81.47,0,1,1,81.47-81.46A81.55,81.55,0,0,1,384,465.19" transform="translate(-294.33 -294.32)" style="fill:#00a851"/><path d="M446.42,383.73A62.42,62.42,0,1,0,384,446.15a62.49,62.49,0,0,0,62.42-62.42M384,445.34a61.61,61.61,0,1,1,61.61-61.61A61.66,61.66,0,0,1,384,445.34" transform="translate(-294.33 -294.32)" style="fill:#00a851"/><path d="M384,325.23a58.49,58.49,0,1,0,58.49,58.5A58.56,58.56,0,0,0,384,325.23m0,115a56.54,56.54,0,1,1,56.54-56.54A56.6,56.6,0,0,1,384,440.27m-15.69,8.2-.35,1.66,2.23-.92-2.25,11.09,1.72.34,2.62-13-1.47-.3a16.75,16.75,0,0,1-2.49,1.11m13.4,3.38a3.4,3.4,0,0,0-6.77-.55,2.92,2.92,0,0,0,2.05,3.29h0c-2,0-2.58,1.52-2.71,3.23-.21,2.38.9,3.94,3.2,4.13s3.64-1.17,3.84-3.55c.13-1.71-.24-3.28-2.16-3.62v0a2.89,2.89,0,0,0,2.55-2.91m-2.16,6.44c-.08,1.13-.64,2.31-2,2.2s-1.66-1.35-1.58-2.51.36-2.68,2-2.55,1.64,1.67,1.53,2.86m-1.41-4.37c-1.32-.12-1.52-1.56-1.45-2.54s.69-1.93,1.81-1.85a1.76,1.76,0,0,1,1.47,2.12c-.08,1-.52,2.37-1.83,2.27m10.91.86v0a2.9,2.9,0,0,0,2.12-3.23,3.39,3.39,0,0,0-6.77.36,2.89,2.89,0,0,0,2.47,3v0c-1.93.29-2.33,1.85-2.26,3.56.13,2.39,1.43,3.79,3.75,3.66s3.44-1.65,3.3-4c-.09-1.71-.67-3.21-2.61-3.29m-2.91-3.05c0-1,.4-2,1.54-2.07s1.69.91,1.74,1.9-.2,2.41-1.51,2.49-1.72-1.33-1.77-2.32m2.14,8.92c-1.33.07-1.84-1.12-1.91-2.27s0-2.72,1.63-2.8,1.85,1.42,1.93,2.61-.34,2.38-1.65,2.46m10.59-7.25v0a2.91,2.91,0,0,0,1.66-3.5,3.4,3.4,0,0,0-6.66,1.31,2.91,2.91,0,0,0,2.88,2.6v0c-1.88.56-2.08,2.16-1.73,3.84.45,2.34,1.93,3.55,4.2,3.1s3.18-2.12,2.72-4.46c-.34-1.68-1.1-3.08-3.06-2.9m-3.29-2.61a1.77,1.77,0,0,1,1.23-2.27c1.11-.22,1.81.67,2,1.64s.14,2.41-1.15,2.68-1.89-1.09-2.08-2m3.35,8.52c-1.29.25-2-.85-2.2-2s-.39-2.7,1.21-3,2,1.15,2.27,2.31,0,2.41-1.29,2.67" transform="translate(-294.33 -294.32)" style="fill:#00a851"/><polygon points="12.45 82.32 10.92 82.27 10.62 91.28 12.15 91.33 12.27 87.7 24.51 88.09 24.57 86.35 12.33 85.94 12.45 82.32" style="fill:#00a851"/><polygon points="12.55 72.29 18.41 73.39 17.51 78.14 11.66 77.04 11.33 78.76 24.87 81.32 25.2 79.59 19 78.42 19.9 73.68 26.09 74.85 26.42 73.12 12.89 70.57 12.55 72.29" style="fill:#00a851"/><polygon points="29.62 63.77 28.18 63.25 26.34 68.39 21.85 66.8 23.52 62.13 22.08 61.61 20.41 66.28 16.24 64.8 18.04 59.76 16.6 59.24 14.22 65.94 27.19 70.55 29.62 63.77" style="fill:#00a851"/><path d="M318.7,348.19l3.32,2c4.55,2.79,6,.61,6.93-.85.46-.76,2.09-3.39-1.67-5.6l-1,1.54c2.3,1.43,1.6,2.92,1.31,3.38-.7,1.14-1.62,1.88-4.5.11L320,346.87c-2-1.24-2.13-1.71-2.24-1.84a2.17,2.17,0,0,1,.18-2.32,2.25,2.25,0,0,1,1.32-1,3.15,3.15,0,0,1,1.91.7l1-1.54c-2.18-1.55-3.94-1.4-5.37.92s-1.38,4.36,1.93,6.41" transform="translate(-294.33 -294.32)" style="fill:#00a851"/><polygon points="42.32 44.48 41.14 43.5 37.64 47.67 33.98 44.6 37.16 40.8 36 39.83 32.81 43.62 29.41 40.78 32.85 36.68 31.68 35.69 27.12 41.14 37.67 50 42.32 44.48" style="fill:#00a851"/><polygon points="48.7 38.58 47.66 37.46 43.94 40.86 35.68 31.83 34.37 33.02 43.67 43.17 48.7 38.58" style="fill:#00a851"/><polygon points="42.88 27.73 50.18 37.56 51.6 36.52 44.28 26.68 47.21 24.51 46.29 23.29 39.06 28.66 39.97 29.88 42.88 27.73" style="fill:#00a851"/><polygon points="57.52 32.7 50.55 20.81 49.05 21.7 56.01 33.6 57.52 32.7" style="fill:#00a851"/><path d="M352.17,320.87c2.14,4.89,4.6,3.93,6.18,3.25.82-.35,3.63-1.6,1.82-5.56l-1.66.73c1.07,2.48-.35,3.3-.84,3.52-1.24.55-2.41.62-3.78-2.47L352.41,317c-1-2.17-.78-2.63-.78-2.79a2.16,2.16,0,0,1,1.48-1.8,2.23,2.23,0,0,1,1.64-.08,3.07,3.07,0,0,1,1.18,1.67l1.66-.74c-.92-2.51-2.45-3.38-4.94-2.27s-3.61,2.79-2,6.36Z" transform="translate(-294.33 -294.32)" style="fill:#00a851"/><polygon points="74.89 25.92 73.56 19.76 78.26 18.76 77.94 17.26 73.24 18.27 72.31 13.95 77.27 12.88 76.95 11.39 70.27 12.82 73.17 26.29 74.89 25.92" style="fill:#00a851"/><path d="M379.72,319c2.92-.2,4.23-1.79,4-5.59l-.29-4.52c-.18-2.74-1.71-4.41-4.62-4.22s-4.2,2-4,4.78l.3,4.52c.25,3.81,1.75,5.22,4.67,5m-.83-12.86c.56,0,2.53-.08,2.73,2.8l.3,4.64c.19,3-.63,3.83-2.29,3.94s-2.59-.58-2.78-3.6l-.3-4.64c-.19-2.88,1.78-3.1,2.34-3.14m11.85,13.06c2.91.31,4.47-1,4.86-4.85l.46-4.5c.27-2.73-.94-4.62-3.84-4.94s-4.5,1.31-4.77,4l-.47,4.5c-.39,3.79.85,5.44,3.76,5.74m-2-5.48.49-4.64c.28-2.86,2.28-2.75,2.83-2.7s2.52.36,2.22,3.22l-.48,4.63c-.31,3-1.27,3.67-2.91,3.51s-2.45-1-2.15-4" transform="translate(-294.33 -294.32)" style="fill:#00a851"/><polygon points="104.8 26 106.5 26.42 109.48 14.55 113 15.44 113.38 13.95 104.64 11.75 104.28 13.23 107.79 14.13 104.8 26" style="fill:#00a851"/><path d="M409.8,323.87c1.44.61,3.94,1.3,5.32-1.95.74-1.74.41-3.17-1.3-4.15l0-.09c1.8.33,2.78-.49,3.46-2.07a3.47,3.47,0,0,0,.2-1.9c-.16-.91-.51-1.75-2.27-2.49l-4.12-1.75-5.39,12.66Zm2.33-12.32,2.29,1a2.14,2.14,0,0,1-1.61,4l-2.36-1Zm-.55,6.07c1.65.7,2.74,1.57,1.89,3.6a2.32,2.32,0,0,1-3.25,1.17l-2.27-1,1.91-4.53Zm4.51,9.26,2.66-2.19,4.46,2.88-.95,3.29,1.66,1.08,3.69-14-1.87-1.2-11.12,9.2Zm9.63-8.24h0L423.64,326l-3.71-2.38Z" transform="translate(-294.33 -294.32)" style="fill:#00a851"/><polygon points="135.66 43.07 136.67 41.9 132.86 38.59 140.93 29.37 139.61 28.21 130.54 38.58 135.66 43.07" style="fill:#00a851"/><polygon points="141.25 49.37 142.39 48.36 139.05 44.58 148.22 36.45 147.06 35.12 136.74 44.26 141.25 49.37" style="fill:#00a851"/><path d="M440.45,351.74c.46.77,2,3.43,5.72,1.2l-.9-1.58c-2.34,1.33-3.31,0-3.58-.44-.67-1.17-.89-2.33,2-4l3.19-1.85c2.05-1.18,2.53-1.06,2.68-1.07a2.12,2.12,0,0,1,2,1.26,2.22,2.22,0,0,1,.26,1.63,3.13,3.13,0,0,1-1.53,1.35l.92,1.58c2.39-1.19,3.09-2.82,1.73-5.17s-3.18-3.28-6.54-1.35l-3.37,2c-4.63,2.67-3.41,5-2.56,6.5" transform="translate(-294.33 -294.32)" style="fill:#00a851"/><polygon points="151.66 68.84 153.09 68.27 151.18 63.58 162.54 59 161.88 57.37 149.11 62.53 151.66 68.84" style="fill:#00a851"/><path d="M453.26,371.46l8.5-2-.41-1.7-8.57,2.06c-2.94.7-3.89,0-4.28-1.63s.13-2.69,3.08-3.39l8.56-2-.41-1.71-8.5,2c-3.71.9-4.84,2.62-4.16,5.46s2.48,3.86,6.19,3m9.23,2.87-13.74.93.3,4.41c.09,1.57.61,4.12,4.13,3.88,1.89-.12,3-1.05,3.11-3h.09c.53,1.74,1.71,2.26,3.43,2.14a3.51,3.51,0,0,0,1.77-.68c.74-.56,1.35-1.25,1.21-3.15Zm-9.43,7.42a2.32,2.32,0,0,1-2.51-2.37l-.16-2.49,4.91-.32.13,1.87c.12,1.79-.16,3.17-2.36,3.31Zm6.26-.84A1.93,1.93,0,0,1,457,379l-.16-2.55,4.26-.28.16,2.48a1.92,1.92,0,0,1-1.93,2.24ZM358.43,448.48a36.13,36.13,0,0,1-6-.56c-1.45-2.74-1.55-6.16-3.64-7.84-2.37-1.9-4.62.23-6.25-1.16-2.14-1.82.19-3.87-1.18-5s-3,1.5-5.15-.28c-1.66-1.35,0-3.94-2.25-6-2-1.76-5.4-1.25-8.37-2.19a35.68,35.68,0,0,1-1.61-5.84c-.17-1-1.55-2.63-3-2.49,1.08,3.54,2.21,7.32,1.07,10.42-.61,1.66-.85,2.35-.61,2.54s6.69-2,9.8.64a3.9,3.9,0,0,1,1.22,4.68c-.53.73-1.89,2.17-1.16,2.78,1.3,1.07,1.7-.53,4.76,2s1.56,3.24,2.84,4.32c.73.61,1.91-1,2.53-1.63a3.86,3.86,0,0,1,4.81.36c3.13,2.59,2.15,9.32,2.38,9.54s.87-.15,2.38-1.05c2.86-1.69,6.77-1.24,10.46-.82-.13-1.42-2-2.51-3-2.49M443.67,420a33.24,33.24,0,0,1-1.67,5.83c-3,.92-6.34.38-8.38,2.11-2.32,2-.64,4.58-2.31,5.94-2.18,1.76-3.76-.91-5.15.22s.94,3.21-1.23,5c-1.65,1.37-3.88-.79-6.27,1.1-2.1,1.67-2.24,5.07-3.71,7.81a35.85,35.85,0,0,1-6,.5c-1,0-2.87,1-3,2.46,3.69-.38,7.62-.79,10.44.91,1.51.92,2.14,1.28,2.37,1.08s-.67-7,2.47-9.52a3.88,3.88,0,0,1,4.82-.32c.62.65,1.78,2.26,2.51,1.65,1.29-1.05-.21-1.76,2.89-4.29s3.47-.93,4.77-2c.75-.6-.61-2.06-1.13-2.77a3.92,3.92,0,0,1,1.26-4.69c3.13-2.57,9.56-.36,9.81-.54s0-.88-.59-2.54c-1.12-3.11,0-6.88,1.14-10.42-1.42-.14-2.82,1.47-3,2.47" transform="translate(-294.33 -294.32)" style="fill:#00a851"/></svg>