<svg id="Layer_1" data-name="Layer 1" xmlns="http://www.w3.org/2000/svg" width="100.18" height="100.18" viewBox="0 0 100.18 100.18"><title>FC Copenhagen logo - Brandlogos.net</title><path d="M439.61,377.8a50.09,50.09,0,1,1-50.09-50.09,50.09,50.09,0,0,1,50.09,50.09" transform="translate(-339.43 -327.71)" style="fill:#fff"/><path d="M388.43,341.13l-.23-4.36c-.58,0-1.2,0-1.8.08q.17,2.18.23,4.36c-.78,0-1.62.09-2.45.11l-.54-10.56c.77-.08,1.59-.11,2.41-.15.1,1.33.18,2.7.26,4,.62,0,1.15-.08,1.73-.1,0-1.31-.08-2.71-.14-4,.8-.08,1.63,0,2.44-.11l.57,10.6Z" transform="translate(-339.43 -327.71)" style="fill:#005da9"/><path d="M378.63,331.83c.68-.21,1.32-.4,2.07-.57.92,3.37,1.84,6.73,2.68,10.14l0,.14-2.5.67c-1.35-2.16-2.77-4.49-4-6.65l.11.45,1.8,6.74-2.07.6c-.92-3.41-1.87-6.83-2.72-10.28l2.56-.69a66.94,66.94,0,0,1,3.83,6.08Z" transform="translate(-339.43 -327.71)" style="fill:#005da9"/><path d="M403.47,332.67c-.27,2.45-.73,4.94-1.11,7.35,1.15-2.14,2.31-4.42,3.42-6.6.78.25,1.61.56,2.37.78l-.09.2-5.28,9.11-.08.08-2.72-.9v-.1l1.11-10.68c.8.27,1.61.5,2.37.76" transform="translate(-339.43 -327.71)" style="fill:#005da9"/><path d="M397.92,331.22c.27,3.6.46,7.23.73,10.83-.89-.1-1.67-.21-2.53-.35,0-.73,0-1.21,0-2-.65-.08-1.26-.19-1.91-.31-.14.34-.19.65-.34,1l-.34,1c-.8,0-1.61-.27-2.45-.38l.24-.68L395,330.8Zm-1.8,1.88c-.54,1.45-1,3-1.34,4.44l1.34.23c0-1.53,0-3.14,0-4.67" transform="translate(-339.43 -327.71)" style="fill:#005da9"/><path d="M366,336.81l5.13-2.6c.32.57.59,1.13.88,1.68l-2.91,1.53a17.63,17.63,0,0,0,1,1.91l2.79-1.38c.3.53.63,1.15.92,1.7-.89.46-1.91.94-2.83,1.43l1.15,2.26c1-.38,2-1,3.06-1.45.34.57.6,1.12.88,1.69l-5.31,2.71-.08-.19Z" transform="translate(-339.43 -327.71)" style="fill:#005da9"/><path d="M412.08,336.58c-.5,2.3-1,4.63-1.68,6.85,1.11-2,2.3-3.94,3.48-5.89.67.39,1.24.72,1.88,1.11l-5.39,9.16-.12-.05c-.69-.46-1.45-.84-2.14-1.3.57-2.52,1.19-5,1.88-7.42-1.3,2.07-2.45,4.25-3.75,6.31l-1.84-1.15,5.36-9.07,2.35,1.3Z" transform="translate(-339.43 -327.71)" style="fill:#005da9"/><path d="M365.47,341.09a2,2,0,0,1,0,1.8c.15,0,.34-.12.54-.12a2.68,2.68,0,0,1,2.22,1.19,3.22,3.22,0,0,1,.69,2.87c-.8,1.72-2.56,2.66-4,3.87l-.57-.65-6.16-7.62c1.11-1,2.3-1.87,3.44-2.79a2.38,2.38,0,0,1,1.91-.31,3.66,3.66,0,0,1,2,1.76m-2.76.54c-.57-.23-1.07.27-1.45.61l1.49,1.84.69-.61a.82.82,0,0,0,.19-.73,2.37,2.37,0,0,0-.92-1.11m2.95,3.33c-.65-.38-1.26.19-1.72.57l1.76,2.18.73-.69a1.09,1.09,0,0,0,.12-1,2.83,2.83,0,0,0-.88-1" transform="translate(-339.43 -327.71)" style="fill:#005da9"/><path d="M356.74,345.19c2,.65,3.45,2.53,5.09,3.9,1,.92,1.84,2.14,1.26,3.56a5.59,5.59,0,0,1-2.37,2.6l.27.76-1,.42,0-.15c-.42.66-.82,1.38-1.25,2.07l-4-.66,0,0,.77,1.15c.69.42,1.38.84,2.1,1.26-.45.74-.85,1.45-1.27,2.14l-.11-.07L347.3,357l-.13-.09c.4-.74.8-1.42,1.23-2.11l4,2.3V357c-1.07-1.26-2-2.64-3-4,.34-.73.84-1.45,1.26-2.18l2.91,4.29.15.12,6.09.88c-.12-.23-.16-.68-.46-.73-2.07-.61-3.6-2.68-5.32-4.1a3,3,0,0,1-1-3.33,5.26,5.26,0,0,1,2.55-2.67c-.08-.24-.18-.5-.29-.77l1-.38ZM355.36,348a.81.81,0,0,0-.11.73,12.52,12.52,0,0,0,2.68,2.64c-.38-1.19-.92-2.33-1.38-3.48a.85.85,0,0,0-1.19.12m3.18,1.57c.41,1.14.87,2.24,1.3,3.33.74.43,1.1-.22,1.07-.65-.19-1.19-1.51-1.89-2.37-2.68" transform="translate(-339.43 -327.71)" style="fill:#005da9"/><path d="M353.49,363.33l2.22.76c-.25.73-.57,1.53-.8,2.26-.77-.22-1.53-.46-2.26-.73Z" transform="translate(-339.43 -327.71)" style="fill:#005da9"/><path d="M347.82,365c-.08.73-.27,1.53-.43,2.26-.6,0-1.33-.46-1.87,0a1.09,1.09,0,0,0-.31,1,.8.8,0,0,0,.5.5l5.59,1.15c.27,0,.54.08.73-.15a1,1,0,0,0,.15-1.15c-.46-.57-1.27-.56-2-.73.15-.8.27-1.49.42-2.26,1.34.15,2.87.46,3.52,1.88a4.78,4.78,0,0,1-.61,3.83,3,3,0,0,1-3.21,1l-5.24-1.15a2.7,2.7,0,0,1-1.72-1.57,4.45,4.45,0,0,1,1.15-4.33,4,4,0,0,1,3.33-.19" transform="translate(-339.43 -327.71)" style="fill:#005da9"/><path d="M353.33,374l-.26,2.5-2.39-.26c.08-.81.15-1.7.22-2.5Z" transform="translate(-339.43 -327.71)" style="fill:#005da9"/><path d="M344.46,377.37a16.54,16.54,0,0,0,2,.08c0-1,0-2.12.07-3.14l2,0v3.13l4.55.13,0,2.49h-.23l-10.33-.19c0-2,0-4,0-6l2,.09Z" transform="translate(-339.43 -327.71)" style="fill:#005da9"/><path d="M353.3,383.23a36.64,36.64,0,0,0,3.48,10.72l-.15.15-3.21,1.65a36.76,36.76,0,0,1-3.79-11.63c0-.15-.08-.42.15-.38,1.19-.12,2.33-.38,3.52-.5" transform="translate(-339.43 -327.71)" style="fill:#ed3024"/><path d="M346.71,384.45a45,45,0,0,0,4,12.55c-1.07.61-2.18,1.15-3.33,1.68a46.6,46.6,0,0,1-4.44-13.85,30,30,0,0,1,3.71-.57Z" transform="translate(-339.43 -327.71)" style="fill:#ed3024"/><path d="M369.22,408.18a36.72,36.72,0,0,0,7.61,3.9s0,.08,0,.08h0l-.65,3.79a14,14,0,0,1-2.68-1c-7.35-2.91-14.54-9.38-18.64-16.38,1-.73,2.14-1.3,3.21-2a39.28,39.28,0,0,0,11.06,11.56" transform="translate(-339.43 -327.71)" style="fill:#ed3024"/><path d="M352.42,400.06a43.21,43.21,0,0,0,23.42,18.83c.08,1.3-.12,2.64,0,4-10.49-3.14-20.86-10.75-26.6-20.89,1.07-.61,2.1-1.34,3.21-1.91" transform="translate(-339.43 -327.71)" style="fill:#ed3024"/><path d="M428.65,351.5a46.7,46.7,0,0,1,7.42,19.1,104.77,104.77,0,0,0-16-3.52l0,0a90.46,90.46,0,0,1,16.49,7.27,46.46,46.46,0,0,1-2,17.37,131,131,0,0,0-14.39-6.47c1,.8,2.14,1.49,3.25,2.26,3.41,2.3,6.7,4.86,10,7.5a47,47,0,0,1-9.76,15.27,104.29,104.29,0,0,1-13.43-13.51,59.65,59.65,0,0,0,4.94,8.34c1.88,2.64,3.71,5.24,5.86,7.73a46.88,46.88,0,0,1-16.07,9.45,71.29,71.29,0,0,1-7-14.12,51.13,51.13,0,0,0,.92,5.89c.73,3.18,1.53,6.28,2.49,9.3a46.11,46.11,0,0,1-19.82.77,51.21,51.21,0,0,1-.57-11.14c.08-1.88.35-3.75.46-5.55a16.9,16.9,0,0,0,.35-4.17.86.86,0,0,0-.38-.69c-.73-.08-1.22.42-1.8.65-1.8.84-3.37,2.34-5.32,2.87a2.22,2.22,0,0,1-2.07-.46,10.65,10.65,0,0,1-1.91-4c-.61-2.37-1.53-4.74-1.26-7.35a1.83,1.83,0,0,1,.69-.84c1.15-.31,2.14.46,3.1,1,1.91,1.15,3.6,2.87,5.82,3.29a1.42,1.42,0,0,0,1-.27,4.72,4.72,0,0,0,.38-3.86,2.36,2.36,0,0,0-2.18-1.49c-1.69.12-3.1.8-4.78.88a10.93,10.93,0,0,1-3.37-.23,5.94,5.94,0,0,1-2.76-1.42,12.4,12.4,0,0,1-1.49-5.93,4.87,4.87,0,0,1,.31-1.68c1.26-.88,2.83-1.49,3.71-2.87a4.43,4.43,0,0,0,.08-2.45c-.46.5-.76,1.11-1.38,1.42a3.69,3.69,0,0,1-2.76.57c-1.07-.88-.65-2.45-.57-3.71a2.84,2.84,0,0,1,.92-1.72c4.32-3.21,9.18-5.17,14-7.2a61.34,61.34,0,0,1,6.43-2.3c.38-.34.38-.92.61-1.34.5-1,1.61-1.53,2.49-2.14a38.08,38.08,0,0,1,6.47-3l.27-.19a9.32,9.32,0,0,1,2.64-4.48,19.27,19.27,0,0,1,7.27-3.56,54.33,54.33,0,0,1,16.34-.5,50.36,50.36,0,0,1,6.43,1.19m-39.26,15.65c-1.76.19-.46,2.26-1.65,3-.46.31-1.45.23-1.34,1a5.12,5.12,0,0,0,1.42-.61,36.91,36.91,0,0,1,5.93-.88l.23-.11a.81.81,0,0,0-.15-.23,7.75,7.75,0,0,0-4.44-2.18" transform="translate(-339.43 -327.71)" style="fill:#005da9"/></svg>