<svg xmlns="http://www.w3.org/2000/svg" xmlns:xlink="http://www.w3.org/1999/xlink" viewBox="0 0 263.16 436.75"><defs><clipPath id="a" transform="translate(-380.43 -293.62)"><rect x="380.43" y="293.63" width="263.15" height="436.75" style="fill:none"/></clipPath></defs><title>fc dynamo kyiv logo</title><g style="clip-path:url(#a)"><path d="M512,730.38a11.92,11.92,0,0,1-9.77-5.11l-119-170.64a13.89,13.89,0,0,1,0-16.82l31.8-45.61L502.32,367a11.77,11.77,0,0,1,9.66-5,11.9,11.9,0,0,1,9.74,5.06c1.61,2.3,116.2,166.65,119,170.73a13.9,13.9,0,0,1,0,16.81l-4.51,6.46C553.62,679.58,528.39,715.77,521.78,725.27a11.9,11.9,0,0,1-9.77,5.11" transform="translate(-380.43 -293.62)" style="fill:#176fc1;fill-rule:evenodd"/><path d="M635.57,551c-2.14,3.06-102.74,147.32-119,170.65a5.59,5.59,0,0,1-9.19,0L388.44,551a7.72,7.72,0,0,1,0-9.6L507.49,370.65a5.54,5.54,0,0,1,9.06.05c2.2,3.14,116.73,167.41,119,170.71a7.72,7.72,0,0,1,0,9.6" transform="translate(-380.43 -293.62)" style="fill:#fff;fill-rule:evenodd"/><path d="M513.19,714a1.36,1.36,0,0,1-2.38,0L395,547.9a3.21,3.21,0,0,1,0-3.41L510.82,378.36a1.36,1.36,0,0,1,2.38,0L629,544.49a3.21,3.21,0,0,1,0,3.41L513.19,714" transform="translate(-380.43 -293.62)" style="fill:#1d4692;fill-rule:evenodd"/><path d="M512.45,708.84a.51.51,0,0,1-.89,0l-112.95-162a1.2,1.2,0,0,1,0-1.28l112.95-162a.51.51,0,0,1,.89,0l112.94,162a1.2,1.2,0,0,1,0,1.28l-112.94,162" transform="translate(-380.43 -293.62)" style="fill:#176fc1;fill-rule:evenodd"/><path d="M593.78,540.35c-1-32.84-24.36-56-55.29-63.65a62.41,62.41,0,0,0,3.27-10.2c2.19-10.72-1.67-17.64-9.16-18.95-11.77-2.06-26.79,8.41-32.73,27.31-29.76,4.21-50.4,21.28-57.65,41-7.14,19.46,0,35.91,12.58,40.87,12.88,5.07,24.83-1.84,28.34-10.78l-3.32-2.44s-1,1.15-1.85.71c-7.3-3.7-12.66-12.35-11.73-24.52,1.19-15.49,12.9-29.78,31.37-34.21a114.15,114.15,0,0,0-.46,21.48,64.68,64.68,0,0,1-8.57,3c-.5,3-3.61,7.6-3.61,7.6l3.38,2a63.84,63.84,0,0,0,9.7-2.74c2.06,17.84,6.08,35.59,6.35,52.59.17,10.46-1.61,22.29-7.52,29.46-9.57-4-16.41-9.09-23.31-10.29-9.7-1.68-17.64,4.55-16.55,13.77.8,6.75,8.5,12.88,18.58,13.52A42.21,42.21,0,0,0,498,610.45c5.95,2.34,13.49,4.72,20.93,5.15,46.61,2.73,76.07-35.25,74.87-75.25m-68.22-79.14c3.77.9,4.2,6.53,1.41,13.39-1.49-.18-3-.32-4.51-.43a111.27,111.27,0,0,0-12.2-.22c4.13-10.38,11-13.77,15.29-12.74Zm-18,22.95c1.78-.07,3.6-.07,5.47,0a54.41,54.41,0,0,1,8.82,1.2A53,53,0,0,1,508,500.81,52.61,52.61,0,0,1,507.59,484.16ZM475.21,608.52c-4.35-.29-8.26-2.48-8.71-5.44-.42-2.8,1.82-4.51,4.73-4.46,4.26.08,11,4.89,16.24,7.43a24.69,24.69,0,0,1-12.26,2.47ZM552,587.34a44.41,44.41,0,0,1-42.44,15.38c15.35-13.77,26.24-43.08,26.6-67.79a28,28,0,0,0-3.31-2.43s-.2,1.28-.94,1a36.5,36.5,0,0,1-17.4-14.67,46.79,46.79,0,0,1-3.83-8.2,68.07,68.07,0,0,0,21.61-21.74c14.12,6.44,24.48,18.78,29.41,33.13,8.49,24.7,3,50.05-9.7,65.33Z" transform="translate(-380.43 -293.62)" style="fill:#1d4692;fill-rule:evenodd"/><path d="M590.47,537.93c-1-32.84-24.35-56-55.28-63.64a54.34,54.34,0,0,0,3.12-10.57c1.87-11.1-1.53-17.28-9-18.58-11.77-2.06-26.79,8.41-32.73,27.31-29.76,4.21-50.4,21.28-57.65,41-7.14,19.46,0,35.91,12.58,40.87,12.88,5.07,24.83-1.84,28.34-10.78-9.75-1.73-18-11.34-16.89-26.26,1.18-15.49,12.9-29.78,31.37-34.21a113.86,113.86,0,0,0-.47,21.26,65.69,65.69,0,0,1-8.56,2.94,38,38,0,0,0-.23,9.86,63.92,63.92,0,0,0,9.7-2.74c2.06,17.84,6.08,35.59,6.35,52.59.17,10.46-1.61,22.29-7.52,29.46-9.57-4-16.41-9.09-23.31-10.29-9.7-1.68-17.63,4.55-16.55,13.77.8,6.75,8.5,12.88,18.58,13.52A42.21,42.21,0,0,0,494.67,608c5.95,2.34,13.49,4.72,20.93,5.15,46.61,2.73,76.07-35.25,74.87-75.25m-68.12-79.29c3.86,1,4.74,6.55,1.74,13.6q-2.45-.3-4.94-.49a111.6,111.6,0,0,0-12.2-.22c4.16-10.46,11.09-14,15.39-12.89Zm-18.06,23.1c1.78-.07,3.6-.07,5.47,0a54.55,54.55,0,0,1,8.81,1.2,52.26,52.26,0,0,1-13.85,15.27A52.56,52.56,0,0,1,504.29,481.74ZM471.9,606.09c-4.35-.29-8.26-2.48-8.71-5.44-.42-2.79,1.82-4.51,4.73-4.46,4.26.08,11,4.89,16.24,7.43a24.68,24.68,0,0,1-12.26,2.47Zm76.79-21.18a44.4,44.4,0,0,1-42.44,15.38c15.35-13.77,26.24-43.08,26.6-67.79a36.93,36.93,0,0,1-21.65-16.12,47,47,0,0,1-3.83-8.2A68,68,0,0,0,529,486.45c14.12,6.44,24.48,18.78,29.41,33.13,8.49,24.7,3,50.05-9.7,65.33Z" transform="translate(-380.43 -293.62)" style="fill:#fff;fill-rule:evenodd"/><polyline points="117.33 360.47 114.92 358.66 111.84 350.83 108.55 354.79 108.55 360.47 105.58 360.47 103.17 358.66 105.58 357.47 105.58 340.92 106.14 339.11 108.55 340.92 108.55 349.81 116.86 339.68 117.75 339.11 120.16 340.92 113.82 348.58 120.82 360.47 117.33 360.47" style="fill:#1d4692"/><polyline points="135.15 360.47 132.74 358.66 135.15 346.28 126.39 360.47 123.7 360.47 121.29 358.66 123.7 340.92 124.26 339.12 126.67 340.92 126.67 354.07 135.7 339.11 138.11 340.92 138.11 360.47 135.15 360.47" style="fill:#1d4692"/><path d="M521.39,631.79,519,630l2.67-3,2.42,1.81v3h-2.7m3,22.31L522,652.31l3-19.58,2.42,1.81V654.1h-3Zm3.1-22.31L525.1,630l2.67-3,2.41,1.84v3Z" transform="translate(-380.43 -293.62)" style="fill:#1d4692"/><path d="M540.75,654.1h-7.91l-2.41-1.81,2.41-17.74,9.22-.59a30.51,30.51,0,0,1,2.68,2,5,5,0,0,1,1.61,3.83,4.43,4.43,0,0,1-2.64,4.26,4.61,4.61,0,0,1,2.94,4.53c0,3.38-2.25,5.49-5.9,5.49m-.55-16.89h-4.39v5h4.39c2,0,2.46-.48,2.46-2.24s-.48-2.8-2.46-2.8Zm.25,8.27h-4.64v6h4.64a3,3,0,1,0,0-6Z" transform="translate(-380.43 -293.62)" style="fill:#1d4692"/><polyline points="114.92 358.66 109.43 349.02 106.13 352.97 106.13 358.66 103.17 358.66 103.17 339.11 106.13 339.11 106.13 348.94 114.12 339.11 117.75 339.11 111.41 346.77 118.41 358.66 114.92 358.66" style="fill:#fff"/><polyline points="132.74 358.66 132.74 344.46 123.98 358.66 121.29 358.66 121.29 339.11 124.25 339.11 124.25 353.28 132.98 339.11 135.7 339.11 135.7 358.66 132.74 358.66" style="fill:#fff"/><path d="M519,630v-3h2.68v3H519m3,22.31V632.73h3v19.55Zm3.1-22.31v-3h2.68v3Z" transform="translate(-380.43 -293.62)" style="fill:#fff"/><path d="M538.34,652.28h-7.91V632.73H538c3.57,0,5.9,2.09,5.9,5.27a4.43,4.43,0,0,1-2.64,4.26,4.61,4.61,0,0,1,2.94,4.53c0,3.38-2.25,5.49-5.9,5.49m-.55-16.89H533.4V641h4.39c2,0,3.19-1,3.19-2.8s-1.21-2.8-3.19-2.8Zm.25,8.27H533.4v6H538a3,3,0,1,0,0-6Z" transform="translate(-380.43 -293.62)" style="fill:#fff"/><path d="M502.62,315.5H480.73c-3-9.43-6.46-20-6.7-20.82a1.35,1.35,0,0,0-2.64,0c-.21.69-3.79,11.68-6.76,20.82H442.73a1.36,1.36,0,0,0-.81,2.51l17.72,12.85-6.75,20.77a1.36,1.36,0,0,0,2.14,1.55l17.64-12.84,17.66,12.86a1.36,1.36,0,0,0,2.14-1.55l-6.75-20.79L503.43,318a1.36,1.36,0,0,0-.81-2.51" transform="translate(-380.43 -293.62)" style="fill:#e4ac21"/><polyline points="83.29 35.9 68.74 25.35 61.49 24.39 79.21 37.24 83.29 35.9" style="fill:#bf851e"/><polyline points="97.77 25.35 100.3 21.88 93.59 1.06 92.27 8.29 97.77 25.35" style="fill:#bf851e"/><polyline points="77.76 52.95 74.6 59.56 92.23 46.72 92.24 42.42 77.76 52.95" style="fill:#bf851e"/><path d="M504,316.37,496.18,319h0l-14.55,10.56,5.54,17.06,4.83,6.67a1.39,1.39,0,0,0,.46-1.62l-6.75-20.79L503.43,318a1.4,1.4,0,0,0,.56-1.64" transform="translate(-380.43 -293.62)" style="fill:#bf851e"/><path d="M581.28,315.5H559.38c-3-9.43-6.47-20-6.7-20.82a1.35,1.35,0,0,0-2.64,0c-.21.69-3.79,11.68-6.76,20.82h-21.9a1.36,1.36,0,0,0-.81,2.51l17.72,12.85-6.75,20.77a1.36,1.36,0,0,0,2.14,1.55l17.64-12.84L569,353.2a1.36,1.36,0,0,0,2.13-1.55l-6.75-20.79L582.09,318a1.36,1.36,0,0,0-.81-2.51" transform="translate(-380.43 -293.62)" style="fill:#e4ac21"/><polyline points="161.95 35.9 147.4 25.35 140.15 24.39 157.87 37.24 161.95 35.9" style="fill:#bf851e"/><polyline points="176.43 25.35 178.96 21.88 172.25 1.06 170.93 8.29 176.43 25.35" style="fill:#bf851e"/><polyline points="156.41 52.95 153.25 59.56 170.89 46.72 170.9 42.42 156.41 52.95" style="fill:#bf851e"/><path d="M582.65,316.37,574.84,319h0l-14.55,10.56,5.54,17.06,4.84,6.67a1.39,1.39,0,0,0,.46-1.62l-6.75-20.79L582.09,318a1.4,1.4,0,0,0,.56-1.64" transform="translate(-380.43 -293.62)" style="fill:#bf851e"/></g></svg>