<svg xmlns="http://www.w3.org/2000/svg" viewBox="0 0 130.17 100.62"><title>Bayer 04 Leverkusen logo</title><path d="M497.11,559.42a106.88,106.88,0,0,1-11-3.14c-6.33-2-11.9-3.79-19.23-2-1.49.35-2,.35-2.34-1.15l-3-13.65c-.3-1.25.1-1.54,1.3-1.79,9-1.94,16.44-.6,23.91,1.3,3.94,1,7.82,2.14,11.9,3a57.19,57.19,0,0,0,26.4,0c4.08-.9,8-2,11.9-3,7.47-1.89,14.89-3.24,23.91-1.3,1.25.3,1.59.55,1.3,1.79l-3,13.65c-.35,1.49-.85,1.54-2.34,1.15-7.27-1.74-12.85,0-19.18,2a106.88,106.88,0,0,1-11,3.14,71.64,71.64,0,0,1-29.59,0Zm-.15-78.1-.4-.25.1-.45c.25-1.2.1-2.24-1.74-2.34h-.45l-1.39-4.38.4-.25c1.25-.9.95-2-.75-2.64l-.45-.15v-.45A1.74,1.74,0,0,1,493,469c.1,0,.15-.15.25-.2s.15-.15.25-.25a3.1,3.1,0,0,0,.45-.6l.1-.2.2-.1a48.52,48.52,0,0,1,35.37,0l.2.1.1.2a3.1,3.1,0,0,0,.45.6l.25.25a.87.87,0,0,0,.25.2,1.92,1.92,0,0,1,.75,1.39v.45l-.45.15c-1.69.6-2,1.74-.75,2.64l.4.25-1.39,4.38H529c-1.84,0-2,1.15-1.74,2.34l.1.45-.4.25a2.58,2.58,0,0,0-.7,2.64l.5,1.44-1.34-.65a30.76,30.76,0,0,0-13.4-3,31.09,31.09,0,0,0-13.4,3l-1.34.65.5-1.44A2.82,2.82,0,0,0,497,481.32Z" transform="translate(-446.92 -461.69)" style="fill:#ff0"/><path d="M562.16,493l-.15.15a3.48,3.48,0,0,1-2.34,1h-.75l0,.75a19.72,19.72,0,0,0,4,9.51,10.05,10.05,0,0,1,2.84,6.72l0,.6.6,0c3.64.35,6.13-1.39,7.07-3.84,1.39-3.74-1.3-7.82-3.14-10.56-2.39-3.64-2-7.72-1.44-10.36l.1-.45-.35-.25a2.55,2.55,0,0,1-1.1-2.24,4.33,4.33,0,0,1,1.3-3.24c1.1-1.1,2.29-1.25,4-1.25a6,6,0,0,1,3.54,1.84v.1s0,.1-.2.2a3.54,3.54,0,0,0-1.39,1.59c-.25.55-.4,1.2-.65,1.79a2.33,2.33,0,0,1-2.54,1.79h-.5l-.15.45a11.66,11.66,0,0,0-.4,2.64,10.17,10.17,0,0,0,1.54,6.13c.35.55.85,1.34,1.39,2.24a29.65,29.65,0,0,1,1.54,2.74c2.34,5.08.75,11.31-4.93,13.1a11.57,11.57,0,0,1-5.13.2l-.35,0-.25.3c-.15.15-.25.3-.4.45s-.5.45-.75.7l-.15.1V516a5.4,5.4,0,0,0,1.3,5.38c.65.75,1.2,1.34,1.64,1.89a3.9,3.9,0,0,1,.75,1.2c.1.4,0,.9-1.54,2-4,2.89-5.63,5.33-6.48,7.07-.4.8-.65,1.44-.9,1.89s-.3.35-.5.35a9.42,9.42,0,0,1-2.79-.5l-.5-.2-.3.5c-.5.85-2.54,1-3.39.5l-.25-.2-.3.1a5.51,5.51,0,0,1-3.54.35,2.63,2.63,0,0,1-.75-.35.72.72,0,0,0-.15-.1c-3-.25-3.24-3.34-1.94-5a3.81,3.81,0,0,1,3.09-1.49c1.3,0,7.37-3.84,7.37-5.83a1.33,1.33,0,0,0-.55-1,4.51,4.51,0,0,0-.95-.65c-.7-.4-1.59-.9-2.54-1.49-1.84-1.2-3.44-2.69-3.44-4.93,0-1.79.5-4.83,5.48-4.83h.65v-.65c0-3.59-3.64-7.22-5.43-8.57a7.67,7.67,0,0,1-2.24-2.89l-.1-.25-.25-.1c-1.84-.65-3.49-2.74-5-5.23-.75-1.2-1.49-2.49-2.14-3.59a21.23,21.23,0,0,0-2-2.84l-.2-.2h-.3a8.39,8.39,0,0,1-2.74-.65l-.3-.15-.3.2c-1.59,1.1-3.34.4-3.39-.55l0-.6h-.6c-.9,0-1.3-.55-1.3-1.39a2.53,2.53,0,0,1,.8-2l.4-.25-.1-.45c-.25-1.1-.7-4.48,8.87-.3a6,6,0,0,1,.8.4l1.2.6-.3-1.34a7.89,7.89,0,0,0-2.69-4.58l-.35-.3-.4.2a1.65,1.65,0,0,1-1.59,0,6.57,6.57,0,0,1-1-.65c-.4-.3-.85-.6-1.3-.95-1.34-.9-1-2,.7-2.69l.45-.15v-.45a1.39,1.39,0,0,0-.3-.9c-.1-.1-.15-.2-.25-.3l-.25-.25c-.1,0-.15-.15-.25-.25l-.25-.25a4.24,4.24,0,0,1-.45-.7c-.5-1,.6-2.14,2-1.49l.9-.5a.22.22,0,0,1,.15,0,1.59,1.59,0,0,1,.9-.1,2.29,2.29,0,0,1,1.54.45h1.1s0,0-.1.1a.39.39,0,0,0,.15,0,1.84,1.84,0,0,1,.65.1,4.49,4.49,0,0,1,2,2.54l.2.55.55-.15a8.3,8.3,0,0,1,1.44-.3c.3,0,1.39-.1,1.69-.15a1.73,1.73,0,0,0,.75-.35,4.49,4.49,0,0,0,.5-.45l.2-.2a.69.69,0,0,1,.2-.15,1.51,1.51,0,0,1,.35-.25,9.11,9.11,0,0,1,.95-.15l.75-.1-.2-.7c0-.2-.1-.45-.15-.7s0-.2,0-.3v-.1c0-.1.15-.25.65-.4s1-.25,1.39-.35.4-.15.6-.2a4.12,4.12,0,0,0,.65-.35,1.16,1.16,0,0,0,.4-1.49,3.25,3.25,0,0,1,.55.1,9.83,9.83,0,0,1,1.3.35,2,2,0,0,1,.45.2,0,0,0,0,1,0,0,.38.38,0,0,1,0,.2c0,.15-.7,1.39-.7,1.39s1.34-.15,1.49-.15a3.31,3.31,0,0,1,.65,0,7.38,7.38,0,0,0,.95.15,2,2,0,0,0,.95,0,1.06,1.06,0,0,0,.85-.85,2.14,2.14,0,0,0,0-.8,3.78,3.78,0,0,1,.9.3c1.1.5,1.49,1.15,1.34,1.59a1.75,1.75,0,0,1-.65.7l-.75.5s.75.6.8.6.1,0,.15.15a2.06,2.06,0,0,1,.45.6c.45.85,1.44.55,1.84.35a2.24,2.24,0,0,0,1-1.3,4,4,0,0,1,1,2,1.88,1.88,0,0,1-.35,1.39,3.93,3.93,0,0,1-.65.15l-.95.1s.5.95.55,1.1a3.86,3.86,0,0,1,.1.95,1.21,1.21,0,0,0,1.54,1.2,2.17,2.17,0,0,0,1.25-.65,1.66,1.66,0,0,1,.15.3,3.82,3.82,0,0,1,.25,2.34,1.79,1.79,0,0,1-.85.95h-.25a.85.85,0,0,1-.35,0c-.15,0-.3,0-.4,0-.6,0-.75.4-.7.8,0,.15,0,.3,0,.4a3.11,3.11,0,0,1,0,.6c-.15,2,1.54,2,2.64,1.39a5.26,5.26,0,0,1-.25,2.54c-.2.4-.4.55-.6.6-.45.1-.65,0-.7,0-.85-.45-1.1-.15-1.2.35,0,.1,0,.15,0,.25a3.43,3.43,0,0,0-.15.4,1.23,1.23,0,0,0,.85,1.94,2.52,2.52,0,0,0,1.34-.1,3.68,3.68,0,0,1-.15.95c-.3,1-.85,1.64-1.54,1.59a.15.15,0,0,1-.1,0l-.25-.15a1.25,1.25,0,0,0-.35-.2,1.74,1.74,0,0,0-.6-.15.84.84,0,0,0-.75.65,2.5,2.5,0,0,0-.1.6,5.5,5.5,0,0,0,0,1.54,3.94,3.94,0,0,0,.5,1.64,1.62,1.62,0,0,0,1.44.95C562.06,493,562.11,493,562.16,493Zm-88.31-30.63a1.22,1.22,0,0,0,.4,1.49,4.12,4.12,0,0,0,.65.35,2.81,2.81,0,0,0,.6.2c.35.1.9.2,1.39.35s.6.3.65.4v.1a.63.63,0,0,1,0,.3c0,.25-.1.5-.15.7l-.2.7.75.1.95.15a.89.89,0,0,1,.35.25s.15.1.2.15l.2.2a4.49,4.49,0,0,0,.5.45,1.73,1.73,0,0,0,.75.35c.25,0,1.34.1,1.69.15a8.3,8.3,0,0,1,1.44.3l.55.15.2-.55a4.49,4.49,0,0,1,2-2.54,1.13,1.13,0,0,1,.65-.1.18.18,0,0,1,.15,0s0,0-.1-.1h1.1a2.61,2.61,0,0,1,1.54-.45,4.06,4.06,0,0,1,.9.1.62.62,0,0,1,.15.1c2.29-.15,3.39,1,2.89,2a4.24,4.24,0,0,1-.45.7l-.25.25-.25.25c-.1.1-.2.15-.25.25a1.32,1.32,0,0,0-.25.3,1.75,1.75,0,0,0-.3.9v.45l.45.15c1.74.6,2,1.74.7,2.69-.5.35-.95.65-1.3.95a6.57,6.57,0,0,1-1,.65,1.53,1.53,0,0,1-1.59,0l-.4-.2-.35.3a8.46,8.46,0,0,0-2.69,4.58l-.3,1.34,1.2-.6c.3-.15.55-.25.8-.4,9.56-4.18,9.12-.8,8.87.3l-.1.45.4.25a2.53,2.53,0,0,1,.8,2c0,.85-.4,1.39-1.3,1.39h-.6l0,.6c-.1.95-1.84,1.64-3.39.55l-.3-.2-.3.15a8.11,8.11,0,0,1-2.74.65h-.3l-.2.25a15.52,15.52,0,0,0-2,2.84c-.7,1.1-1.39,2.34-2.14,3.59-1.54,2.44-3.24,4.53-5.08,5.18l-.25.1-.1.25a8.09,8.09,0,0,1-2.24,2.89c-1.79,1.34-5.43,5-5.43,8.57v.65H472c5,0,5.48,3,5.48,4.83,0,2.19-1.59,3.74-3.44,4.93-.9.6-1.84,1.1-2.54,1.49a7.78,7.78,0,0,0-.95.65,1.33,1.33,0,0,0-.55,1c0,2,6.08,5.83,7.37,5.83a3.67,3.67,0,0,1,3.09,1.49c1.3,1.69,1.1,4.78-1.44,4.78h-.25l-.25.25s-.1,0-.15.1a2.63,2.63,0,0,1-.75.35,5.51,5.51,0,0,1-3.54-.35l-.3-.1-.25.2c-.85.55-2.89.4-3.39-.5l-.3-.5-.5.2a8.06,8.06,0,0,1-2.79.5c-.2,0-.35,0-.5-.35s-.5-1.1-.9-1.89a19.62,19.62,0,0,0-6.48-7.07c-1.59-1.15-1.64-1.64-1.54-2a3.9,3.9,0,0,1,.75-1.2c.45-.55,1-1.15,1.64-1.89a5.4,5.4,0,0,0,1.3-5.38l0-.2-.15-.1c-.3-.25-.55-.5-.75-.7a3.22,3.22,0,0,1-.4-.45l-.25-.3-.35,0a12.31,12.31,0,0,1-5.13-.2c-5.78-1.84-7.37-8.07-5-13.1a24.32,24.32,0,0,1,1.54-2.74c.55-.9,1.1-1.69,1.39-2.24a10.27,10.27,0,0,0,1.54-6.13,12.1,12.1,0,0,0-.4-2.64l-.15-.45h-.5a2.33,2.33,0,0,1-2.54-1.79c-.25-.6-.4-1.25-.65-1.79a2.87,2.87,0,0,0-1.39-1.59c-.15-.1-.2-.15-.2-.2v-.1a6,6,0,0,1,3.54-1.84c1.69,0,2.89.15,4,1.25a4.33,4.33,0,0,1,1.3,3.24,2.67,2.67,0,0,1-1.1,2.24l-.35.25.1.45c.55,2.59.95,6.72-1.44,10.36-1.84,2.74-4.48,6.82-3.14,10.56.9,2.49,3.44,4.18,7.07,3.84l.6,0,0-.6a9.82,9.82,0,0,1,2.84-6.72,19.72,19.72,0,0,0,4-9.51l0-.75h-.75a3.48,3.48,0,0,1-2.34-1l-.15-.15h.2a1.65,1.65,0,0,0,1.44-.95,6.27,6.27,0,0,0,.5-1.64,5.5,5.5,0,0,0,0-1.54,2.5,2.5,0,0,0-.1-.6.84.84,0,0,0-.75-.65,1.74,1.74,0,0,0-.6.15l-.35.2a1.09,1.09,0,0,1-.25.15l.1,0c-.75,0-1.3-.55-1.54-1.59a3.68,3.68,0,0,1-.15-.95,2.49,2.49,0,0,0,1.34.1,1.23,1.23,0,0,0,.85-1.94,1,1,0,0,1-.15-.4.54.54,0,0,1,0-.25c-.1-.5-.35-.8-1.2-.35,0,0-.25.1-.7,0a1.18,1.18,0,0,1-.65-.65,3.48,3.48,0,0,1-.3-1.49,6.69,6.69,0,0,1,0-1c1.1.6,2.79.6,2.64-1.39,0-.25,0-.45,0-.6a1.1,1.1,0,0,1,0-.4c0-.4-.1-.75-.7-.8a1.24,1.24,0,0,0-.4,0c-.1,0-.2,0-.35,0h-.25a2,2,0,0,1-.85-.95,3.86,3.86,0,0,1,.25-2.34l.15-.3a2.33,2.33,0,0,0,1.25.65,1.21,1.21,0,0,0,1.54-1.2,3.86,3.86,0,0,1,.1-.95c0-.15.55-1.1.55-1.1l-.95-.1a2.47,2.47,0,0,1-.65-.15,1.88,1.88,0,0,1-.35-1.39,3.84,3.84,0,0,1,1-2,2.13,2.13,0,0,0,1,1.25,1.26,1.26,0,0,0,1.84-.35,2.06,2.06,0,0,1,.45-.6l.15-.15a3.41,3.41,0,0,0-.6-1.79c-.15-.45.25-1.1,1.34-1.59a4.69,4.69,0,0,1,.9-.3,2.14,2.14,0,0,0,0,.8,1.06,1.06,0,0,0,.85.85,3,3,0,0,0,.95,0l.95-.15a3.06,3.06,0,0,1,.65,0c.15,0,1.49.15,1.49.15s-.65-1.2-.7-1.39a.38.38,0,0,1,0-.2h0a1.23,1.23,0,0,1,.45-.2,5.51,5.51,0,0,1,1.3-.35A.69.69,0,0,1,473.84,462.34Z" transform="translate(-446.92 -461.69)" style="fill:red"/><path d="M450.23,484.85c.45,1.2.75,1.54,2.94,1.44a13.37,13.37,0,0,1,.65,3.59,11,11,0,0,1-1.64,6.48c-.35.55-.85,1.34-1.39,2.24a20.41,20.41,0,0,0-1.49,2.69c-2.24,4.83-.7,10.61,4.58,12.3a11.22,11.22,0,0,0,4.38.25,4.77,4.77,0,0,1-.6-1.59c-3.89.4-6.77-1.39-7.77-4.23a8.75,8.75,0,0,1,.35-6.08,30.15,30.15,0,0,1,2.84-5c2.29-3.44,2-7.42,1.2-10.86.75-.4,1.54-.7,1.54-2.09a3.53,3.53,0,0,0-1.1-2.79c-2-1.89-5.23-.7-6.33.15a3.81,3.81,0,0,1,1.25,1.64C449.84,483.61,450,484.26,450.23,484.85Zm26.35,12.25a2.21,2.21,0,0,0,1.69.65c1.64,0,3.34-1.59,5.13-4.33.85-1.3,1.64-2.69,2.39-3.94a18,18,0,0,1,2.34-3.29l.4-.45a9,9,0,0,0,3.74-.85l.6.4a2.74,2.74,0,0,0,1.74.4.66.66,0,0,0,.65-.65,1.46,1.46,0,0,0-.9-1.39.64.64,0,1,1,.55-1.15,3.18,3.18,0,0,1,1.49,1.54c.65,0,.7-.3.75-.7.1-.75-.4-2.14-2.44-2.14a.65.65,0,0,1-.1-1.3,4.11,4.11,0,0,1,1.49.2c.1-.6-.1-.9-.4-1-.75-.3-2.79-.3-7.57,1.79-1.1.5-3.34,1.84-5.53,2.69a1.29,1.29,0,0,0,1.94.3c1.15-.95.95,4-.9,4.23a1.67,1.67,0,0,1-1.2-.3,5.26,5.26,0,0,1-.25.95c-.4.8-.25,1.69,1,1.64,0,1.54-1.34,3.64-3.54,2.84-1.54-.55-.9-2.94-2.64-2.64a4.55,4.55,0,0,0-.15,1.94c.25,3.19,1.54,2.49,1.59,2.84C478.63,496.21,477.68,496.91,476.58,497.11Zm1.34,2a3.31,3.31,0,0,1-3.14-2.09,3,3,0,0,1-1.84-2.69c-.15-1.44.7-3.29-.8-3.29-.25,0-.5,1.1-.65,1.64-.75,3.44.9,2.54.3,3.29-1,1.25-4.73,1-4.33-2.64.1-1,1.15-3,0-3-.75,0-.65,2.79-2,3.94-.1,3.64-2.44,8.42-4.23,10.51-3.09,3.59-3.54,7.27-1,9.76.35.35.85.8,1.39,1.25a18.1,18.1,0,0,1,1.69,1.69c1,1.3,1.84,3.29,0,5.23-.45.45-.8.9-1.15,1.3-.8.9-.25,1.2.45,1.69a22.45,22.45,0,0,1,5.83,5.53,19,19,0,0,1,1.34,2.24c.3.65.6,1.2.85,1.74a2.3,2.3,0,0,0,2.84,0,3.45,3.45,0,0,0-.7-2.14.66.66,0,1,1,1.1-.75,5,5,0,0,1,.9,3.24,3.48,3.48,0,0,0,3.09-.1,3.86,3.86,0,0,0-.65-2.74.68.68,0,1,1,1.1-.8,5,5,0,0,1,.95,3,1.18,1.18,0,0,0,1.1-1.15,3.46,3.46,0,0,0-.6-2.44,3,3,0,0,0-2.54-1.2c-1.44,0-8.07-3.94-8.07-6.53a2.15,2.15,0,0,1,.75-1.54c.3-.25.7-.5,1-.75.7-.4,1.59-.9,2.49-1.49,1.79-1.15,3.09-2.49,3.09-4.33,0-1.59-.5-3.79-3.74-4.08-.7,0-3-.3-4.58.5-.8.4-1.49-.6-.8-1.1a6.55,6.55,0,0,1,2.94-.8c0-4,3.89-7.72,5.68-9.12A5.44,5.44,0,0,0,477.93,499.1Zm-16.19,18.43a6.45,6.45,0,0,1-1.69,4.38c-.65.75-1.2,1.34-1.64,1.84-.8.95-.85,1.15.7,2.24,4.08,2.94,5.78,5.43,6.67,7.27.6,1.25.75,1.94,1,1.89a10.43,10.43,0,0,0,1.59-.25,2.63,2.63,0,0,0,.75-.25c-.95-2-2.29-4.58-7-7.92-2.59-1.84-1.34-3,.5-5C464,520.27,463,518.78,461.74,517.53Zm21.62-40h-4.23v-3.29s3.34,0,4.33-.1a3.1,3.1,0,0,1,1.15,0s.25,0,.25-.1a13.46,13.46,0,0,0,0-1.89,3,3,0,0,0,.75-2,16.55,16.55,0,0,0-3.19-.9c-.3,0-1.44-.1-1.69-.15a2,2,0,0,1-1-.4c-.2-.15-.8-.95-1.1-1a16.32,16.32,0,0,0-5.78-.15,1.43,1.43,0,0,0-1,.95,12.06,12.06,0,0,0-1.89.1c-.5.1-.65.15-.7.45,0,.6,1.44,1.49,1.44,1.49a20.1,20.1,0,0,1-.85,3.19A1.69,1.69,0,0,0,470,475a3.16,3.16,0,0,0,2.64,1.59c.95.15,2.14,1.64,2.69,1.84a23.81,23.81,0,0,0,3.44.1,27.29,27.29,0,0,0,4.08-.35C483.11,478.18,483.26,477.78,483.36,477.53Zm-3.59,2.14c-2.09.1-4.38.15-4.93-.15-1.15-.65-1.84-1.64-2.39-1.74a4.34,4.34,0,0,1-3.49-2.29c-.75-1.74,0-2.09.5-4.43-1.64-1.25-1.59-2.49-.75-3.19a5,5,0,0,1,2.54-.5c.3-1.2,3.29-1.25,5.48-1.1,0-.15.1-.4.15-.55s.1-.4-.4-.5a6.79,6.79,0,0,1-2.34-.8c-.65-.35-1-1-.85-1.34s-.95,0-1,.2S473,465,473,465a19.52,19.52,0,0,0-2.09,0,19.37,19.37,0,0,1-2.59.25c-.95-.1-1.49-.85-1.39-1.39,0-.35-1.25.6-1.2.95s.45.8,1.49,1.49c-1.84,1-1.39,2.34-2.94,2.44-.45,0-1.69-.35-1.84-1-.1-.4-.95,1.1-.45,1.84.25.4.55.35,1.84.45a4.24,4.24,0,0,0-.6,2.39,1.5,1.5,0,0,1-.9,1.54,1.91,1.91,0,0,1-2.19-.2c-.2-.2-.35,1.2-.2,1.59s.4.6,1,.6c1,0,1.54-.25,1.54,0a18.34,18.34,0,0,0,0,2.79,1.8,1.8,0,0,1-2.69,1.64c-.3-.15,0,1.79.5,1.84,1,.1,1.94-.85,2-.55a24.8,24.8,0,0,0,.7,2.49,1.72,1.72,0,0,1-2.14,2c-.45-.2.15,1.74,1,1.39.3-.1.75-.5,1.15-.5.65,0,1,.25,1.34,1.1a5.77,5.77,0,0,1,0,2.34,5,5,0,0,1-.55,1.79,1.85,1.85,0,0,1-.85.8c-.6.15,1,.85,1.74.4s1.1-2.74,1.25-3.09a1.75,1.75,0,0,1,1.59-1.25,1.66,1.66,0,0,1,1.64,1.25,2.38,2.38,0,0,1,0,1.34c0,.35-.4,1.54-.45,1.74-.45,2.09,1.89,2.19,1.64,1.94s-.3-1.64,0-3a10.29,10.29,0,0,1,.55-1.79,1.53,1.53,0,0,1,1.25-.85,2,2,0,0,1,2.09,2.29c0,.35-.1,1.84-.1,2.09,0,2.49,3.14,1.84,2.64,1.59s-1-1.25-1.2-3.09a6.76,6.76,0,0,1,.35-3c1.25-.4,2.54-.4,3.34,1.15.2.4.35,1.1.6,1.3.5.45,1.54,0,1.79-.7-1.15-.45-1.2-2.09-.65-3.19a8.16,8.16,0,0,0,.6-1.94c.2.2,1.25,1,1.79.85s.85-1.84.4-1.64c-.9.5-2-.65-2.39-1.2a3.51,3.51,0,0,1-.75-2A3.35,3.35,0,0,0,479.77,479.67Zm5.48,1.2a9,9,0,0,1,3.09-6l.65-.55.8.4a.9.9,0,0,0,1,0,5.54,5.54,0,0,0,.9-.6,15.71,15.71,0,0,1,1.34-.95c1-.65.6-1.15-.45-1.49l-.95-.35v-.75a2.63,2.63,0,0,1,1-2.09c.1-.1,1-.8.85-1.3s-1.39-.4-1.39-.4c-.55.15-1,1-1.15,1.39a.67.67,0,0,1-1.25-.5,5,5,0,0,1,.85-1.3c0-.3-1.15-.2-1.49,0a3.5,3.5,0,0,0-.6,1.34.68.68,0,0,1-1.34-.25s.1-.4.25-.8c-.6,0-1.39.75-2,2.19.45.15.95.35,1.39.5a4.21,4.21,0,0,1-.65,3.24c0,1.25.1,3-1.3,2.79a8.89,8.89,0,0,0-1.15-.1,25.84,25.84,0,0,1-3.29.1v.95h4.23c.45.45-.3,2.79-1.44,3a17,17,0,0,1-1.79.2,6.06,6.06,0,0,1,.7,2.84A31.67,31.67,0,0,0,485.25,480.87Zm53.4,0a32.92,32.92,0,0,0,3.24,1.49,6.91,6.91,0,0,1,.7-2.84c-.8,0-1.44-.15-1.79-.2-1.2-.2-1.94-2.54-1.44-3h4.23v-.95c-.75,0-2.24,0-3.29-.1a4.46,4.46,0,0,0-1.15.1c-1.39.2-1.3-1.54-1.3-2.79a4,4,0,0,1-.65-3.24,11.49,11.49,0,0,1,1.39-.5c-.6-1.44-1.39-2.24-2-2.19a2.77,2.77,0,0,1,.25.8.68.68,0,1,1-1.34.25,3.5,3.5,0,0,0-.6-1.34c-.35-.25-1.44-.35-1.49,0a6,6,0,0,1,.85,1.3.67.67,0,1,1-1.25.5c-.15-.4-.6-1.25-1.15-1.39,0,0-1.25-.2-1.39.4s.75,1.2.85,1.3a2.47,2.47,0,0,1,1,2.09v.75l-.95.35c-1,.35-1.44.85-.45,1.49.5.35.95.7,1.34.95a9.15,9.15,0,0,0,.9.6.9.9,0,0,0,1,0l.8-.4.65.55A9.86,9.86,0,0,1,538.65,480.87Zm5.48-1.2a3.06,3.06,0,0,0-1,2.49,3.51,3.51,0,0,1-.75,2c-.4.55-1.49,1.69-2.39,1.2-.4-.25,0,1.49.4,1.64s1.64-.65,1.79-.85a8.16,8.16,0,0,0,.6,1.94c.55,1.1.5,2.74-.65,3.19.25.7,1.3,1.15,1.79.7a3.91,3.91,0,0,0,.6-1.3c.8-1.54,2.09-1.54,3.34-1.15a6.76,6.76,0,0,1,.35,3c-.2,1.79-.55,2.79-1.2,3.09s2.64.9,2.64-1.59c0-.3-.1-1.74-.1-2.09a2,2,0,0,1,2.09-2.29,1.47,1.47,0,0,1,1.25.85,7.26,7.26,0,0,1,.55,1.79c.3,1.34.35,2.59,0,3s2.09.2,1.64-1.94c0-.2-.4-1.39-.45-1.74a3.84,3.84,0,0,1,0-1.34,1.66,1.66,0,0,1,1.64-1.25,1.75,1.75,0,0,1,1.59,1.25c.15.35.6,2.74,1.25,3.09s2.34-.25,1.74-.4a1.48,1.48,0,0,1-.85-.8,5.38,5.38,0,0,1-.55-1.79,6.92,6.92,0,0,1,0-2.34c.25-.85.65-1.1,1.34-1.1.4,0,.85.4,1.15.5.9.35,1.44-1.59,1-1.39a1.75,1.75,0,0,1-2.14-2c.1-.75.45-.95.7-2.49,0-.25,1,.65,2,.55.55,0,.8-2,.5-1.84a1.79,1.79,0,0,1-2.69-1.64c.1-1.44,0-2.24,0-2.79,0-.2.55,0,1.54,0,.65,0,.9-.2,1-.6s0-1.79-.2-1.59a1.9,1.9,0,0,1-2.19.2,1.5,1.5,0,0,1-.9-1.54,4.58,4.58,0,0,0-.6-2.39c1.3-.1,1.59,0,1.84-.45.5-.75-.35-2.24-.45-1.84-.15.65-1.34,1-1.84,1-1.59,0-1.1-1.34-2.94-2.44,1-.7,1.49-1.2,1.49-1.49s-1.25-1.3-1.2-.95a1.44,1.44,0,0,1-1.39,1.39A18.66,18.66,0,0,1,553,465a19.52,19.52,0,0,0-2.09,0s.95-1.39.75-1.74-1.2-.55-1-.2-.25.95-.85,1.34a6.79,6.79,0,0,1-2.34.8c-.5.1-.5.2-.4.5s.1.35.15.55c2.24-.15,5.18-.1,5.48,1.1a5.14,5.14,0,0,1,2.54.5c.85.7.9,1.94-.75,3.19.45,2.34,1.25,2.64.5,4.43a4.34,4.34,0,0,1-3.49,2.29c-.6.1-1.25,1.15-2.39,1.74C548.51,479.82,546.17,479.82,544.13,479.67Zm-3.59-2.14c.1.25.3.65.45.7a36.47,36.47,0,0,0,4.08.35,18.28,18.28,0,0,0,3.44-.1c.6-.25,1.74-1.74,2.69-1.84a3.16,3.16,0,0,0,2.64-1.59c.3-.65.3-.9.15-1.25a21.66,21.66,0,0,1-.85-3.19s1.44-.9,1.44-1.49c0-.35-.2-.35-.7-.45a11.44,11.44,0,0,0-1.89-.1,1.43,1.43,0,0,0-1-.95,16.3,16.3,0,0,0-5.78.15c-.3,0-.95.9-1.1,1a1.83,1.83,0,0,1-1,.4c-.25,0-1.39.15-1.69.15a13.6,13.6,0,0,0-3.19.9,2.83,2.83,0,0,0,.75,2,13.46,13.46,0,0,0,0,1.89c0,.1.15.15.25.1a4.82,4.82,0,0,1,1.15,0c1,.1,4.33.1,4.33.1v3.29l-4.18,0Zm21.62,40c-1.3,1.25-2.24,2.74-.85,4.28,1.79,2,3.09,3.19.5,5-4.73,3.34-6.08,5.93-7,7.92a6.52,6.52,0,0,0,.75.25,10.43,10.43,0,0,0,1.59.25c.25,0,.4-.7,1-1.89.95-1.84,2.64-4.33,6.67-7.27,1.49-1.1,1.44-1.3.7-2.24a23.38,23.38,0,0,0-1.64-1.84A6.92,6.92,0,0,1,562.16,517.53ZM546,499.1a6.37,6.37,0,0,0,1.59,1.79c1.79,1.34,5.68,5.13,5.68,9.12a6.55,6.55,0,0,1,2.94.8c.75.5,0,1.49-.8,1.1a10,10,0,0,0-4.58-.5c-3.24.3-3.74,2.49-3.74,4.08,0,1.84,1.3,3.14,3.09,4.33.9.6,1.84,1,2.49,1.49a5,5,0,0,1,1,.75,2.15,2.15,0,0,1,.75,1.54c0,2.59-6.62,6.53-8.07,6.53a3.13,3.13,0,0,0-2.54,1.2,3.8,3.8,0,0,0-.6,2.44,1.22,1.22,0,0,0,1.1,1.15,5.36,5.36,0,0,1,.95-3c.55-.7,1.64.1,1.1.8a3.86,3.86,0,0,0-.65,2.74,3.48,3.48,0,0,0,3.09.1,5.32,5.32,0,0,1,.9-3.24c.5-.75,1.64,0,1.1.75a3.78,3.78,0,0,0-.7,2.14,2.3,2.3,0,0,0,2.84,0c.25-.55.55-1.1.85-1.74a14,14,0,0,1,1.34-2.24,22.45,22.45,0,0,1,5.83-5.53c.7-.5,1.25-.8.45-1.69l-1.15-1.3c-1.79-1.94-1-3.94,0-5.23a13.59,13.59,0,0,1,1.69-1.69c.5-.45,1-.85,1.39-1.25,2.49-2.49,2.09-6.18-1-9.76-1.79-2.09-4.13-6.87-4.23-10.51-1.3-1.15-1.25-3.94-2-3.94-1,0,0,1.94,0,3,.4,3.59-3.24,3.84-4.33,2.64-.65-.75,1,.15.3-3.29-.1-.55-.4-1.64-.65-1.64-1.44,0-.65,1.84-.8,3.29a2.87,2.87,0,0,1-1.84,2.69A2.83,2.83,0,0,1,546,499.1Zm1.39-2c-1.15-.2-2-.9-1.89-1.69,0-.35,1.34.35,1.59-2.84a4.71,4.71,0,0,0-.15-1.94c-1.74-.3-1.1,2.09-2.64,2.64-2.19.8-3.54-1.34-3.54-2.84,1.25,0,1.44-.85,1-1.64a5.26,5.26,0,0,1-.25-.95,1.67,1.67,0,0,1-1.2.3c-1.79-.25-2-5.18-.9-4.23a1.32,1.32,0,0,0,1.94-.3c-2.19-.85-4.43-2.19-5.53-2.69-4.78-2.09-6.82-2.09-7.57-1.79-.25.1-.5.4-.4,1a4.11,4.11,0,0,1,1.49-.2.65.65,0,0,1-.1,1.3c-2,0-2.54,1.39-2.44,2.14,0,.4.1.75.75.7a3.18,3.18,0,0,1,1.49-1.54.64.64,0,1,1,.55,1.15c-.35.2-1,.7-.9,1.39a.73.73,0,0,0,.65.65,2.46,2.46,0,0,0,1.74-.4l.6-.4a8.72,8.72,0,0,0,3.74.85l.4.45a20,20,0,0,1,2.34,3.29c.75,1.25,1.54,2.64,2.39,3.94,1.79,2.74,3.49,4.33,5.13,4.33A2.25,2.25,0,0,0,547.37,497.11Zm26.3-12.25c.25-.6.4-1.25.65-1.79a3.81,3.81,0,0,1,1.25-1.64c-1.1-.85-4.33-2-6.33-.15a3.59,3.59,0,0,0-1.1,2.79c0,1.39.8,1.69,1.54,2.09-.8,3.44-1,7.42,1.2,10.86a26.62,26.62,0,0,1,2.84,5,8.23,8.23,0,0,1,.35,6.08c-1,2.84-3.89,4.63-7.77,4.23a10.37,10.37,0,0,1-.6,1.59,11.22,11.22,0,0,0,4.38-.25c5.28-1.69,6.87-7.47,4.58-12.3a20.41,20.41,0,0,0-1.49-2.69c-.55-.9-1.1-1.69-1.39-2.24a10.86,10.86,0,0,1-1.64-6.48,15.24,15.24,0,0,1,.65-3.59C572.92,486.4,573.22,486,573.67,484.85ZM512,560.32a68.21,68.21,0,0,0,14.69-1.54,106.41,106.41,0,0,0,10.91-3.09c6.33-2,12.05-3.84,19.58-2,1.34.35,1.34.35,1.54-.65l3-13.65c.2-.8.2-.8-.85-1-8.87-1.89-16.19-.6-23.66,1.3-3.94,1-7.82,2.14-11.9,3A62.82,62.82,0,0,1,512,544.23a59.76,59.76,0,0,1-13.35-1.59c-4.08-.9-8-2-11.9-3-7.47-1.89-14.74-3.19-23.66-1.3-1,.25-1,.25-.85,1l3,13.65c.2,1,.2,1,1.54.65,7.47-1.74,13.2,0,19.58,2a106.41,106.41,0,0,0,10.91,3.09A68.21,68.21,0,0,0,512,560.32Zm-15.49-20.17a31.55,31.55,0,0,1-3-53.1,3.71,3.71,0,0,1-1.44-.6,9,9,0,0,1-3,.7c-2.39,2.49-5.23,10.11-9.31,11.66a8.18,8.18,0,0,1-2.49,3.14c-1.79,1.34-5.18,4.78-5.18,8.07,5.48,0,6.13,3.54,6.13,5.48,0,5.13-7.42,6.72-7.42,8.07s5.58,5.18,6.72,5.18a4.31,4.31,0,0,1,3.59,1.74c1.15,1.44,1.59,5-1,5.68C485.65,537.11,490.93,538.8,496.46,540.14Zm47.07-27.5a31.47,31.47,0,0,1-16.09,27.5c5.53-1.34,10.81-3,16.39-4-2.59-.65-2.14-4.23-1-5.68a4.45,4.45,0,0,1,3.59-1.74c1.15,0,6.72-3.69,6.72-5.18s-7.42-2.94-7.42-8.07c0-1.94.65-5.48,6.13-5.48,0-3.24-3.39-6.67-5.18-8.07a8.58,8.58,0,0,1-2.49-3.14c-4.13-1.54-6.92-9.17-9.36-11.71a9,9,0,0,1-3-.7,4,4,0,0,1-1.44.6A31.44,31.44,0,0,1,543.53,512.65Zm-60.22,0A28.64,28.64,0,1,0,512,484,28.65,28.65,0,0,0,483.31,512.65Zm48.42-37.31-.8,2.49a28.94,28.94,0,0,1,5.43,1.84,6.48,6.48,0,0,1,.85.4,7.53,7.53,0,0,0-2.49-4.23C533.57,476.49,532.77,476.09,531.73,475.34ZM493,477.88l-.8-2.49c-1,.75-1.84,1.1-3,.5a7.53,7.53,0,0,0-2.49,4.23,6.48,6.48,0,0,1,.85-.4A26.65,26.65,0,0,1,493,477.88Zm36.41-9.66a47.87,47.87,0,0,0-34.87,0c-.65,1.25-1.59,1.34-1.59,2.19,1.84.65,2.89,2.34.9,3.79l1.1,3.49c2.44.1,2.64,1.74,2.34,3.09a3.27,3.27,0,0,1,1,3.39,31.7,31.7,0,0,1,27.3,0,3.27,3.27,0,0,1,1-3.39c-.3-1.34-.1-3,2.34-3.09l1.1-3.49c-2-1.39-.95-3.09.9-3.79C531,469.56,530,469.46,529.38,468.22Zm-35-2a49.81,49.81,0,0,1,35.07,0,2.65,2.65,0,0,1,2.69-.5c.15-1.1,3.14-.9,3.74,0,.3-.45,2.44-.7,3.89,2.79a9.34,9.34,0,0,1,1.54-.3c.3,0,1.39-.1,1.64-.15.75-.1,1-1,1.84-1.39a5.41,5.41,0,0,1,1.15-.2,4,4,0,0,1-.2-1.44c.25-.9,1.74-.95,2.44-1.15s1.69-.55,1.25-1.34c-.9-1.49,3.19-.4,3.64.25.25.4-.2,1.15-.2,1.15a4.63,4.63,0,0,1,1.1,0c1.34.2,2.39.65,1.84-1.1-.35-1.15,4.33.4,3.59,2.44a2.45,2.45,0,0,1-.9,1,3.1,3.1,0,0,1,.85,1c.35.6,1.59-.1,1.59-.95,0-1.74,2.14.65,2.29,2.29a2.46,2.46,0,0,1-.6,2,2.91,2.91,0,0,1-1,.3,3.46,3.46,0,0,1,.3,1.54c0,.9,1.49.65,1.94-.35.35-.8,1.69,1.84,1.2,3.59a2.33,2.33,0,0,1-1.34,1.39c-.5.1-1.2-.15-1.2,0a4.34,4.34,0,0,1,0,1.15c-.1,1.25,1.15,1.39,2.09.5.7-.7,1.2,4.23-.8,4.58-1.15.2-1.34-.4-1.39-.2a2.42,2.42,0,0,1-.3.85c-.6,1.3,1,1.25,1.89.8s.45,4.18-2,4c-.45,0-.8-.55-1.2-.55s-.45,4.08,1.15,4.08c2.29,0-.25,2.59-2.44,2.49a18.6,18.6,0,0,0,3.89,9.12,10.63,10.63,0,0,1,3,7.17c3.44.35,5.68-1.25,6.48-3.44,1.25-3.39-1.2-7.17-3-10-2.54-3.84-2.09-8.17-1.54-10.81a3.29,3.29,0,0,1-1.39-2.79,4.69,4.69,0,0,1,1.49-3.69c3.09-2.89,7.82-.4,8.57.7a.82.82,0,0,1-.4,1.2c-2.09,1.15-.85,5.28-4.83,5.28a8.36,8.36,0,0,0-.35,2.49,9.94,9.94,0,0,0,1.44,5.78c.65,1.1,2.09,3.14,3,5,2.44,5.28.85,12-5.33,14a12,12,0,0,1-5.53.2c-.15.15-.3.35-.45.5s-.45.4-.7.65a4.78,4.78,0,0,0,1.15,4.88c2.59,3,3.84,3.79.75,6-6,4.28-6.43,7.57-7.27,8.82q1.87.3,3.89.75c.65.15,1.94.5,1.49,2.44l-3.39,15.14c-.5,2.24-2.19,1.69-3,1.49-14.59-3.84-21.62,6.58-45.43,6.58s-30.88-10.41-45.43-6.58c-.8.2-2.49.75-3-1.49L460.2,539.1a1.78,1.78,0,0,1,1.49-2.44q2-.45,3.89-.75c-.8-1.3-1.25-4.53-7.27-8.82-3.09-2.24-1.89-3,.75-6a4.78,4.78,0,0,0,1.15-4.88,8.91,8.91,0,0,1-.7-.65c-.15-.15-.3-.35-.45-.5a13.53,13.53,0,0,1-5.53-.2c-6.18-1.94-7.82-8.67-5.33-14a48,48,0,0,1,3-5,9.57,9.57,0,0,0,1.44-5.78,13.64,13.64,0,0,0-.35-2.49c-4,0-2.74-4.13-4.83-5.28a.82.82,0,0,1-.4-1.2c.75-1.15,5.48-3.59,8.57-.7a4.75,4.75,0,0,1,1.49,3.69,3.29,3.29,0,0,1-1.39,2.79c.55,2.64,1,7-1.54,10.81-1.89,2.84-4.28,6.62-3,10,.8,2.19,3,3.79,6.48,3.44a10.46,10.46,0,0,1,3-7.17,19.28,19.28,0,0,0,3.89-9.12c-2.19.15-4.73-2.49-2.44-2.49,1.59,0,1.54-4.08,1.15-4.08s-.75.5-1.2.55c-2.49.2-2.79-4.38-2-4s2.49.55,1.89-.8a4.38,4.38,0,0,1-.3-.85c0-.25-.2.4-1.39.2-2-.35-1.49-5.23-.8-4.58.95.9,2.19.75,2.09-.5a4.39,4.39,0,0,1,0-1.15c0-.2-.7,0-1.2,0a2.47,2.47,0,0,1-1.34-1.39c-.5-1.74.85-4.38,1.2-3.59s2,1.2,1.94.35a2.79,2.79,0,0,1,.3-1.54,2.91,2.91,0,0,1-1-.3,2.46,2.46,0,0,1-.6-2c.15-1.64,2.29-4,2.29-2.29,0,.85,1.3,1.54,1.59.95a2.54,2.54,0,0,1,.85-1,2.45,2.45,0,0,1-.9-1c-.75-2,3.94-3.59,3.59-2.44-.55,1.74.5,1.3,1.84,1.1a4.63,4.63,0,0,1,1.1,0s-.45-.75-.2-1.1c.4-.65,4.53-1.74,3.64-.25-.5.8.45,1,1.25,1.34s2.14.3,2.44,1.15a4,4,0,0,1-.2,1.44,6.19,6.19,0,0,1,1.15.2c.85.35,1.15,1.25,1.84,1.39.25,0,1.34.1,1.64.15a10.44,10.44,0,0,1,1.54.3c1.44-3.49,3.59-3.24,3.89-2.79.6-.9,3.59-1,3.74,0A2.38,2.38,0,0,1,494.42,466.17Zm26,8.57,2.24.6.55-2.14c.15-.5.3-1,.45-1.54h0c-.45.5-.8.9-1.25,1.34l-1.94,1.74Zm3.09,4.58-1.79-.5.55-2.09-4-1.1.35-1.2,4.88-4.33,2.34.65-1.34,5.08,1.1.3-.4,1.39-1.1-.3Zm-9.66-3c.95,0,1.54-1,1.64-3.09s-.35-3.14-1.3-3.19-1.54,1-1.64,3S512.9,476.24,513.79,476.29Zm-.1,1.44c-2.24-.1-3.29-2.09-3.14-4.73s1.44-4.53,3.69-4.43,3.29,2.14,3.14,4.73S516,477.83,513.69,477.73Zm-8.17-7.27a1.48,1.48,0,0,0-1.15,1.84,1.42,1.42,0,0,0,1.64,1.3,1.51,1.51,0,0,0,1.25-.85,1.11,1.11,0,0,0,0-.45C507.12,471.26,506.62,470.31,505.52,470.46Zm-1.44,8-.2-1.49a4.43,4.43,0,0,0,.95-.15,3.61,3.61,0,0,0,1.79-.9,2.73,2.73,0,0,0,.9-1.89h0a2.48,2.48,0,0,1-1.84,1,2.76,2.76,0,0,1-3.24-2.34,3.25,3.25,0,0,1,2.94-3.64c2.29-.3,3.64,1.25,3.94,3.34a5.19,5.19,0,0,1-1,4.23,5.38,5.38,0,0,1-3.24,1.69A3.68,3.68,0,0,1,504.08,478.43Zm-3.19.85-2.09-6.82h0l-1.39,1.25-.75-1.3,1.89-1.69,1.54-.45,2.59,8.47Zm-23.81-9.91a2,2,0,0,0-.65.75,13.69,13.69,0,0,0,1.39-.45A1.26,1.26,0,0,0,477.08,469.36Zm2,.65s-2.74,1.1-3.24.65.65-2,1.15-2A2.91,2.91,0,0,1,479.08,470Zm65.75,0a2.91,2.91,0,0,1,2.09-1.34c.5,0,1.74,1.44,1.15,2S544.83,470,544.83,470Zm2-.65a1.06,1.06,0,0,0-.75.35c.55.2,1.15.35,1.39.45A1.93,1.93,0,0,0,546.82,469.36Zm-.7,81.14v-5.18c0-.95,0-1.69,0-2.34H548l.1,1.15h0a2.93,2.93,0,0,1,2.49-1.3c1.44,0,2.84.95,2.84,3.34v4.38H551.3v-4.13c0-1.1-.4-1.84-1.39-1.84a1.47,1.47,0,0,0-1.39,1,1.79,1.79,0,0,0-.1.55v4.33Zm-75.61.1-.35-10.41,2.19-.1.3,8.57,4.48-.15,0,1.84ZM485.6,549l-5.08-1.2c-.2,1.1.75,1.84,1.89,2.14a5.87,5.87,0,0,0,2.24.15l0,1.54a7.32,7.32,0,0,1-2.89-.15c-2.54-.6-3.69-2.39-3.19-4.68a3.82,3.82,0,0,1,4.73-3c2.54.6,2.94,2.79,2.54,4.43A2.28,2.28,0,0,1,485.6,549Zm-4.78-2.69,3.14.75a1.52,1.52,0,0,0-1.15-1.94A1.79,1.79,0,0,0,480.82,546.32Zm7.12-1.15,2.24.85-.15,3.89c0,.7-.1,1.3-.15,1.89h0c.35-.5.65-1,1.1-1.54l2.34-3,2.19.8-5.43,6.08-2.09-.75Zm14.49,8.72-5.13-1c-.15,1.1.8,1.84,2,2a7,7,0,0,0,2.24.1v1.54a8.12,8.12,0,0,1-2.89,0c-2.54-.5-3.79-2.29-3.34-4.58a3.89,3.89,0,0,1,4.63-3.24c2.59.5,3,2.69,2.69,4.38A1.7,1.7,0,0,1,502.44,553.89Zm-4.83-2.49,3.19.6a1.53,1.53,0,0,0-1.2-1.89A1.75,1.75,0,0,0,497.6,551.4Zm7,6,.45-5c.1-1.15.15-1.84.15-2.49l1.89.15,0,1.49h0a2.29,2.29,0,0,1,2.29-1.44,1.77,1.77,0,0,1,.5.1l-.2,2-.65-.15a1.63,1.63,0,0,0-1.84,1.2c0,.15,0,.35-.1.5l-.35,3.84Zm9.22-10.86.25,6.72h0a8.66,8.66,0,0,0,.55-.9l1.69-2.39,2.69-.1L516.23,553l3.54,4.38-2.74.1-2.24-3.14-.65.8.1,2.44-2.19.1-.4-11Zm13.85,1.64,1,5.08c.2.95.35,1.74.5,2.29l-1.89.35-.3-1.1h0a2.89,2.89,0,0,1-2.19,1.79c-1.44.3-2.89-.35-3.34-2.74l-.85-4.33,2.19-.4.75,3.94c.25,1.2.75,1.79,1.74,1.64a1.53,1.53,0,0,0,1.2-1.25,1,1,0,0,0,0-.55l-.85-4.38Zm3.44,6.13,0-1.64a4.64,4.64,0,0,0,2.19,0c.8-.2,1-.6.9-1s-.45-.55-1.44-.6c-1.64,0-2.54-.65-2.79-1.54-.4-1.34.45-2.69,2.29-3.19a5.16,5.16,0,0,1,2.24-.15l0,1.59a3.69,3.69,0,0,0-1.79,0c-.6.2-.9.55-.8.95s.5.5,1.54.55c1.54,0,2.34.55,2.69,1.64.4,1.3-.4,2.64-2.49,3.24A6.41,6.41,0,0,1,531.13,554.34Zm13.25-6.58-5.13,1a2,2,0,0,0,2.59,1.15,6.09,6.09,0,0,0,2.09-.75l.6,1.39a7.41,7.41,0,0,1-2.69,1c-2.54.5-4.33-.7-4.78-3a3.87,3.87,0,0,1,3.09-4.73c2.59-.5,3.84,1.39,4.13,3A7.44,7.44,0,0,1,544.38,547.77Zm-5.43-.5,3.19-.6a1.49,1.49,0,0,0-1.84-1.3A1.63,1.63,0,0,0,538.95,547.27Zm-28.89-56.78h3.69a.75.75,0,0,0,0-1.49h-3.69Zm0,3.54h3.79a.85.85,0,1,0,0-1.69h-3.79V494Zm5.88-2.69A2.71,2.71,0,0,1,514,496h-6.13V487.1h6a2.6,2.6,0,0,1,2.59,2.59A2.48,2.48,0,0,1,515.94,491.33Zm1.44,15.09h-2.24l-.7-1.49h-4.93l-.7,1.49h-2.24l4.38-8.82h2ZM512,499.85,510.41,503h3.09Zm3,8.47h2.54L513,514v3.09H510.9V514l-4.48-5.73H509l3,4Zm11.76,0v1.89h-5.88v1.49h5.68v1.89h-5.68v1.69h5.88v1.89h-8v-8.82l8,0Zm6.62,5.48h-1.59v3.34h-2.09v-8.82H535a2.76,2.76,0,0,1,2.74,2.74,2.8,2.8,0,0,1-1.94,2.64l2.59,3.49h-2.54Zm1.44-3.59h-3v1.69h3a.87.87,0,0,0,.85-.85A.84.84,0,0,0,534.76,510.21Zm-27.35,6.92h-2.24l-.7-1.49h-4.93l-.7,1.49h-2.24l4.38-8.82h2ZM502,510.56l-1.54,3.19h3.09Zm-13.35,1.15h3.69a.75.75,0,0,0,0-1.49h-3.69Zm0,3.54h3.79a.85.85,0,1,0,0-1.69h-3.79v1.69Zm5.93-2.69a2.71,2.71,0,0,1-1.89,4.63h-6.13v-8.82h6a2.6,2.6,0,0,1,2.59,2.59A2.74,2.74,0,0,1,494.57,512.55ZM515.94,519v1.89h-5.88v1.49h5.68v1.89h-5.68V526h5.88v1.89h-8V519Zm-1.49,13.65a.84.84,0,0,0-.85-.85H510v1.69h3.59A.84.84,0,0,0,514.44,532.67ZM508,538.75v-8.82h5.88a2.74,2.74,0,0,1,1,5.28l2.64,3.54h-2.54l-2.54-3.34H510v3.34h-2Z" transform="translate(-446.92 -461.69)"/></svg>