<svg xmlns="http://www.w3.org/2000/svg" viewBox="0 0 129.87 208.85"><title>ac-milan-logo</title><path d="M191.06,256c0-57.36,28.65-104.28,64.94-104.44,36.3.17,64.89,47.08,64.93,104.44S292.3,360.26,256,360.43c-36.29-.16-64.91-47.08-64.94-104.41" transform="translate(-191.06 -151.57)"/><path d="M260.89,318.78a2.8,2.8,0,0,0-2.77,3.14,2.83,2.83,0,0,0,3.37,2.89,2.67,2.67,0,0,0,2.5-3.11c-.15-2-1.19-3.1-3.1-2.93a2.8,2.8,0,0,0-2.77,3.14,2.83,2.83,0,0,0,3.37,2.89,2.67,2.67,0,0,0,2.5-3.11c-.15-2-1.19-3.1-3.1-2.93m18.53-.83c-.64-1.85-1.91-2.69-3.73-2.06a2.78,2.78,0,0,0-1.91,3.71,2.83,2.83,0,0,0,4,2,2.67,2.67,0,0,0,1.67-3.63c-.64-1.85-1.91-2.69-3.73-2.06a2.78,2.78,0,0,0-1.91,3.71,2.83,2.83,0,0,0,4,2,2.67,2.67,0,0,0,1.67-3.63m-34.5,6.93a2.73,2.73,0,0,0-3.37,2.13,2.81,2.81,0,0,0,2.52,3.26,2.73,2.73,0,1,0,.86-5.39m1.39-6.78c-1.66-.31-2.82.4-3.05,1.66a2.41,2.41,0,0,0,2.18,2.57,2.22,2.22,0,0,0,2.79-1.69,2.24,2.24,0,0,0-1.92-2.54c-1.66-.31-2.82.4-3.05,1.66a2.41,2.41,0,0,0,2.18,2.57,2.22,2.22,0,0,0,2.79-1.69,2.24,2.24,0,0,0-1.92-2.54m-1.39,6.78a2.73,2.73,0,0,0-3.37,2.13,2.81,2.81,0,0,0,2.52,3.26,2.73,2.73,0,1,0,.86-5.39m14-60.83V309a52.2,52.2,0,0,0,12.64-2.32V264.1Zm0-61v43.15h12.64V205.34A53.89,53.89,0,0,0,258.93,203m32.44,13.4v29.76h16.83a52.93,52.93,0,0,0-16.84-29.75m0,47.65v31.5a52.83,52.83,0,0,0,17.09-31.5ZM236.58,181l-5.24,10.8,7.6-3Zm0,0-5.24,10.8,7.6-3Zm56.33,10.29c-9.48-16.56-22.54-26.72-36.86-26.73l-.07,0v0c-14.32,0-27.39,10.2-36.86,26.73-6,10.36-10.45,23.3-13,37.72A56.65,56.65,0,0,1,256,199.31a56.07,56.07,0,0,1,15.56,2.2v0l.19.07A56.75,56.75,0,0,1,305.87,229c-2.53-14.44-7-27.39-13-37.75m-51.54,5.57L240,192.22,229,196.58l-3.52,7.23a54.06,54.06,0,0,0-5.67,4.14l14.27-29.6,4.53-2.9L244.83,196c-1.16.24-2.33.5-3.46.81M257,195a12.6,12.6,0,1,1,9.27-21.13l-2.71,2.48a8.92,8.92,0,1,0,0,12.09l2.71,2.48A12.53,12.53,0,0,1,257,195m29.72,8.9-4-13.59-3.79,9.39c-.62-.27-1.26-.55-1.9-.8l-2.7-14.09-3.65,12c-1.13-.31-2.32-.58-3.48-.83l6.27-20.57,3,2,2.6,12.35,3.11-7.73,2.19,1.74,6.91,23.37c-1.47-1.17-3-2.23-4.57-3.26m-55.36-12.16,7.6-3L236.58,181Zm5.24-10.8-5.24,10.8,7.6-3Zm0,0-5.24,10.8,7.6-3Zm8.34,143.9a2.73,2.73,0,0,0-3.37,2.13,2.81,2.81,0,0,0,2.52,3.26,2.73,2.73,0,1,0,.86-5.39m1.39-6.78c-1.66-.31-2.82.4-3.05,1.66a2.41,2.41,0,0,0,2.18,2.57,2.22,2.22,0,0,0,2.79-1.69,2.24,2.24,0,0,0-1.92-2.54c-1.66-.31-2.82.4-3.05,1.66a2.41,2.41,0,0,0,2.18,2.57,2.22,2.22,0,0,0,2.79-1.69,2.24,2.24,0,0,0-1.92-2.54m-1.39,6.78a2.73,2.73,0,0,0-3.37,2.13,2.81,2.81,0,0,0,2.52,3.26,2.74,2.74,0,1,0-2.52-3.26,2.81,2.81,0,0,0,2.52,3.26,2.73,2.73,0,1,0,.86-5.39m1.39-6.78c-1.66-.31-2.82.4-3.05,1.66a2.41,2.41,0,0,0,2.18,2.57,2.22,2.22,0,0,0,2.79-1.69,2.24,2.24,0,0,0-1.92-2.54m14.58.68a2.8,2.8,0,0,0-2.77,3.14,2.83,2.83,0,0,0,3.37,2.89,2.67,2.67,0,0,0,2.5-3.11c-.15-2-1.19-3.1-3.1-2.93m18.53-.83c-.64-1.85-1.91-2.69-3.73-2.06a2.78,2.78,0,0,0-1.91,3.71,2.83,2.83,0,0,0,4,2,2.67,2.67,0,0,0,1.67-3.63c-.64-1.85-1.91-2.69-3.73-2.06a2.78,2.78,0,0,0-1.91,3.71,2.83,2.83,0,0,0,4,2,2.67,2.67,0,0,0,1.67-3.63m-18.53.83a2.8,2.8,0,0,0-2.77,3.14,2.83,2.83,0,0,0,3.37,2.89,2.67,2.67,0,0,0,2.5-3.11c-.15-2-1.19-3.1-3.1-2.93m-14.58-.68c-1.66-.31-2.82.4-3.05,1.66a2.41,2.41,0,0,0,2.18,2.57,2.22,2.22,0,0,0,2.79-1.69,2.24,2.24,0,0,0-1.92-2.54m-1.39,6.78a2.73,2.73,0,0,0-3.37,2.13,2.81,2.81,0,0,0,2.52,3.26,2.74,2.74,0,1,0-2.52-3.26,2.81,2.81,0,0,0,2.52,3.26,2.73,2.73,0,1,0,.86-5.39m1.39-6.78c-1.66-.31-2.82.4-3.05,1.66a2.41,2.41,0,0,0,2.18,2.57,2.22,2.22,0,0,0,2.79-1.69,2.24,2.24,0,0,0-1.92-2.54m14.58.68a2.8,2.8,0,0,0-2.77,3.14,2.83,2.83,0,0,0,3.37,2.89,2.67,2.67,0,0,0,2.5-3.11c-.15-2-1.19-3.1-3.1-2.93m18.53-.83c-.64-1.85-1.91-2.69-3.73-2.06a2.78,2.78,0,0,0-1.91,3.71,2.83,2.83,0,0,0,4,2,2.67,2.67,0,0,0,1.67-3.63c-.64-1.85-1.91-2.69-3.73-2.06a2.78,2.78,0,0,0-1.91,3.71,2.83,2.83,0,0,0,4,2,2.67,2.67,0,0,0,1.67-3.63m-18.53.83a2.8,2.8,0,0,0-2.77,3.14,2.83,2.83,0,0,0,3.37,2.89,2.67,2.67,0,0,0,2.5-3.11c-.15-2-1.19-3.1-3.1-2.93m-14.58-.68c-1.66-.31-2.82.4-3.05,1.66a2.41,2.41,0,0,0,2.18,2.57,2.22,2.22,0,0,0,2.79-1.69,2.24,2.24,0,0,0-1.92-2.54m-1.39,6.78a2.73,2.73,0,0,0-3.37,2.13,2.81,2.81,0,0,0,2.52,3.26,2.73,2.73,0,1,0,.86-5.39M256,312.72a56.71,56.71,0,0,1-49.86-29.64c2.55,14.37,7,27.28,13,37.66,9.47,16.52,22.54,26.67,36.88,26.67h.29c14.22-.11,27.19-10.24,36.62-26.67,5.95-10.38,10.4-23.29,12.95-37.66A56.66,56.66,0,0,1,256,312.72m-24.38,16.59-3.56-1.22,3.73-10.95a5.77,5.77,0,0,1-3.87-.33l-.69-.23.35-1,0,0,.71-2,.53.16a4.28,4.28,0,0,0,5.09-1.61l3.23,1.11Zm20-8.41a3.62,3.62,0,0,1-2.76,3,4.17,4.17,0,0,1,2.08,4.64c-.38,2.16-2.5,5.27-7.44,4.38s-6-4-5.56-6.36a4.39,4.39,0,0,1,3.6-3.85,3.49,3.49,0,0,1-1.68-3.73c.51-2.92,3.35-4.23,6.63-3.65,3.85.71,5.56,3.15,5.13,5.53m10.26,12.74c-2.92.26-5.21-1-6-3.22l2.63-1v0a2.69,2.69,0,0,0,3.21,1.46c1.49-.32,3-1.42,2.7-5l-.06,0a4.39,4.39,0,0,1-3.47,1.73c-3.63.3-5.94-2-6.17-4.88-.36-4.23,2.22-6.42,5.92-6.71,6.54-.54,7.18,5.86,7.38,8.28.55,6.65-2.71,9.06-6.12,9.36m18.4-3.61c-2.78,1-5.28.33-6.62-1.63l2.32-1.61v0a2.7,2.7,0,0,0,3.45.66c1.38-.69,2.54-2.11,1.38-5.56l-.05,0a4.31,4.31,0,0,1-2.93,2.55c-3.44,1.18-6.24-.49-7.18-3.21-1.37-4,.6-6.76,4.1-8,6.21-2.13,8.38,3.93,9.19,6.2,2.15,6.34-.42,9.49-3.66,10.6m-4.65-14.14a2.78,2.78,0,0,0-1.91,3.71,2.83,2.83,0,0,0,4,2,2.67,2.67,0,0,0,1.67-3.63c-.64-1.85-1.91-2.69-3.73-2.06m-14.8,2.89a2.8,2.8,0,0,0-2.77,3.14,2.83,2.83,0,0,0,3.37,2.89,2.67,2.67,0,0,0,2.5-3.11c-.15-2-1.19-3.1-3.1-2.93m-14.58-.68c-1.66-.31-2.82.4-3.05,1.66a2.41,2.41,0,0,0,2.18,2.57,2.22,2.22,0,0,0,2.79-1.69,2.24,2.24,0,0,0-1.92-2.54m-1.39,6.78a2.73,2.73,0,0,0-3.37,2.13,2.81,2.81,0,0,0,2.52,3.26,2.74,2.74,0,1,0-2.52-3.26,2.81,2.81,0,0,0,2.52,3.26,2.73,2.73,0,1,0,.86-5.39m1.39-6.78c-1.66-.31-2.82.4-3.05,1.66a2.41,2.41,0,0,0,2.18,2.57,2.22,2.22,0,0,0,2.79-1.69,2.24,2.24,0,0,0-1.92-2.54m14.58.68a2.8,2.8,0,0,0-2.77,3.14,2.83,2.83,0,0,0,3.37,2.89,2.67,2.67,0,0,0,2.5-3.11c-.15-2-1.19-3.1-3.1-2.93m18.53-.83c-.64-1.85-1.91-2.69-3.73-2.06a2.78,2.78,0,0,0-1.91,3.71,2.83,2.83,0,0,0,4,2,2.67,2.67,0,0,0,1.67-3.63c-.64-1.85-1.91-2.69-3.73-2.06a2.78,2.78,0,0,0-1.91,3.71,2.83,2.83,0,0,0,4,2,2.67,2.67,0,0,0,1.67-3.63m-18.53.83a2.8,2.8,0,0,0-2.77,3.14,2.83,2.83,0,0,0,3.37,2.89,2.67,2.67,0,0,0,2.5-3.11c-.15-2-1.19-3.1-3.1-2.93m-14.58-.68c-1.66-.31-2.82.4-3.05,1.66a2.41,2.41,0,0,0,2.18,2.57,2.22,2.22,0,0,0,2.79-1.69,2.24,2.24,0,0,0-1.92-2.54m-1.39,6.78a2.73,2.73,0,0,0-3.37,2.13,2.81,2.81,0,0,0,2.52,3.26,2.74,2.74,0,1,0-2.52-3.26,2.81,2.81,0,0,0,2.52,3.26,2.73,2.73,0,1,0,.86-5.39m1.39-6.78c-1.66-.31-2.82.4-3.05,1.66a2.41,2.41,0,0,0,2.18,2.57,2.22,2.22,0,0,0,2.79-1.69,2.24,2.24,0,0,0-1.92-2.54m14.58.68a2.8,2.8,0,0,0-2.77,3.14,2.83,2.83,0,0,0,3.37,2.89,2.67,2.67,0,0,0,2.5-3.11c-.15-2-1.19-3.1-3.1-2.93a2.8,2.8,0,0,0-2.77,3.14,2.83,2.83,0,0,0,3.37,2.89,2.67,2.67,0,0,0,2.5-3.11c-.15-2-1.19-3.1-3.1-2.93m-14.58-.68c-1.66-.31-2.82.4-3.05,1.66a2.41,2.41,0,0,0,2.18,2.57,2.22,2.22,0,0,0,2.79-1.69,2.24,2.24,0,0,0-1.92-2.54m-1.39,6.78a2.73,2.73,0,0,0-3.37,2.13,2.81,2.81,0,0,0,2.52,3.26,2.73,2.73,0,1,0,.86-5.39" transform="translate(-191.06 -151.57)" style="fill:#fff"/><path d="M300.29,183.45c-11.45-18.53-27.14-29.79-44.28-29.76s-32.83,11.24-44.29,29.76S193.15,227.64,193.17,256s7.11,54,18.54,72.54,27.14,29.77,44.29,29.75,32.83-11.25,44.28-29.75,18.56-44.17,18.55-72.54-7.1-54-18.55-72.57M256,352.43c-32.13-.16-57.24-43.5-57.28-96.41s25.16-96.26,57.28-96.44c32.13.18,57.24,43.53,57.27,96.44S288.14,352.26,256,352.43m2.92-91.16V249h15.45V206.24a52.38,52.38,0,0,1,14.17,7.89V249h20.06a54.83,54.83,0,0,1,.51,7,52.65,52.65,0,0,1-.27,5.26H288.56v36.59a52.74,52.74,0,0,1-14.18,7.91V261.29ZM249,203.39V308.61a53.64,53.64,0,0,1-9.92-2.27V205.67a52.73,52.73,0,0,1,9.92-2.28m-19.83,6.8v91.6a53.9,53.9,0,0,1-9.9-7.45v-76.7a55.34,55.34,0,0,1,9.9-7.46M202.9,256a53.06,53.06,0,0,1,6.48-25.5v50.95A52.86,52.86,0,0,1,202.9,256" transform="translate(-191.06 -151.57)" style="fill:#e71c29"/></svg>