<svg id="Layer_1" data-name="Layer 1" xmlns="http://www.w3.org/2000/svg" viewBox="0 0 89.97 109"><title>Olympiacos FC logo - Brandlogos.net</title><g id="Group_200" data-name="Group 200"><g id="Group_199" data-name="Group 199"><g id="Group_130" data-name="Group 130"><g id="Group_131" data-name="Group 131"><g id="olympiackos-official_logo" data-name="olympiackos-official logo"><g id="Layer_1-2" data-name="Layer 1"><path id="Path_62" data-name="Path 62" d="M429,393.51a45,45,0,1,1-45-45h0a45,45,0,0,1,45,45" transform="translate(-339.01 -329.5)" style="fill:#fff"/><path id="Path_63" data-name="Path 63" d="M354.44,364a41.81,41.81,0,1,0,59.13,0,41.81,41.81,0,0,0-59.13,0h0m.34,58.79a41.33,41.33,0,1,1,58.45,0,41.33,41.33,0,0,1-58.45,0h0" transform="translate(-339.01 -329.5)" style="fill:#dc0d15"/><path id="Path_64" data-name="Path 64" d="M384,353a40.49,40.49,0,1,0,40.48,40.49h0A40.49,40.49,0,0,0,384,353m0,72.31a31.82,31.82,0,1,1,31.81-31.83h0A31.82,31.82,0,0,1,384,425.35" transform="translate(-339.01 -329.5)" style="fill:#dc0d15"/><path id="Path_65" data-name="Path 65" d="M353,393.51a31,31,0,1,0,31-31,31,31,0,0,0-31,31h0m.48,0A30.5,30.5,0,1,1,384,424a30.5,30.5,0,0,1-30.5-30.5h0" transform="translate(-339.01 -329.5)" style="fill:#dc0d15"/><path id="Path_66" data-name="Path 66" d="M394.72,408.3c-.47,0-.49-.14-.49-.74v-1.79c0-.6,0-.65.54-.74l.15,0c.06,0,.05-.19,0-.2l-1,0c-.39,0-.81,0-1,0s-.08.16,0,.2l.15,0c.51.09.54.14.54.74v1.79c0,.6,0,.68-.54.74l-.24,0a.14.14,0,0,0,0,.19l0,0c.16,0,.68,0,1.06,0s.86,0,1.07,0a.13.13,0,0,0,0-.18l0,0-.28,0" transform="translate(-339.01 -329.5)" style="fill:#dc0d15"/><path id="Path_67" data-name="Path 67" d="M397.33,404.7a1.68,1.68,0,0,0-1.71,1.65s0,0,0,0a1.21,1.21,0,0,0,1.12,1.29h0a1.31,1.31,0,0,0,.85-.3c0-.07,0-.14-.05-.16a1,1,0,0,1-.42.07c-.58,0-.9-.72-.9-1.26a.94.94,0,0,1,.81-1h.08c.85,0,1,.91,1,1.49a3.66,3.66,0,0,1-1.39,2.91,4.34,4.34,0,0,1-1.23.65c-.06.05,0,.16,0,.19a4.16,4.16,0,0,0,2-1,3.71,3.71,0,0,0,1.29-2.72c0-1.07-.51-1.83-1.56-1.83" transform="translate(-339.01 -329.5)" style="fill:#dc0d15"/><path id="Path_68" data-name="Path 68" d="M402.95,407.58c-.21.42-.4.43-.87.43h-1c-.15,0-.17-.05-.16-.12l.68-.74c.52-.57.79-.9.79-1.43a1,1,0,0,0-1-1h-.11a1.65,1.65,0,0,0-1.4,1,.13.13,0,0,0,.14.13h0a1.06,1.06,0,0,1,.89-.6.74.74,0,0,1,.77.84,2.54,2.54,0,0,1-.9,1.54,7.38,7.38,0,0,1-.88.8.12.12,0,0,0,.05.15,6.43,6.43,0,0,1,.78,0h.86c.5,0,.87,0,1.19,0,.11-.25.25-.56.41-.89a.15.15,0,0,0-.19-.08h0" transform="translate(-339.01 -329.5)" style="fill:#dc0d15"/><path id="Path_69" data-name="Path 69" d="M405.89,404.68a1,1,0,0,1-.48.13l-.6.08c-.28,0-.46.07-.57.1a1.21,1.21,0,0,0-.38.57,2.16,2.16,0,0,0-.2.68c0,.31.32.48.68.75a1.52,1.52,0,0,1,.72,1.21,2.05,2.05,0,0,1-1.4,1.76.15.15,0,0,0,0,.21l0,0c.64-.19,1.93-1,1.93-2.2a1.91,1.91,0,0,0-1-1.58l-.41-.28c-.24-.16-.29-.26-.24-.42s.08-.21.34-.24l1.11-.16c.27,0,.44-.37.5-.55a.1.1,0,0,0-.09-.11h0" transform="translate(-339.01 -329.5)" style="fill:#dc0d15"/><path id="Path_70" data-name="Path 70" d="M367.92,405.54a52.64,52.64,0,0,1,.22-6c.08-.56.11-1.13.18-1.62a1.9,1.9,0,0,1,.2-.77,45.11,45.11,0,0,1,4.63.68,17.84,17.84,0,0,1,2.4-1.74c.56-.4,1.26-.88,1.74-1.26a.27.27,0,0,0,.1-.19,2.49,2.49,0,0,0-.19-.86,12.45,12.45,0,0,0-2.51.77c-1.3.45-2.64.71-3.86,1.07-.91.26-2,.64-2.8.77a2.39,2.39,0,0,1-1.73-1.25c-.37-.84.92-4,.69-5.4,1.25-1.26,1.85-2.08,2.4-2.32A8.64,8.64,0,0,0,368,392a22.33,22.33,0,0,0,4.83-.85,8.48,8.48,0,0,0,4.26-3.16c.6,3.29,1.78,4.36,2.63,7,1.81.07,3.15-5.05,3.18-5.05.76,3,1.8,3.6,2.2,5.5.72-.11,1.37-1.66,1.81-1.75a5.35,5.35,0,0,0,.22.77,9.81,9.81,0,0,0,5.44-2.68c-1.37,3.33,1.66,7.7,2,8,1.18-.5,2.64-2.63,2.9-2.9a7.4,7.4,0,0,0,2.4,3.18c.52.36,1,.59,1.5.93.54-.49.94-2.19,1.22-2.52,1.35,1.49,4.19,3.08,6.24,2.34,0,0-.34-5-3.57-6.85.46.05,1.12.23,1.56.32.73.14,4.11-.44,5.31-1.83-1-1.46-2.87-3.49-7.07-3.74,1-.34,3.43-3.31,3.62-4.93-.95-.87-2.53-1-3.69-1.24a4.9,4.9,0,0,0-1.95-4.35c-.09-.25-.25-3.91-4.93-5.08a9.78,9.78,0,0,0-4.06-4,10.64,10.64,0,0,0-8.38-.29c-6.67-1-8.27,2.06-8.72,2.52a7.05,7.05,0,0,0-5,2.35c-.63-.06-3.31-1.51-4.24-1.28-.38,1,.11,5.06.32,5.83-2.24.5-6-1-6.8-.22-.26,1.6,1.22,3.54,1.22,3.54-1.71-.18-5,0-6,.81-.22.21.38,1.54,1.24,2.4a7.11,7.11,0,0,0,4.43,1.86s-3.57,2.18-4.76,3.75a32,32,0,0,0,3.13,1c1.37.45,5.29-.86,5.35-.86-.22,1.06-.94,3.9-1,4.44,0,.82,1.64,2,2.21,2.31,0,1.83-.18,7.14-.18,7.14a10.1,10.1,0,0,0,.1,2.61c.78.15,3.77-.63,3.88-.55a13.2,13.2,0,0,1,.47,2.31,11.25,11.25,0,0,0,1.46.44c.15.47-.24,1.25,0,1.68.2.6,1.16.75,1.71,1,0,1.07,0,2.12,0,3.19.28.57,2.4,1.34,3,1.67,0,0,4.6-4.46,4.61-4.46a13.08,13.08,0,0,1,2.06,2.53,33.06,33.06,0,0,1-3.43,5.8c-.11.2.59.68.68.82a17.23,17.23,0,0,0,2.09-3,25.68,25.68,0,0,0,2-3.89c-.78-1-1.67-1.95-2.4-2.86a13.81,13.81,0,0,1,1.5-2.54,1,1,0,0,0-.78-.26,68.35,68.35,0,0,1-6.38,6.49,16.69,16.69,0,0,0-1.67-.76c-.12-.67.13-2.84-.1-3.21-.26-.68-1.17-.6-1.71-1,0,0-.14-.09-.18-.11.08-2.37,0-1.76-1.5-2.5a.65.65,0,0,1-.13-.47,10.54,10.54,0,0,0-.25-2.61,19.94,19.94,0,0,0-3.85,1.09c-.06,0-.1,0-.11,0l0-.1v-.22m39.41-21.23a2.93,2.93,0,0,1-1.07,1.25c-3.29,2.94-4.33,2.19-7.91,1.74,2.16-3.63,7.2-4.06,9-3m-12.56-7.05c1.15,3.36-.59,7.6-6.79,8.57,0,0,5.4-2.46,5.64-6a8.8,8.8,0,0,0-1.67-.39,6.13,6.13,0,0,1,2.82-2.23m-26.21-3.7a15,15,0,0,1,4.59,2.34,5.66,5.66,0,0,1,1.07,2.65,5.36,5.36,0,0,1-.12,3.57c-1.59-.17-4.62-3.13-5.14-5a9,9,0,0,1-.4-3.55m-10.73,9.6c.69-.87,5.14-.82,5.9-.34a16.33,16.33,0,0,0,2.67,1.56c-.34.59-2.24,1.22-3.56,1.19-1.84,0-4.17-1.06-5-2.4m6.76,6.64a6.15,6.15,0,0,1-1.84.34,8.07,8.07,0,0,1-3-.51,28.15,28.15,0,0,1,6-3.67,7.11,7.11,0,0,1,3,0c-.31,1-3.15,3.4-4.13,3.87m3.47-5.51c-1.86-.62-5.3-3.64-5.75-5.46a13.47,13.47,0,0,1,3.38.57,6.87,6.87,0,0,1,4.18,1.52,6.16,6.16,0,0,1,1.75,2.85,5,5,0,0,1-3.57.52m5.09,5.55c-1,.51-2.42.46-4,.85,1.41-6.47,6.3-6.83,7.46-6.83a6.57,6.57,0,0,1-3.5,6m3.18-8.75c-1.64-2.68-1.67-4.9-.29-8,1.69.23,5.16,5.52,1.94,9.56a4.3,4.3,0,0,1-1.64-1.6m3.87,12.31c-.38-1.64-1.46-2.82-1.87-4.56a3.93,3.93,0,0,1-.06-2.19,9.44,9.44,0,0,1,1.48-2.68c2.16.95,3,7.31.45,9.43m-.12-11.22c.22-2.88,3.43-5.57,7.86-6.06a7.34,7.34,0,0,1-4.87,6.06,14.26,14.26,0,0,1-3,0m5.32,11.91c-.34-1.54-2.61-5.27-2-7.41.18-.57.37-1.18.62-1.79,1,.43,2.21,2.49,2.46,3.29.74,2.4-.64,5.71-1.13,5.91m1-9.75a6.62,6.62,0,0,1-2.24-1c2.29-2.42,5.92-3.93,8-3.08a6.54,6.54,0,0,1-3.43,3.41,5.53,5.53,0,0,1-2.36.64m1.28,9.05c.24-1.74.68-4.41,1.9-5.22a9.26,9.26,0,0,1,3.29-1.12c.61,1.75-2,6.15-5.19,6.35m7.14,4.82c-.29-.62-.82-1.34-1.1-2a8.62,8.62,0,0,1,.33-5.58c.44-1,1.44-1.37,2-2.15,2.06,2-.51,9.37-1.25,9.7m-2.62-12.34c1.68-.85,2.56-2.54,4-3.57,2.49-1.71,4.65-1.33,5.12-.87a16.41,16.41,0,0,1-3.19,3.77c-1.93,1.13-5.44,1.24-6,.68m8.89,13.6a5.67,5.67,0,0,1-2.31-2c-1.48-2.19-.87-4.93.29-6.95a8.34,8.34,0,0,1,1.16,1.35c1.86,2.6,1.42,4.18.87,7.63m7,.71c-3.16-.12-5.11-3.08-5.12-6.32a4.65,4.65,0,0,1,2.49,1.31,10.8,10.8,0,0,1,2.63,5m-6.59-9.77c2-2.45,9.43.75,9.43,1.83a9.41,9.41,0,0,1-3.31.68c-2.43.22-5.78-2.06-6.12-2.52" transform="translate(-339.01 -329.5)" style="fill:#dc0d15"/><path id="Path_71" data-name="Path 71" d="M360.18,366.08a1.94,1.94,0,0,1,0,2.75l-.07.06a1.9,1.9,0,0,1-2.68.16l-.13-.13a2,2,0,0,1,0-2.76l.06-.06a1.91,1.91,0,0,1,2.69-.14l.12.12m.77-.75a2.93,2.93,0,0,0-4.14-.12l-.15.15a3,3,0,0,0-.24,4.21l.08.08a2.93,2.93,0,0,0,4.14.11l.15-.15a3,3,0,0,0,.25-4.2l-.09-.09" transform="translate(-339.01 -329.5)" style="fill:#fff"/><path id="Path_72" data-name="Path 72" d="M367,364.86l-3.34-2.25.73,4-1,.19-1.09-6,.25-.17,5,3.37Z" transform="translate(-339.01 -329.5)" style="fill:#fff"/><path id="Path_73" data-name="Path 73" d="M369.59,360.84l.94,2.06-.93.43-.94-2.07-3-2.09.63-.79,2.4,1.65.33-2.9,1,0Z" transform="translate(-339.01 -329.5)" style="fill:#fff"/><path id="Path_74" data-name="Path 74" d="M378.52,360.65l-1.24-3.76L376,359.5l-.18,0-2.36-1.75.57,3.92-1,.14-.84-5.79.37-.18,3,2.27,1.7-3.39h.4l1.84,5.56Z" transform="translate(-339.01 -329.5)" style="fill:#fff"/><path id="Path_75" data-name="Path 75" d="M384.71,360.1l-.06-4.68-2.49,0,.06,4.67h-1l-.07-5.65,4.52-.06.08,5.66Z" transform="translate(-339.01 -329.5)" style="fill:#fff"/><path id="Path_76" data-name="Path 76" d="M387.79,360.33l.74-5.61,1,.14-.75,5.61Z" transform="translate(-339.01 -329.5)" style="fill:#fff"/><path id="Path_77" data-name="Path 77" d="M394,359.78l-1.53-.42,1.24-1.52Zm1.35,2-.91-6-.29-.08-3.86,4.71.8.66.68-.86,2.38.65.16,1.1Z" transform="translate(-339.01 -329.5)" style="fill:#fff"/><path id="Path_78" data-name="Path 78" d="M399.56,364l-1.11-3.66-1.22,2.55-.92-.43,2.42-5.12.93.45-.83,1.73,2.56-.91,1.15.54-3.06,1.1,1.33,4.35Z" transform="translate(-339.01 -329.5)" style="fill:#fff"/><path id="Path_79" data-name="Path 79" d="M406.47,365.16a1.94,1.94,0,0,1-2.71.46l-.08-.06a1.91,1.91,0,0,1-.63-2.62l.1-.14a2,2,0,0,1,2.72-.45l.07.05a1.9,1.9,0,0,1,.62,2.61l-.1.15m.87.62a2.92,2.92,0,0,0-.62-4.09l-.18-.12a3,3,0,0,0-4.18.52l-.07.09a2.93,2.93,0,0,0,.63,4.09l.18.12a3,3,0,0,0,4.18-.52l.07-.09" transform="translate(-339.01 -329.5)" style="fill:#fff"/><path id="Path_80" data-name="Path 80" d="M406.22,368.65l.4-.39,2.79-.62.35-2.34.55-.55,2.54,2.57-.71.7-1.51-1.54-.3,2L408,369l1.6,1.61-.7.69Z" transform="translate(-339.01 -329.5)" style="fill:#fff"/><path id="Path_81" data-name="Path 81" d="M350.74,372.78l.28.15,1.59,2.74,2.62-.27.4.23-1.71,3.06-.47-.26,1.3-2.33-2.49.25-1.46-2.54-1.36,2.44L349,376Z" transform="translate(-339.01 -329.5)" style="fill:#fff"/><path id="Path_82" data-name="Path 82" d="M349.37,380.62l-2-.77.22-.6,2,.77,3.84-.84.15.62-3.47.76,2.1,2.87-.53.37Z" transform="translate(-339.01 -329.5)" style="fill:#fff"/><path id="Path_83" data-name="Path 83" d="M345.44,394.8l0-3.46,3.91,1.76Zm-.38.86,5.59-2.42V393l-5.53-2.52-.19.19,0,4.8Z" transform="translate(-339.01 -329.5)" style="fill:#fff"/><path id="Path_84" data-name="Path 84" d="M345.13,397.79l5.6-.82.41,2.8-.54.08-.32-2.18-1.6.24.3,2-.55.07-.29-2-2.37.35.37,2.49-.54.07Z" transform="translate(-339.01 -329.5)" style="fill:#fff"/><path id="Path_85" data-name="Path 85" d="M346.05,403l.31-.09,3.07.76,1.62-2.08.44-.13,1,3.35-.52.16-.78-2.55-1.54,2-2.85-.71.82,2.67-.52.15Z" transform="translate(-339.01 -329.5)" style="fill:#fff"/><path id="Path_86" data-name="Path 86" d="M350.37,413.64l4-2.53-3.7-.29-.14-.26,1.89-3.19-4.35,1.8-.25-.58,5.43-2.26.18.4-2.13,3.6,4.17.33.23.38-5,3.16Z" transform="translate(-339.01 -329.5)" style="fill:#fff"/><path id="Path_87" data-name="Path 87" d="M357.82,418.54a2.37,2.37,0,0,1-3.33-.29l-.06-.08a2.31,2.31,0,0,1,.06-3.27l.16-.14A2.35,2.35,0,0,1,358,415l.08.1a2.3,2.3,0,0,1,0,3.25l-.17.15m.4.49a2.92,2.92,0,0,0,.42-4.11l-.15-.17a3,3,0,0,0-4.18-.53l-.08.06a2.94,2.94,0,0,0-.41,4.13l.13.15a3,3,0,0,0,4.17.54l.09-.08" transform="translate(-339.01 -329.5)" style="fill:#fff"/><path id="Path_88" data-name="Path 88" d="M357.49,422.12l.2-.24,3-1,.23-2.62.29-.36,2.69,2.24-.35.42-2-1.71-.21,2.48-2.78,1,2.15,1.79-.35.41Z" transform="translate(-339.01 -329.5)" style="fill:#fff"/><path id="Path_89" data-name="Path 89" d="M372,427.55c-.43,1-1.66,1.24-2.9.83l1.51-3.51c1.22.64,1.82,1.69,1.37,2.68m.59.25c.53-1.25-.19-2.66-1.75-3.45l.11-.24-.6-.26-.11.25c-1.56-.55-3.15-.16-3.69,1.1s.19,2.65,1.74,3.43l-.17.4.59.26.18-.41c1.58.55,3.17.16,3.71-1.1m-4.08.33c-1.2-.63-1.8-1.68-1.37-2.67s1.66-1.25,2.88-.83Z" transform="translate(-339.01 -329.5)" style="fill:#fff"/><path id="Path_90" data-name="Path 90" d="M373.68,431l1.43-5.47.62.16-1.43,5.47Z" transform="translate(-339.01 -329.5)" style="fill:#fff"/><path id="Path_91" data-name="Path 91" d="M380.58,432.44l-1.23-4.76L376.92,432l-.53-.33,3-5.33.23,0,1.54,6Z" transform="translate(-339.01 -329.5)" style="fill:#fff"/><path id="Path_92" data-name="Path 92" d="M386.27,430.62l-2.32.08,1.07-2.78Zm1.43,1.59-2.6-5.62h-.23l-2.23,5.76.58.24.53-1.35,2.77-.09.6,1.3Z" transform="translate(-339.01 -329.5)" style="fill:#fff"/><path id="Path_93" data-name="Path 93" d="M400.94,428.68l-3.49-3.46.11,4.93-.64,0-.11-6.13.21-.09,4.37,4.33Z" transform="translate(-339.01 -329.5)" style="fill:#fff"/><path id="Path_94" data-name="Path 94" d="M406.4,424.55l1.11-.74.3.45-1.79,1.2-.43-.64a2.91,2.91,0,0,0,.29-2.89,2.48,2.48,0,0,0-4.1,2.73,2.91,2.91,0,0,0,2.78.85l.43.63-1.79,1.2-.3-.45,1.11-.74a2.74,2.74,0,0,1-1.71-5.16,2.94,2.94,0,0,1,4.11.59,3,3,0,0,1,0,3" transform="translate(-339.01 -329.5)" style="fill:#fff"/><path id="Path_95" data-name="Path 95" d="M419.06,410.22l-4.52-2.38-1.38,2.63,4.52,2.38-.3.56-5-2.63,2-3.76,5,2.64Z" transform="translate(-339.01 -329.5)" style="fill:#fff"/><path id="Path_96" data-name="Path 96" d="M420.47,406.86l-5.37-1.78.89-2.68.51.18-.68,2.08,1.54.5.63-1.92.52.18-.64,1.92,2.28.76.8-2.39.51.17Z" transform="translate(-339.01 -329.5)" style="fill:#fff"/><path id="Path_97" data-name="Path 97" d="M422,401.65l-5.54-1.15.13-.63,5.54,1.15Z" transform="translate(-339.01 -329.5)" style="fill:#fff"/><path id="Path_98" data-name="Path 98" d="M418.8,395a1.2,1.2,0,0,1,.94,1.35l-.08.91-2.13-.19.09-1a1,1,0,0,1,1-1.08h.2m.05-.63a1.62,1.62,0,0,0-1.77,1.65l-.14,1.64,5.64.5.05-.64-2.42-.22.08-.91a1.8,1.8,0,0,0-1.44-2" transform="translate(-339.01 -329.5)" style="fill:#fff"/><path id="Path_99" data-name="Path 99" d="M421.06,390.19l.12,2.31-2.8-1Zm1.56-1.46-5.56,2.73v.23l5.81,2.1.23-.58-1.37-.5-.15-2.77,1.29-.64Z" transform="translate(-339.01 -329.5)" style="fill:#fff"/><path id="Path_100" data-name="Path 100" d="M422.29,386.79l-5.57,1-.11-.63,5.57-1Z" transform="translate(-339.01 -329.5)" style="fill:#fff"/><path id="Path_101" data-name="Path 101" d="M419.71,379.42l-.44-1.26.51-.18.71,2-.72.26a2.91,2.91,0,0,0-2.74-1,2.48,2.48,0,0,0,1.62,4.65,2.91,2.91,0,0,0,1.51-2.48l.72-.26.71,2-.52.18-.44-1.27a2.88,2.88,0,1,1-3.82-3.48,3,3,0,0,1,2.88.77" transform="translate(-339.01 -329.5)" style="fill:#fff"/><path id="Path_102" data-name="Path 102" d="M418.72,375.83l-.28.16-3.17-.08-1.13,2.38-.4.22-1.73-3,.48-.27,1.32,2.32,1.07-2.25,2.94.07-1.38-2.43.47-.27Z" transform="translate(-339.01 -329.5)" style="fill:#fff"/><path id="Path_103" data-name="Path 103" d="M345.29,387.56h0l4.53-2.18-4-1.12.2-.6,5.55,1.58-5.21,2.54,4.43.86-.12.63-5.55-1.08Z" transform="translate(-339.01 -329.5)" style="fill:#fff"/><path id="Path_104" data-name="Path 104" d="M394.15,428.13a2.35,2.35,0,0,1-1.81,2.79l-.11,0a2.3,2.3,0,0,1-2.85-1.57q0-.11-.05-.22a2.36,2.36,0,0,1,1.82-2.79l.1,0a2.31,2.31,0,0,1,2.85,1.58q0,.1,0,.2m.62-.12a2.92,2.92,0,0,0-3.43-2.31l-.22.05a3,3,0,0,0-2.44,3.41l0,.13a3.09,3.09,0,0,0,6-1.28" transform="translate(-339.01 -329.5)" style="fill:#fff"/><path id="Path_105" data-name="Path 105" d="M393.48,428.56l-3.34.71-.12-.56,3.34-.7Z" transform="translate(-339.01 -329.5)" style="fill:#fff"/><path id="Path_106" data-name="Path 106" d="M412.7,419.67h0l-5-.7,2.67,3.14-.5.39-3.73-4.4,5.74.78-3.21-3.17.45-.45,4,4Z" transform="translate(-339.01 -329.5)" style="fill:#fff"/><path id="Path_107" data-name="Path 107" d="M348.89,339.74l3.14,3.88,4.66-1.79L354,346l3.14,3.88-4.82-1.29-2.72,4.18-.26-5-4.82-1.29,4.66-1.79Z" transform="translate(-339.01 -329.5)" style="fill:#d9c28c"/><path id="Path_108" data-name="Path 108" d="M372.36,329.5l2.11,4.52,4.95-.61-3.65,3.4,2.11,4.52-4.36-2.41-3.65,3.4,1-4.9L366.45,335l5-.6Z" transform="translate(-339.01 -329.5)" style="fill:#d9c28c"/><path id="Path_109" data-name="Path 109" d="M395.65,329.5l.95,4.9,5,.6-4.36,2.42,1,4.9-3.65-3.4-4.36,2.42,2.11-4.52-3.65-3.4,4.95.61Z" transform="translate(-339.01 -329.5)" style="fill:#d9c28c"/><path id="Path_110" data-name="Path 110" d="M419.11,339.74l-.26,5,4.66,1.79-4.82,1.29-.26,5-2.72-4.19-4.82,1.29L414,346l-2.72-4.18,4.66,1.79Z" transform="translate(-339.01 -329.5)" style="fill:#d9c28c"/></g></g></g></g></g></g></svg>