<svg xmlns="http://www.w3.org/2000/svg" viewBox="0 0 371.5 371.5"><title>rangers-fc-logo</title><path d="M697.75,512c0,102.58-83.17,185.75-185.75,185.75S326.25,614.58,326.25,512,409.42,326.25,512,326.25,697.75,409.42,697.75,512" transform="translate(-326.25 -326.25)" style="fill:#fff"/><path d="M511.94,342A170.08,170.08,0,1,0,682,512.1,170.08,170.08,0,0,0,511.94,342M689.87,512.11A177.93,177.93,0,0,1,511.93,690.06c-98.27,0-177.93-79.7-177.93-178a177.94,177.94,0,0,1,355.89,0" transform="translate(-326.25 -326.25)" style="fill:#0032a0"/><path d="M418,444.63c-8.57,10-16,27.09-17.37,36.15a1.1,1.1,0,0,0,.85,1.18c6.26,1.73,24,6.16,31.3,7.11a1.1,1.1,0,0,0,1.21-.84,101.08,101.08,0,0,1,11.62-29.77,1.1,1.1,0,0,0-.59-1.63c-15.16-5-23.25-10.66-25.64-12.33a1.05,1.05,0,0,0-1.39.1m94.09-18.71c33.32,0,57.17,21.8,61,25.63a1.38,1.38,0,0,0,1.38.34,97.91,97.91,0,0,0,9.78-3.57,1.37,1.37,0,0,0,.52-2.18,97.23,97.23,0,0,0-72.64-32.19h-.22a97.2,97.2,0,0,0-72.64,32.2,1.37,1.37,0,0,0,.52,2.18,98.2,98.2,0,0,0,9.79,3.57,1.38,1.38,0,0,0,1.37-.34c3.84-3.84,27.68-25.63,61-25.63Z" transform="translate(-326.25 -326.25)" style="fill:#0032a0"/><path d="M512.11,592.61c32.28,0,56-22.27,59.37-27.15,0,0,15.1-20.48,15.1-53.23s-15.1-53-15.1-53c-2.68-4.35-27.08-27.15-59.37-27.15h-.24c-32.28,0-56.69,22.78-59.37,27.15,0,0-15.1,20.28-15.1,53s15.1,53.23,15.1,53.23c3.34,4.86,27.08,27.15,59.37,27.15Z" transform="translate(-326.25 -326.25)" style="fill:#0032a0"/><path d="M512.11,407.78c47.64,0,74.39,30.61,79,36.28a1.39,1.39,0,0,0,1.71.35,76,76,0,0,0,7.66-4.56,1.35,1.35,0,0,0,.4-1.87l-.07-.09C594,429.92,565,396,512,396h0a113.69,113.69,0,0,0-88.79,41.87,1.36,1.36,0,0,0,.25,1.91l.08.06a76,76,0,0,0,7.66,4.56,1.38,1.38,0,0,0,1.71-.35c4.59-5.67,31.35-36.28,79-36.28Z" transform="translate(-326.25 -326.25)" style="fill:#0032a0"/><path d="M502.68,455.19s-1.89.18-2.23-2.44a15.35,15.35,0,0,1,7.44-.79s-4,1.06-5.21,3.23m-10.43,10.2c-8.33,2.67-9.62-3.29-7.74-5.18a3.7,3.7,0,0,0-2.61,5.28c3.2,5.93,14-2.81,17.16,2.18l3,1.8-2.56-.76c-1.81-.38-4.41-.92-6.67-.19l-1.45-1.09a7.75,7.75,0,0,0-.2,1.91h0c-3.25,2.86.52,5.85.52,5.85a3.1,3.1,0,0,1,.66-3,6,6,0,0,0,3.25,6.15s-2.35-5.15.94-5.7c1.25-.2,1.78.71,3.46,1.35,2.81,1,4.27-1.29,4.3,1.14,0,1.85-.46,2.62-2.07,4.41a15.31,15.31,0,0,1-4.76,3.23c-3.4,1.39-7.92,2.73-9.27-1.25,0,0-3.39,2.7-1,4.68,0,0-8.11-4.51-9.46-5.87s-.83-4.16-3.24-4.8c0,0-.12-3.86-1.87-5.51,0,0,1.66-8.13-4.51-8.52,0,0,1.53,2.18.4,3.47s-.4,2.26.55,4.39a6.65,6.65,0,0,1-2.43-3.25c-.47-1.89-.79-3.09-2.77-3.06,0,0-2.86-3.16-5.84.67,0,0,2.81-.7,2.88,1.71s2.81,5.28,4,6.16c0,0-5-2.21-7.86-.4,0,0-3.52-.51-3.89,3.63.19-.14,2.81-2.09,3.58-.84s1.33,1.6,3.31,1.76,4.76,1.87,5.12,4.19c0,0-5.63-1-6.09,1.87a3,3,0,0,1-3.28.17s1.14,5.56,12.9,2.42c0,0,8.24,2.38-.35,5.32,0,0,7.59.26,12.6,8.17,2.81-.31,17.55-10.78,17.55-10.78s-7.74,10.92-18.8,14.26c-13.58,4.1-20.26-4.37-23.47-1.17,0,0-4.87.25-5.05,4.2,0,0,2.77-2.25,3.57-.74.92,1.71,5.22,1.5,7.44,1.28,0,0-7.11,1.3-7.4,4.37,0,0-4,2.52-2.36,6,0,0,1.27-2.4,3.25-2.38s3.43-.21,6.15-2.84c0,0-5.13,7.28-1.87,10.92a3.63,3.63,0,0,1,3.25-3.12c2.45-.34,0-5.06,6.16-4.53a9.36,9.36,0,0,1-1,4.33s1.53,1.31-2,3c0,0,4.66,1.26,7.18-3.79.79-1.59,2.59-9.58,8.55-2.15,0,0,2-5.59,10.2-6.84,7.22-1.1,2.4,5.59-.7,7.26,0,0,16-1.37,17.88,24.31,0,0-1-10.78-8-16.73-5.13-4.39-14.39-6.15-24.09.94,0,0,5.86-.17,4,5.43-2,6,8.27,12.69,2.18,14.39-7.21,2-13.47-15.1-19.12-8.06,0,0,3.34-.69,5,2.07,0,0-5.83-3.49-8.5,2.87a5.93,5.93,0,0,1,7.4,1.6s-7.8-4-9.83,4.37c0,0,2.53-2.45,4.92-.62,1.28,1,3.67-1.15,6.12,1.19,0,0-7.8-1.84-8.29,6,0,0,2.87-3.07,7.43-.18,5.25,3.33,8.65-.57,8.65-.57l-1.53,4.4s6.86-3.6,11.35-2.29c5.77,1.69,8.51,1.39,9-3.53,2.81-1.62,4.84,2.28,4.84,2.28.66-5.54-3.56-6-4.72-6.67-1.87-1.15,4.35-3.16,4.35-3.16a22.24,22.24,0,0,1-4.25-1.84c-5.89-3.37-2.09-8.84,3.71-5.18a100.93,100.93,0,0,1,8.92,6.2c-1.87,1.56-3.59,6.43-1.62,10.5,0,0,1.62-6.05,4-1.2l0,0c2.5,4.27,6,7.43,14.46,11.82,4.7,2.45-3,9.42-11.64,4.74-7-3.77-8.85,2.67-8.85,2.67s3-2.18,5.11-.68c0,0-6.27-.34-6.86,7.08.24-.14,1.37-2.54,3.3-2,0,0,2.44-3.88,5.41-1.83,0,0-5.93-.71-6.59,9.46,0,0,2.1-3.6,4.61-3.34,0,0,1.56-5.3,5.87-2.52,0,0-5.29-2.41-5.52,8.39,0,0,2-3.69,4.22-3,2,.66,8.71,3,16-4.47h3.74s1-6.62,4.29-8.86a5.23,5.23,0,0,1,1.49-.65,4.09,4.09,0,0,1,1.29-.07,3.15,3.15,0,0,1,2.17,1.77s.86-3.48-2.3-7.61a7.94,7.94,0,0,0,4.2-6.78c-3.71,3.6-9.78,2.42-12.66,1.2s-6.47-4.17-2.76-9.28a23.81,23.81,0,0,0,4.57-15.8,13.14,13.14,0,0,1,1.56,8.18s6.15,5.52,17.11,3c5.79-1.42,8.38,6.35,3.95,9.41s-7.9-1.64-7.9-1.64c2.3,6,11.55,6.58,14.71.17,3-6.18-2-11.5-4-12.58,5.37-6.74,6.37-16-2.32-30.27l-1.2-2c-2.61-5.09,4-9.14,7.64-5.52s-.17,7.49-.17,7.49c5.68-3.25,4.06-12.48-2.33-14.27a9,9,0,0,0-10.26,3.74,59.86,59.86,0,0,1-4.35-8.74c-1.11-3.69,3.74-5.38,5.54-2.53,1.68,2.69-1.19,4.66-1.19,4.66,4-1.2,4.35-7.22.62-9.27a5.77,5.77,0,0,0-5.78,0,9.46,9.46,0,0,1,2.08-4.57c.94-1.14,1.73-1.49,2.5-1.1,2.61,1.36,4.92,1.7,6.85,1a6,6,0,0,0,3.33-3l.21-.49-.43.31a4.07,4.07,0,0,1-3.68.77,4.28,4.28,0,0,1-1.27-.62,8.46,8.46,0,0,0,6-3.74,12.91,12.91,0,0,0,1.56-7.58,21.11,21.11,0,0,0-.66-4.1l-.12-.44-.15.43c-1.45,4-3.87,4.89-6.67,5.89-.61.22-1.23.44-1.85.7a5.52,5.52,0,0,0,.85-4.88,5,5,0,0,0-1.65-2.64s.67,2.81-2.47,5.75a16.87,16.87,0,0,0-2.52,2.74,5.89,5.89,0,0,0-.86,4.85,24.27,24.27,0,0,0-2,1.48s-7.49,5.56-4.11,17.65c1.87,6.71,6,12.51,9.61,18.51a11.28,11.28,0,0,0-10.37,6.48c-3.5,6.9,2,15.86,9.55,14.67,0,0-7.8-1.36-6.13-8.36,1.42-5.89,10.34-6.92,12.9.4,4.52,12.92-10.9,21.33-23.11,5.21-6.89-9.09-19.71-16.8-13.11-25.71,4.5,6.93,13.11,3,13.11,3-9.74-5.45-4.52-15.81-4.52-15.81l4.42,3.46c4.19-12.94-2.94-20.2-2.81-20.21,4.06-.12,6.65,4.67,6.65,4.67C541.1,465.54,532.2,462,532.2,462c5.3-4.78,9.39.64,9.39.64.6-9.26-8.8-12.15-8.8-12.15l5-1.54c-8.94-10.33-19.9-3.21-19.9-3.21a5.61,5.61,0,0,0,.75-5.75s-1.28,3.47-8.25,4c-6.22.47-6.9,4.56-6.9,4.56a10.53,10.53,0,0,1,6.27-.44s-6.94,1.16-9.14,2.45c-2.57,1.5-1.79,2.23-4.89,2.93-3.4.77-5.75,1.44-6.1,1.75s-.57.86-.09,2.66l3.57-1.56s-1.29,3.4-4,2.64c0,0-1.49,3.61,1.07,4.19.19.6.62,1.66,1.31,1.78a1.83,1.83,0,0,1,.66-1.83,8.86,8.86,0,0,0,3.81-.71c2.74-1.05,9.45-3.63,7.11,4.37,0,0-2.22-4.12-10.76-1.38" transform="translate(-326.25 -326.25)" style="fill:red"/><path d="M529.56,605.34a8.23,8.23,0,0,0-1.33.35c0,.28.08.57.14.85l2.11,10.39c.06.28.12.56.2.84a11.55,11.55,0,0,0,1.78-.23c1.76-.35,5.86-1.64,4.73-7.18-1-4.84-4.22-5.62-7.64-5m-16.24,3c-.12.4-.24.77-.34,1l-2,5.72,4.81,0-2.14-5.68c-.1-.27-.23-.65-.36-1" transform="translate(-326.25 -326.25)" style="fill:#0032a0"/><path d="M552.21,614a9.9,9.9,0,0,0-.84-3l-1.19-2.7-7-5.44a14.85,14.85,0,0,0-3-1.93l4.31-1.89a5.88,5.88,0,0,0,1.67,1.82l3.05,2.37c.67.56,1.3,1.07,1.79,1.53,0-.51,0-1.09.05-1.8l.33-4.44a4.89,4.89,0,0,0-.21-2.41l3.43-1.51a19.42,19.42,0,0,0-.7,3.93l-.74,8.11,1.3,3a9.88,9.88,0,0,0,1.67,2.67Zm-19.47,5.86a51.63,51.63,0,0,1-5.49.79,7.71,7.71,0,0,0-.18-3.16L525,607.28a8.19,8.19,0,0,0-1.06-3c1-.19,3.4-1,5.64-1.44,5.67-1.15,10,1,11,6.35,1.19,5.84-1.83,9.45-7.87,10.68m-15,1.72a8.09,8.09,0,0,0-.54-2.9l-.43-1.19-6.55.07-.39,1.14a8.22,8.22,0,0,0-.51,3l-4.06,0a15.43,15.43,0,0,0,1.92-3.83l3.56-9.48c.75-2,.91-2.91.71-3.55l3.12,0a1,1,0,0,1,.94.62l5.12,12.33a24.07,24.07,0,0,0,1.92,3.78Zm-15.84-13.9a9.57,9.57,0,0,0-3.8-1.38l-3.1-.59c0,.2-.09.4-.13.6l-.62,3.37,4.89.94a.31.31,0,0,1,.24.36l-.48,2.52a11.21,11.21,0,0,0-3.52-1.1l-1.59-.31-.88,4.63c0,.2-.07.41-.1.61l2.79.53a12.08,12.08,0,0,0,4.83.11l-1.1,3.15-6.55-1.25-1.51-.29-2.81-.53a9.59,9.59,0,0,0,1-3l2-10.42a9.7,9.7,0,0,0,.13-3.12l10.9,2.06Zm-17.41-1a4.86,4.86,0,0,1-5.21,2.3c.34,3.72,1.61,7.58,3.18,8.22a3.12,3.12,0,0,1-3.12.29,5.49,5.49,0,0,1-2.66-3.35,21.78,21.78,0,0,1-1-7.62.31.31,0,0,1,.34-.28l.09,0c1.67.69,3.84,1.1,4.79-1,.87-1.91,0-3.47-1.83-4.37a5.71,5.71,0,0,0-1.61-.52c-.14.26-.27.51-.39.78l-4.37,9.67a9.7,9.7,0,0,0-.87,3l-4-1.8a9.81,9.81,0,0,0,1.69-2.65l4.37-9.67a9.53,9.53,0,0,0,.85-3c1.87.75,3.19,1.11,5,1.93,3.39,1.53,6.55,4.3,4.68,8m114.69-22.55c-9.36-5.85-17.1-8.51-24.45-11a2.32,2.32,0,0,0-2.37.55c-5,5-28,25-60.21,25h-.27c-32.25,0-55.23-20-60.2-25a2.33,2.33,0,0,0-2.38-.55c-7.35,2.45-15.07,5.1-24.45,11a2.35,2.35,0,0,0-.76,3.23l.14.2c6.78,8.71,36.51,40.57,87.74,40.57H512c51.25,0,81-31.83,87.74-40.57a2.35,2.35,0,0,0-.42-3.29l-.2-.14M412.24,430.66A47.87,47.87,0,0,1,396,429.1a.66.66,0,0,1-.33-1c2.15-3.2,4-7.49.11-10.47-3.55-2.69-7.22-1.74-9.88,1.78a14.75,14.75,0,0,0-1.83,3.12c.46.42,1,.82,1.48,1.19q9,6.81,18,13.64a19.82,19.82,0,0,0,5.84,3.2q-2.74,3.78-5.39,7.62a21.84,21.84,0,0,0-4.71-4.8l-18-13.65a20.85,20.85,0,0,0-5.78-3.16c2.32-3.64,3.62-6.26,6.14-9.69,4.66-6.37,12.13-11.51,18.9-5.86,3.87,3.19,3.65,8.36,2.18,11.94,7.93,1.12,16.67.54,18.87-2.47a6,6,0,0,1-1,6.31c-1.59,2-4.52,3.52-8.36,3.89m26-36.64-10.49-7.68c-.48-.35-1.15-.89-1.82-1.43.25.83.45,1.68.59,2.27q1.59,6.27,3.22,12.59,4.15-3,8.5-5.75m-11.89,15.73q-2.56-10.86-5-21.53c-1.06-4.55-1.82-6.33-2.92-7.24q2.71-2,5.51-3.77a2.18,2.18,0,0,1,2.45.07q11.84,8.11,23.88,16.59a64.23,64.23,0,0,0,8.11,4.88q-4.62,2.29-9,4.88A18.41,18.41,0,0,0,445,399l-2.18-1.61q-6,3.65-11.65,7.87l.68,2.5a17.84,17.84,0,0,0,2.55,6q-3.43,2.63-6.7,5.47a37.29,37.29,0,0,0-1.32-9.46m38.38-20.85c-1.83-7.3-3.74-14.7-5.62-22a18.41,18.41,0,0,0-2.61-6q3.37-1.27,6.79-2.4a2.12,2.12,0,0,1,1.87.26c6.51,5.15,13.11,10.67,19.63,16.36.87.71,2.61,2.2,3.66,3.26-.31-.94-.77-2.63-1-3.48-1.16-4.95-2.26-9.74-3.43-14.67a21.1,21.1,0,0,0-2.55-6.24q3.78-.77,7.6-1.36a19,19,0,0,0,.53,6.62c1.72,7.38,3.36,14.6,5,22a21,21,0,0,0,2.44,6.41q-3.51.5-7,1.17a1.34,1.34,0,0,1-1.13-.31c-6.86-6.18-13.84-12.14-20.71-17.7a34.17,34.17,0,0,1-3.2-2.62,32.25,32.25,0,0,1,1.17,3.74c1.25,5,2.57,10.12,3.8,15.13a21.11,21.11,0,0,0,2.47,6.2q-3.58,1.13-7.08,2.43a20.86,20.86,0,0,0-.68-6.81m40.93-20.94c1.48-12.09,11.69-18.13,21.91-16.77,5.3.69,9,2.81,10.59,4.28q-.43,3.61-.88,7.21a18.41,18.41,0,0,0-11.13-6.14c-8.34-1.05-12.05,4.85-12.79,10.9-1,8.31,3.59,14.12,10.81,15a16.1,16.1,0,0,0,6.54-.62q.49-4,1-8l-1.07-.15a21.41,21.41,0,0,0-7.18,0q.31-2.72.66-5.44a.62.62,0,0,1,.66-.59h0q7,.9,14.08,2-1.22,9.95-2.43,19.9-1.87-1.06-3.78-2.11a2.12,2.12,0,0,0-1.48-.16,28.41,28.41,0,0,1-9.2.44c-9.11-1.14-17.79-7.67-16.32-19.71m46.07,18.34,8.6-20.91A20.91,20.91,0,0,0,562,359a156.79,156.79,0,0,1,21.87,8.94l-2.53,6.16a19,19,0,0,0-7.2-4.88q-3.09-1.34-6.22-2.54a11.43,11.43,0,0,0-.55,1.21l-2.79,6.78q5,1.89,9.79,4.13a.67.67,0,0,1,.37.85l-2.08,5.07c-1.42-1.27-3.07-2.39-6.86-4-1.06-.43-2.13-.85-3.2-1.26l-3.82,9.29-.51,1.25q2.85,1.09,5.66,2.29a30.56,30.56,0,0,0,9.85,2.73l-3.63,6a156.9,156.9,0,0,0-21.79-8.87,22.51,22.51,0,0,0,3.41-5.88m45.2,29a47.86,47.86,0,0,1,1.87-16.23.66.66,0,0,1,1-.31c3.15,2.21,7.41,4.18,10.46.31,2.76-3.5,1.87-7.18-1.59-9.91a14.77,14.77,0,0,0-3.08-1.89c-.42.45-.83,1-1.21,1.46l-14,17.75a19.74,19.74,0,0,0-3.32,5.78q-3.72-2.81-7.51-5.52a21.92,21.92,0,0,0,4.89-4.63l14-17.74a21.12,21.12,0,0,0,3.29-5.72c3.59,2.39,6.18,3.74,9.57,6.33,6.28,4.78,11.28,12.36,5.5,19-3.26,3.81-8.43,3.48-12,2-1.27,7.9-.86,16.66,2.11,18.92a6,6,0,0,1-6.29-1.13c-1.92-1.62-3.43-4.58-3.74-8.43m13.66,15.27,6.24-4.32a18.38,18.38,0,0,0,2.43,12.41c1.9,2.74,4.26,3.1,6.29,1.69,6.06-4.21-4.87-16.46,4.68-23.09,5.65-3.91,12.13-.86,16.3,5.16a19.83,19.83,0,0,1,3.39,7.94L644,434.48c.22-2.65-.18-6.92-2.29-10-1.78-2.57-4.06-3.35-6.05-2-5.52,3.82,5.44,16.12-4.68,23.13-5.73,4-12.12,1.6-16.49-4.72a21.45,21.45,0,0,1-3.9-10.39m-245.92,122,18.05-6a16.82,16.82,0,0,0,5-2.55l6.32,18.91-5.32,1.78a17.58,17.58,0,0,0-1.17-7.18l-1.8-5.4-1.07.36-5.85,2,2.83,8.48a.54.54,0,0,1-.31.69h0L377,565.07a20.88,20.88,0,0,0-1.4-6.5l-.91-2.74-8,2.68a16.84,16.84,0,0,0-5.06,2.55l-2.5-7.49a16.83,16.83,0,0,0,5.58-1m30.08,43.17c5.65-3.49,7.64-9.73,4.45-14.91-3-4.85-8.67-5.67-13.7-2.56-5.54,3.43-7.65,9.63-4.37,15,2.92,4.74,8.69,5.54,13.62,2.5m-13.56-22.32c7.94-4.89,17.26-2.52,22.37,5.78,4.94,8,3.12,16.68-4.59,21.43-7.94,4.9-17.09,2.62-22.25-5.75-4.91-8-3.25-16.7,4.47-21.46m39.21,49.79c4.57-4.83,4.87-11.37.45-15.55-4.14-3.92-9.83-3.24-13.9,1.06-4.47,4.73-4.9,11.28-.36,15.58,4.06,3.82,9.83,3.12,13.8-1.09m-18.85-18.07c6.4-6.77,16-6.89,23.09-.18,6.83,6.46,7.32,15.29,1.1,21.89-6.4,6.77-15.84,6.94-23,.18-6.8-6.44-7.45-15.29-1.22-21.89m31,37.15,9.59-16.44c.19-.33.33-.66.53-1l-2-1.15a17.94,17.94,0,0,0-6.78-2.61l2.82-4.85L458.49,629l-2.83,4.85A18.84,18.84,0,0,0,450,629.2l-2-1.15a9,9,0,0,0-.61.94l-9.59,16.44a16.74,16.74,0,0,0-2.12,5.26l-6.79-4a18.21,18.21,0,0,0,3.54-4.43m42.58,14.48c1.11-3.72-1.85-6.18-6-7.56a.31.31,0,0,1-.25-.36l0-.07.85-2.85a.33.33,0,0,1,.41-.24h0c3.18.81,5.65-.39,6.55-3.36.8-2.69-.85-5-4.16-6a5.18,5.18,0,0,0-1.83-.23l-7,23.33a14.69,14.69,0,0,0,2.63,1.14c3.88,1.2,7.61,0,8.76-3.83m-19,3.53a14.39,14.39,0,0,0,2.4-5.18l5.36-18a15.16,15.16,0,0,0,.82-5.62c3.51.91,5.81,1.2,8.17,1.9,6.37,1.9,11.67,5,9.87,11-1,3.47-4.16,4.71-7.14,4.45,3.21,1.32,7.15,4.88,5.75,9.55-2.37,7.94-10.62,6.78-15.13,5.44a101.89,101.89,0,0,1-10.1-3.6m50-2L503,647.86c-.14-.48-.31-1.18-.48-1.87-.26.68-.56,1.35-.77,1.81l-4.27,10Zm-15.95,3.91,7.62-16.51c1.61-3.54,2-5.11,1.74-6.29l5.62.36a1.82,1.82,0,0,1,1.61,1.27l7.55,22.75a45.22,45.22,0,0,0,3,7l-8.61-.55a15.31,15.31,0,0,0-.57-5.27l-.64-2.16-11.8-.75-.82,2a14.61,14.61,0,0,0-1.33,5.23l-7.25-.44a27,27,0,0,0,3.93-6.63m36.08,1.87-2.81-18.83a18,18,0,0,0-1.63-5.39l7.77-1.15a16.91,16.91,0,0,0,0,5.62l2.81,18.83a10.15,10.15,0,0,0,.2,1.1l4.49-.66a22.55,22.55,0,0,0,8.28-2.67l0,6-19.09,2.84a18.34,18.34,0,0,0,0-5.67m29.38-5.69-6.43-17.91a18.13,18.13,0,0,0-2.65-5L554,632.9a17.3,17.3,0,0,0,1.11,5.52l6.43,17.91a9.14,9.14,0,0,0,.42,1l4.26-1.53a22,22,0,0,0,7.6-4.24l1.15,5.87L556.77,664a18,18,0,0,0-1.12-5.56m27.17-20.81c-5.48-8-3.68-17.07,4.43-22.64a16.31,16.31,0,0,1,7.7-3l3.47,5a14.49,14.49,0,0,0-9.36,2.25c-4.52,3.12-5.13,8.77-1.6,13.89,3.74,5.44,9.86,7.09,15,3.57,3-2.08,4.32-4.91,4.93-8.37l3.5,5.09a19.76,19.76,0,0,1-6.86,7.76c-7.89,5.43-16.05,3.93-21.19-3.54m34.42-14.93-13.85-13.07a18.07,18.07,0,0,0-4.62-3.22l5.39-5.72a16.89,16.89,0,0,0,3.49,4.42l13.85,13.05a10.58,10.58,0,0,0,.84.74l3.12-3.3a22.34,22.34,0,0,0,4.86-7.23l3.68,4.72-13.23,14a18.12,18.12,0,0,0-3.54-4.43m12.36-24.2-10.23-6.27a16.89,16.89,0,0,0-5.17-2.21l4.1-6.7a18.07,18.07,0,0,0,4.32,3.61l9.9,6.07c3.68,2.26,8.14,4.23,11.21-.78s-.4-8.59-4.08-10.85l-9.89-6.07a17.14,17.14,0,0,0-5.17-2.22l3.36-5.48a18,18,0,0,0,4.34,3.57l10.22,6.28c5.56,3.4,10,8.71,4.75,17.28-5,8.17-11.57,7.49-17.64,3.76m26.14-46.2c-3.69-1.2-6.22,1.7-7.7,5.85a.31.31,0,0,1-.37.25l-.07,0-2.83-.94a.34.34,0,0,1-.22-.42h0c.89-3.16-.25-5.67-3.21-6.62-2.67-.86-5,.74-6.06,4a5.19,5.19,0,0,0-.27,1.82l23.16,7.49a15.14,15.14,0,0,0,1.21-2.6c1.29-3.85.19-7.61-3.63-8.84m3.09,19.05a14.72,14.72,0,0,0-5.13-2.52L635.87,563a15.28,15.28,0,0,0-5.59-1c1-3.49,1.33-5.78,2.09-8.11,2.05-6.33,5.24-11.55,11.23-9.61,3.43,1.11,4.61,4.26,4.28,7.24,1.39-3.18,5-7,9.67-5.53,7.88,2.55,6.53,10.78,5.08,15.26a102,102,0,0,1-3.83,10m-240.86,8.59c-8.57-10-16-27.09-17.36-36.15a1.1,1.1,0,0,1,.85-1.19c6.26-1.73,24-6.16,31.3-7.11a1.09,1.09,0,0,1,1.21.84,101,101,0,0,0,11.62,29.77,1.1,1.1,0,0,1-.6,1.63c-15.16,5-23.24,10.67-25.64,12.33a1.06,1.06,0,0,1-1.39-.1m14.4-83.36a1.28,1.28,0,0,0-1.07-1.44c-11.32-1.91-22.93-5-31.2-7.11a1.2,1.2,0,0,0-1.43.74,54.42,54.42,0,0,0-1.84,9.14c-1.69,12.94-.83,29.48,1.82,37.93a1.2,1.2,0,0,0,1.43.74c8.27-2.11,19.88-5.2,31.2-7.11a1.28,1.28,0,0,0,1.07-1.44,124,124,0,0,1-1-15.72h0a124.1,124.1,0,0,1,1-15.72M606,444.63c8.57,10,16,27.09,17.36,36.15a1.1,1.1,0,0,1-.85,1.19c-6.24,1.73-24,6.16-31.3,7.11a1.1,1.1,0,0,1-1.21-.84,101,101,0,0,0-11.62-29.77,1.1,1.1,0,0,1,.59-1.63c15.16-5,23.24-10.67,25.64-12.33a1.06,1.06,0,0,1,1.39.1m0,135.28c8.57-10,16-27.09,17.37-36.15a1.1,1.1,0,0,0-.85-1.19c-6.26-1.73-24-6.16-31.3-7.11a1.09,1.09,0,0,0-1.21.84,101.08,101.08,0,0,1-11.62,29.77,1.1,1.1,0,0,0,.59,1.63c15.16,5,23.24,10.67,25.64,12.33a1.05,1.05,0,0,0,1.39-.1m-14.39-83.36a1.28,1.28,0,0,1,1.07-1.44c11.32-1.91,22.93-5,31.2-7.11a1.19,1.19,0,0,1,1.43.74,54.11,54.11,0,0,1,1.84,9.14c1.69,12.94.83,29.48-1.82,37.93a1.19,1.19,0,0,1-1.43.74c-8.27-2.11-19.88-5.2-31.2-7.11A1.28,1.28,0,0,1,591.6,528a123.92,123.92,0,0,0,1-15.72h0a124.1,124.1,0,0,0-1-15.72" transform="translate(-326.25 -326.25)" style="fill:#0032a0"/></svg>