<svg xmlns="http://www.w3.org/2000/svg" viewBox="0 0 281.82 372"><title>sporting cp logo</title><path d="M512,698c43.21-14.65,78.91-39.08,103.71-71,23.67-30.81,37.2-68.76,37.2-112.73,0-21-1.13-39.45-4.51-56.74a217.45,217.45,0,0,0-13.53-46.22c-16.53-.75-27.81-2.25-36.82-4.51-9.78-2.63-18.41-7.14-27.43-11.65C556.33,388,542.43,380.86,512,380.86s-44.34,7.14-58.62,14.28c-9,4.51-17.66,9-27.43,11.65-9,2.63-20.29,4.13-36.82,4.51a250.81,250.81,0,0,0-13.52,46.22c-3.38,17.28-4.51,35.7-4.51,56.74,0,44,13.53,82.29,37.2,112.73,24.8,31.94,60.5,56,103.71,71Z" transform="translate(-371.09 -326)" style="fill:#fff"/><path d="M438,441.36a3.25,3.25,0,0,0,1.13-2.25v-1.88a2.61,2.61,0,0,0-2.63-2.25,2.82,2.82,0,0,0-1.88.38l-2.25,1.13c-.75.38-1.5,1.13-2.63,1.88l-1.5,1.13,4.88,6,2.25-1.88A8.15,8.15,0,0,0,438,441.36Z" transform="translate(-371.09 -326)" style="fill:#008863"/><path d="M456.39,625.48a6.6,6.6,0,0,0-1.88-1.5,5.34,5.34,0,0,0-2.25-.75,2.4,2.4,0,0,0-2.25,0,3.27,3.27,0,0,0-2.25,1.13,9.16,9.16,0,0,0-3,5.26v2.63a8.21,8.21,0,0,0,1.13,1.88,6.6,6.6,0,0,0,1.88,1.5,5.33,5.33,0,0,0,2.25.75h2.25l2.25-1.13a11.8,11.8,0,0,0,1.88-2.25c.75-1.13.75-2.26,1.13-3v-2.63C457.14,626.61,456.76,626.23,456.39,625.48Z" transform="translate(-371.09 -326)" style="fill:#008863"/><path d="M434.22,612l-1.88-1.88-1.13-1.13-4.13,4.51,1.88,1.88c.75.75,1.5,1.13,2.25,1.88.75.38,1.13.75,1.88.75h1.5c.38,0,.75-.38,1.13-.75V615a2.24,2.24,0,0,0-.38-1.5A5.19,5.19,0,0,0,434.22,612Z" transform="translate(-371.09 -326)" style="fill:#008863"/><path d="M496.22,419.56c1.13,0,2.25-.38,3-.38a5.34,5.34,0,0,0,2.25-.75l1.13-1.13a2.82,2.82,0,0,0,.38-1.88,2,2,0,0,0-.75-1.5,2.21,2.21,0,0,0-1.88-.75c-.75,0-1.13-.38-1.88,0h-2.63l-3.38.38.75,6.76Z" transform="translate(-371.09 -326)" style="fill:#008863"/><path d="M458.64,434.22a6.74,6.74,0,0,0,2.63,1.88,7.33,7.33,0,0,0,3,.38,7.08,7.08,0,0,0,3-.75,6.74,6.74,0,0,0,2.63-1.88,10,10,0,0,0,1.88-2.25,11,11,0,0,0,.75-3.38,16.54,16.54,0,0,0-.75-3.76c-.75-1.5-1.13-2.63-2.25-3.38a11.42,11.42,0,0,0-2.63-1.88,7.33,7.33,0,0,0-3-.38,7.08,7.08,0,0,0-3,.75c-.75.38-1.88,1.13-2.63,1.5-.75.75-1.13,1.5-1.88,2.25a7.08,7.08,0,0,0-.75,3,13.35,13.35,0,0,0,.75,3.76A10,10,0,0,0,458.64,434.22Z" transform="translate(-371.09 -326)" style="fill:#008863"/><path d="M479.68,633.75c-.38-.38-.75-.38-1.5-.75s-1.13-.38-1.88-.75l-2.63-.75-1.88,5.26,2.25.75a7,7,0,0,0,2.63.75h1.88c.75,0,.75-.38,1.13-.75s.75-.75.75-1.13v-1.5C480.44,634.5,480.06,634.12,479.68,633.75Z" transform="translate(-371.09 -326)" style="fill:#008863"/><polygon points="211.55 299.48 205.16 294.59 206.29 302.49 211.55 299.48" style="fill:#008863"/><path d="M647.27,528.16c.38-4.13.38-8.64.38-12.77v-5.64H589c-.38-4.13-1.5-8.27-2.25-12.4-.38-2.26-.75-4.14-1.13-6.39h61.62c-1.88-28.56-7.52-52.61-17.28-76.65-33.07-.75-44.34-6.39-57.49-13.15-15.41-7.52-28.56-15.78-60.87-15.78-32.69,0-45.84,8.27-60.87,15.78-13.53,6.76-24.42,12.4-57.49,13.15-10.15,24-15.41,48.1-17.28,76.65h62c-.38,2.25-.75,4.13-1.13,6.39-.75,4.13-1.13,8.27-1.5,12.4H375.6v5.64c0,4.13,0,8.64.38,12.77h59a102.74,102.74,0,0,0,1.88,18.79H378.23a145.54,145.54,0,0,0,4.13,18.41h60.12a91,91,0,0,0,10.15,18.79H388.75c20.67,51.48,65,89.05,124,109,58.62-19.92,103.33-57.49,124-109H572.87A82.13,82.13,0,0,0,583,565.35h60.12c1.5-6,3-12.4,4.13-18.41H588.65a99.45,99.45,0,0,0,1.88-18.79ZM602.56,444c3.76.75,7.14,3.76,10.52,7.89,1.13,1.5,2.26,3.38,3.38,4.88a55,55,0,0,1,2.26,7.14l-4.89,3.76a31.72,31.72,0,0,0-2.25-9,13.18,13.18,0,0,0-1.88-3,14.17,14.17,0,0,0-6-4.51,5.21,5.21,0,0,0-3.38,0,13.35,13.35,0,0,0-3.38,1.5,7.21,7.21,0,0,0-3.37,6c0,3.38,3.37,8.64,5.64,11.27l3.76-2.63-2.63-3.76,3.76-2.63,6.76,10.52-9,6.76c-1.13-.75-3.76-3.38-5.64-4.88a19.77,19.77,0,0,1-4.51-5.26c-3.38-4.13-4.88-8.27-4.88-12a11.18,11.18,0,0,1,5.25-9.39C595.42,443.61,598.8,442.86,602.56,444Zm-30.44-23.3,6.76,21,8.64-13.15,6.39,3.76L580,454.13l-5.64-3.76L568,429.71l-6.39,13.9L555.21,441l10.52-23.3Zm-16.53-6.76-7.14,24.42-7.14-1.88L548.45,412Zm-41.33-7.52,27.43,3-.75,5.26-10.15-1.13-2.26,19.92-7.52-.75,2.26-19.92-10.15-1.13Zm-15.78,1.5c1.88,0,3.38-.38,4.88,0a11.12,11.12,0,0,1,3.76.75,8.18,8.18,0,0,1,3,1.88,4.59,4.59,0,0,1,1.13,3.38,8,8,0,0,1-1.13,4.51,9.58,9.58,0,0,1-4.13,3.38c4.51,2.63,6.76,6.39,9,10.52l-8.64.38c-1.5-3-4.51-6-7.89-8.64l-4.13.38.75,9.39-7.52.75L485.32,409ZM449.25,423.7c1.88-3.38,4.88-6,9.77-7.89,4.51-1.88,9-2.63,12.4-1.5a11.55,11.55,0,0,1,7.89,7.14c1.5,3.76,1.5,7.14-.38,10.52s-4.88,6-9.77,7.89-9,2.63-12.4,1.5c-3.76-1.13-6-3.38-7.89-7.14A10.51,10.51,0,0,1,449.25,423.7Zm-23.67,48.47a32.69,32.69,0,0,1-4.51,5.26,24.31,24.31,0,0,1-3.38,3l-5.26-3.38a41.28,41.28,0,0,0,5.26-3.38,14.42,14.42,0,0,0,4.13-4.13,5.19,5.19,0,0,0,1.13-1.5c.38-.75.75-1.13.75-1.88a2.84,2.84,0,0,0,.38-1.5c0-.38-.38-.75-.75-1.13a1.68,1.68,0,0,0-1.88,0,7.86,7.86,0,0,0-2.25,1.5l-2.63,2.63-2.63,2.63a13.82,13.82,0,0,1-5.64,3,6.3,6.3,0,0,1-4.51-1.13c-1.88-1.5-2.63-3.76-2.63-6.39.38-3,1.88-6,4.13-9.39a23.59,23.59,0,0,1,4.13-4.51,24.31,24.31,0,0,1,3.38-3l3.76,3.76a25.66,25.66,0,0,0-7.52,6.76c-.38.38-.75,1.13-1.13,1.5-.38.75-.75,1.13-.75,1.88a2.84,2.84,0,0,0-.38,1.5c0,.38.38.75.75,1.13a1.68,1.68,0,0,0,1.88,0,30,30,0,0,0,3-2.25l2.25-2.25a16.34,16.34,0,0,1,2.63-2.25c1.88-1.5,3.76-2.63,5.26-2.63a6.78,6.78,0,0,1,4.51,1.13,7.11,7.11,0,0,1,2.63,6.76C429.71,465,428.21,468.41,425.58,472.17Zm10.15-11.65L419.56,441l10.15-8.64c1.5-1.13,3-2.25,4.13-3a15.7,15.7,0,0,1,3.76-1.5,6.37,6.37,0,0,1,3.76,0,5.84,5.84,0,0,1,3,2.25,7.55,7.55,0,0,1,1.5,3,5.21,5.21,0,0,1,0,3.38A11.57,11.57,0,0,1,444,441c-.75,1.5-2.25,2.63-3.76,4.13l-4.13,3.38,5.26,6.39ZM435,622.85a13.35,13.35,0,0,1-3.76-.75,11.39,11.39,0,0,1-3.76-2.63l-3-3.38L419.94,621l-4.51-4.13,13.9-14.65,7.89,7.14c1.13,1.13,1.88,2.25,2.63,3a8.55,8.55,0,0,1,1.5,6,3.8,3.8,0,0,1-1.5,2.63,7.86,7.86,0,0,1-2.25,1.5C436.85,622.47,436.1,622.85,435,622.85Zm20.29,18.41c-3,.38-6-.38-9.77-2.25a15.3,15.3,0,0,1-6.76-7.14,9.25,9.25,0,0,1,.75-8.26,8.27,8.27,0,0,1,6.76-4.89c3-.38,6,.38,9.39,2.26a15.3,15.3,0,0,1,6.76,7.14c1.13,2.63.75,5.64-.75,8.65A8.27,8.27,0,0,1,455.26,641.26Zm31.56-3.38a3.9,3.9,0,0,1-2.25,3,7.57,7.57,0,0,1-4.13,1.13,27,27,0,0,1,4.51,10.52l-7.14-2.26c-.38-3-1.88-6-3.76-9l-3-1.13-2.25,7.14-6-1.88,6.39-19.16,10.15,3.37a7.15,7.15,0,0,1,3.38,1.5,6.74,6.74,0,0,1,2.63,1.88,7.71,7.71,0,0,1,1.5,2.25A3.2,3.2,0,0,1,486.82,637.88Zm23.67,0-8.27-.75-1.5,16.16-5.26-.38,1.5-16.16L488.7,636l.38-4.13,21.79,1.88Zm24.42,12.78a12.4,12.4,0,0,1-7.89,2.63c-3.76.38-6.39,0-8.64-1.13a7.35,7.35,0,0,1-3.38-5.64l-1.13-13.15,6-.38,1.13,12.4a3.36,3.36,0,0,0,1.5,3c.75.75,2.26.75,3.76.75A8.88,8.88,0,0,0,530,648a3.36,3.36,0,0,0,.75-3.38l-1.12-12.78,6.39-.75,1.13,13.15A6.58,6.58,0,0,1,534.92,650.65Zm28.93-6.39c-1.5.75-3.38,1.5-5.26,2.25a20.37,20.37,0,0,1-10.52.38,8.78,8.78,0,0,1-5.64-6.38,10.39,10.39,0,0,1,1.13-8.27q2.82-3.95,9-5.64l4.51-1.13a12.24,12.24,0,0,1,5.26,0l1.5,4.51a36.3,36.3,0,0,0-6.39-.75c-.75,0-1.88.38-2.63.38a8.58,8.58,0,0,0-6,6,9.26,9.26,0,0,0,.38,3c.75,2.25,1.88,3.76,3.76,4.13,2.63,1.13,6.77,0,9.39-1.13l-1.13-3.76L557.84,639l-1.13-3.76,9-2.63,3,9.39A18.36,18.36,0,0,0,563.85,644.27Zm25.55-39.83,10.9,12,8.64-7.89,2.63,3-12.78,12-13.9-15ZM577,614.21,595,627l-5.64,3.39-3.76-2.63-7.89,4.51.38,4.51-5.64,3.38L570.24,618Zm-10.52-28.93c-12.78,16.53-31.19,28.93-53.73,36.45h-1.13c-22.55-7.52-41-19.92-53.73-36.45-12.4-15.78-19.16-35.7-19.16-58.24A166.12,166.12,0,0,1,441,498.47a121,121,0,0,1,7.52-25.18l.38-1.13c6.76-.38,13.53-.38,19.92-2.25,4.51-1.13,8.64-3.38,12.78-5.26,7.52-3.76,14.65-7.52,30.81-7.52s23.3,3.76,30.81,7.52A54,54,0,0,0,556,469.92c6.39,1.88,13.15,1.88,19.92,2.25l.38,1.13a139.32,139.32,0,0,1,7.52,25.18A166.08,166.08,0,0,1,586,527C585.65,550,578.51,569.49,566.48,585.27Z" transform="translate(-371.09 -326)" style="fill:#008863"/><path d="M572.5,475.93c-8.26-.38-13.9-1.13-18-2.25-4.88-1.13-9-3.38-13.53-5.64-7.14-3.76-13.9-7.14-28.93-7.14s-22.17,3.38-28.93,7.14c-4.51,2.25-8.64,4.51-13.53,5.64a93,93,0,0,1-18,2.25,123.28,123.28,0,0,0-6.76,22.92A161.62,161.62,0,0,0,442.48,527c0,21.79,6.76,40.58,18.41,56,12,15.78,29.68,27.8,51.1,34.95,21.42-7.52,39.08-19.17,51.1-34.95,11.65-15,18.41-34.19,18.41-56a161.63,161.63,0,0,0-2.25-28.18A147.35,147.35,0,0,0,572.5,475.93Z" transform="translate(-371.09 -326)" style="fill:#008863"/><path d="M424.07,382.74c2.63,0,12.4.38,20.29-1.88,6-1.5,11.65-5.26,10.15-8.64-1.13-3-6.76-3-13.53-1.5-8.27,1.88-16.91,1.13-19.54,0a12.78,12.78,0,0,1-7.14-7.52c-1.13-3.76.38-8.64,3.76-12.78,3.38-3.76,8.64-7.14,15.78-9.39a75.54,75.54,0,0,1,20.29-4.51l4.51,9.39A56.48,56.48,0,0,0,445.49,347c-4.88.75-10.15,2.63-13.15,5.26-2.63,2.63-1.5,6.39,2.63,6,2.25-.38,5.26-.38,7.52-.75,6.39-.75,13.15-1.5,19.54.38,12.78,3.76,9.39,15.78,1.88,22.92a32.89,32.89,0,0,1-9.39,6c-7.89,3.76-16.91,4.88-25.18,5.64l-5.26-9.77Z" transform="translate(-371.09 -326)" style="fill:#008863"/><path d="M539.81,330.51a49.46,49.46,0,0,0-11.27-3.38,63.34,63.34,0,0,0-12.4-1.13,69.22,69.22,0,0,0-15.41,1.88c-7.89,2.25-16.91,6.39-21.42,13.53a18.62,18.62,0,0,0-3,9.77,17.73,17.73,0,0,0,3.76,11.27c5.26,7.14,14.65,10.9,22.92,12.78a70.27,70.27,0,0,0,12.78,1.13,62.19,62.19,0,0,0,12-1.13,64.86,64.86,0,0,0,12-4.13V359.44a50,50,0,0,1-23.3,6c-9,0-22.55-3-22.55-14.65,0-11.27,13.9-14.28,22.55-14.28,7.52,0,16.53,1.88,22.55,5.64V330.51Z" transform="translate(-371.09 -326)" style="fill:#008863"/><path d="M566.48,384.24l5.64-17.66,12.78,4.13c4.13,1.13,10.89,2.25,16.91.38,8.26-3,10.89-12,5.64-19.16a23.56,23.56,0,0,0-8.27-6.76c-3.38-1.5-9.39-3.38-15.41-5.26l-18.41-6-14.28,45.47,15.41,4.88Zm28.18-25.55c-1.13,3.76-8.64,3-11.27,2.25l-8.64-2.63,3.38-10.52,9.77,3c3.38.75,8.27,3.76,6.76,7.89Z" transform="translate(-371.09 -326)" style="fill:#008863"/><path d="M557.09,502.23a3.18,3.18,0,0,0,2.25.75,11.68,11.68,0,0,0,4.14-.75,5.34,5.34,0,0,1,2.25-.75,5.6,5.6,0,0,0-2.25.38c-1.5.38-4.89,0-4.89-1.88H559a11.14,11.14,0,0,0,3.76.75,5.43,5.43,0,0,0,2.63-.75,4,4,0,0,1,2.25-.75c-1.13-.75-2.25,0-3.76,0a5.4,5.4,0,0,1-2.63-.75c-.38-.38-.75-.38-1.5-.75A13.35,13.35,0,0,0,556,497a7,7,0,0,0-2.63.75,3.75,3.75,0,0,0-1.5,1.88h0a9.09,9.09,0,0,0-6.4,1.5,12.5,12.5,0,0,0-4.51,5.26c-1.5,3-1.5,6-1.13,9.39.38,3,1.88,6,3.37,9,3,5.64,4.89,9.39,6,12a15.79,15.79,0,0,1,1.5,6.77,7.59,7.59,0,0,1-1.13,4.13,6,6,0,0,1-3.38,2.63,6.28,6.28,0,0,1-4.51.38,11.32,11.32,0,0,1-5.64-3.38,29.94,29.94,0,0,1-4.51-7.52c-1.5-2.63-2.63-5.64-2.63-7.14a81.87,81.87,0,0,1-.38-10.15V521a6.53,6.53,0,0,0-1.5,1.88,7.12,7.12,0,0,0-.75,3h-.38a5.64,5.64,0,0,1-1.5-3.39c-.38-1.5,0-3,.38-4.88a18.8,18.8,0,0,0,1.13-6c0-1.88-.38-3.76-1.88-4.88v-.38a4.76,4.76,0,0,1,2.63,1.5,6.82,6.82,0,0,1,1.88,2.63,21.75,21.75,0,0,1,.75,2.63c.75,3,1.5,6,4.89,6.39-1.88-1.88-1.88-5.26-1.88-8.27v-4.51a10.62,10.62,0,0,0-1.88-4.13,5.39,5.39,0,0,0-3.76-1.5v-.38c.38-.38.75-.75.75-1.13a2.89,2.89,0,0,1,1.88-.75,3.38,3.38,0,0,1,1.88.38c.38.38.75.38.75.75a6.06,6.06,0,0,1,1.5,2.63c.75,1.88,1.88,3.76,3.76,4.13a6.18,6.18,0,0,1-.75-3.76,12.05,12.05,0,0,0-1.88-6.39,8.78,8.78,0,0,0-2.63-2.63,6.18,6.18,0,0,0-3.76-.75s-.38,0,0-.38A4.55,4.55,0,0,1,530,491a4.77,4.77,0,0,1,2.26-.38c1.88.38,2.63,1.5,3.76,2.63.75.75,1.13,1.88,2.26,2.25a5.29,5.29,0,0,1-.75-2.25,7.33,7.33,0,0,1-.38-3,4.64,4.64,0,0,0-1.5-3,6.68,6.68,0,0,0-3.76-1.5,3.39,3.39,0,0,0-1.88.38,5.39,5.39,0,0,0-2.25.75h-.38a4.68,4.68,0,0,1,.38-2.25l1.13-1.13a2.82,2.82,0,0,1,1.88-.38,11.6,11.6,0,0,1,4.88,1.13,2.89,2.89,0,0,0-.75-1.88,2.68,2.68,0,0,0-2.26-1.13,18.28,18.28,0,0,0-4.51-.38,14.11,14.11,0,0,1-4.13-.38v-.38c1.5-.38,3-1.5,4.88-3h0c-3.38.38-5.64-.38-7.89-.75-2.63-.75-5.26-1.5-9,1.13h0c-1.13-.38-2.25-.38-3.38-.75H506c-.75,0-1.5.38-1.5.75s-.38.38-.38.75,0,.38.38.75a5.19,5.19,0,0,0,1.5,1.13c.75,0,1.88.38,3,.38a21.56,21.56,0,0,0,4.51-.38v.38c-.38.75-1.88,1.13-3,1.88a25.89,25.89,0,0,0-3,1.13h-.38a4,4,0,0,0-3.38-1.88,30.83,30.83,0,0,0-6.76,1.13l-.76,1.13c-.38.38-.38.75,0,.75.38.38.75.38,1.88.38h.75v.38c-.75,0-1.13.38-1.5,1.13a1.88,1.88,0,0,0,0,2.25,5.19,5.19,0,0,0,1.5,1.13,10.43,10.43,0,0,1,8.27-2.63,4,4,0,0,1,2.25.75c.75.38,1.13.75,1.88,1.13a2.49,2.49,0,0,1,.75,2.63c-.38,1.5-.75,2.63-2.63,3-1.5.38-4.13.38-8.27-.38a3.3,3.3,0,0,0,.38,2.63,8.18,8.18,0,0,0,3.38,2.63,20.84,20.84,0,0,0,3-2.25,9.56,9.56,0,0,1,2.63-.75c.38,0,.75,0,.75.38.38,0,.38.38.38.75v.75a2.85,2.85,0,0,1-.75,1.5c-1.13,1.13-3.38,1.88-5.26,2.63-.75.38-1.13.38-1.88.75a44.08,44.08,0,0,0-4.13,1.88,3.66,3.66,0,0,0-1.88,2.25h2.63a18.68,18.68,0,0,0,6-.75h0c-.38,1.88-3.38,3-6.76,4.13a23,23,0,0,0-4.51,1.88c-1.13.75-2.63,1.5-3.38,2.63a13.85,13.85,0,0,0-1.88,4.13,7.34,7.34,0,0,0,2.63-.38,15.31,15.31,0,0,0,4.13-2.25,5.34,5.34,0,0,1,2.25-.75,11.26,11.26,0,0,0,5.26-2.63h.38a25.89,25.89,0,0,1-1.13,3c-.75.75-1.5,1.88-2.25,2.63s-2.63,1.13-4.13,1.5a1.36,1.36,0,0,0-1.13.38,16.51,16.51,0,0,1-3.76.75,3.21,3.21,0,0,1-2.25-.75,33.74,33.74,0,0,0-6,3.37c-.75.38-1.13.75-1.88,1.13a12.71,12.71,0,0,1-4.51,2.26,10.4,10.4,0,0,1-4.88,1.13,9.23,9.23,0,0,1-5.64-1.88,23,23,0,0,0-4.51-1.88,2,2,0,0,0-1.5.75,2.87,2.87,0,0,0-.75,1.88H462a2.82,2.82,0,0,1,1.88.38,5.24,5.24,0,0,1,1.13,1.5V530c-1.13,0-3.76,0-5.26.75s-2.63,1.88-1.5,4.51a1.3,1.3,0,0,1,.38-.75c0-.38.38-.38.75-.75.38,0,1.13-.38,1.5-.38,1.88-.75,2.63-1.13,4.13.75v.38h-.75a4.64,4.64,0,0,0-3,1.88,4,4,0,0,0-.75,3v.75a2.43,2.43,0,0,1,1.88-.75,1.31,1.31,0,0,0,.75-.38c.38-.38.75-.38.75-.75a11.58,11.58,0,0,1,5.26-2.25c.75-.38,1.13-.38,1.88-.75,1.5-.38,2.63-1.13,4.13-1.13a13.48,13.48,0,0,1,3.76.75c1.13.38,2.63.75,4.13,1.13a3.75,3.75,0,0,0-1.5-1.88,6.06,6.06,0,0,0-2.63-1.5v-.38a3.57,3.57,0,0,1,3.76-.75,18.48,18.48,0,0,1,4.13,1.5c1.88.75,3,1.88,4.51,1.88a8.36,8.36,0,0,0,4.88-1.13,7.1,7.1,0,0,1-3.76-2.25,5.38,5.38,0,0,0-4.88-1.87v-.38a3.73,3.73,0,0,1,1.88-1.5,5.52,5.52,0,0,1,2.63-.38c1.13,0,2.63.75,4.51,1.88,2.63,1.5,5.26,3,8.27,3v.38a8.18,8.18,0,0,1-3,1.88,12.32,12.32,0,0,0,2.25,3,26.07,26.07,0,0,0,3.76,3,43.14,43.14,0,0,0,4.13,1.88c1.5.38,3,.75,5.26,1.13a10.17,10.17,0,0,1,4.88,1.88c1.13.75,1.13,1.5.75,2.26.75.38.38,1.5,0,2.63a7.94,7.94,0,0,1-1.5,2.25,16.34,16.34,0,0,0-1.5,2.63c-1.13,1.88-1.13,4.13-1.13,6.76v.38c0,.75.75,1.5,1.5,2.63a15.8,15.8,0,0,0,2.25,2.63l.38.38c1.88,2.25,3.37,3.76,3,7.89a7,7,0,0,1,4.13-1.5,2.77,2.77,0,0,1,2.26.75h0a8.43,8.43,0,0,1,1.13,1.88c.38,1.13,0,3-.38,4.88a15.52,15.52,0,0,1-2.63,4.13,28.7,28.7,0,0,1-3.38,3.38c-1.13.38-2.63,0-3.76,0-1.88-.38-3.76-.75-4.88.75-.38.38-.38.75-.75,1.13v1.88a7.34,7.34,0,0,0,2.63-.38c1.88-.38,3.76-.75,4.51.75h0l-1.13,1.13-1.13,1.13a17.73,17.73,0,0,0-1.13,3.38v.38h1.5c1.5,0,3,0,4.14-1.13l1.13-1.13c.75-.75,1.5-1.88,2.26-1.88h0c0,.75,0,1.13.38,1.5a3.73,3.73,0,0,1-.38,3.38,7.62,7.62,0,0,0,4.13-1.13c.75-.75,1.5-1.5,1.5-2.26s-.38-1.5-.38-2.25a6.21,6.21,0,0,1-.38-3.76,25.22,25.22,0,0,1,1.13-3A4.55,4.55,0,0,1,538.3,586a8.2,8.2,0,0,0,3-1.88,6.74,6.74,0,0,0,1.88-2.63c-.38,0-1.13.38-1.5.38a2.77,2.77,0,0,0-1.88.38h-.38a2.27,2.27,0,0,1-.38-1.5,6.46,6.46,0,0,1,.75-1.88h0a8.15,8.15,0,0,1,1.88-1.5,5.11,5.11,0,0,0,1.51-1.13h.75a15.83,15.83,0,0,0,5.26-3,4.78,4.78,0,0,0,1.5-2.63,3.58,3.58,0,0,0-.75-2.63c-1.13,2.26-3.38,3-4.89,3.76-1.12.37-2.25.75-2.62,1.5h-.38a6.5,6.5,0,0,1,.38-3.76,11.39,11.39,0,0,1,3-3c.38,0,.75-.38,1.13-.75,3.37-1.88,6.38-3.38,6-7.52a10.43,10.43,0,0,1-3.37,1.88H547a5.09,5.09,0,0,1-1.5-1.13,4.27,4.27,0,0,1-1.13-3v-.38a15,15,0,0,0,7.13-.38,8.22,8.22,0,0,0,3.76-3.38c-.75.38-1.13.75-1.88,1.13s-1.5,0-2.25-.38v-.38a9.75,9.75,0,0,0,4.51-4.14,16.09,16.09,0,0,0,1.88-6,10.26,10.26,0,0,0-.38-3.38,16,16,0,0,0-1.5-3.76c-.75-1.12-1.12-2.25-1.88-3.38s-1.5-2.63-2.25-3.76c-1.13-1.88-2.63-4.14-3.76-6a21,21,0,0,1-2.63-6,15.53,15.53,0,0,1-.75-7.14,10,10,0,0,1,2.63-5.64,9,9,0,0,1,3-2.25,5.31,5.31,0,0,1,3.38-.38h0a4.12,4.12,0,0,0,0,3,3.61,3.61,0,0,0,3.38,2.63c2.63.38,4.51-.38,6.76-1.13,1.13-.38,1.88-.75,3-1.13-1.13-.38-1.88,0-3,0-.75,0-1.5.38-2.26,0s-1.5-.74-1.5-1.5c-3,.38-3,.38-2.63,0Zm-41.33,16.91a6,6,0,0,0,2.63-3.38,7.68,7.68,0,0,0,0-4.13s.38-.38.38,0a9.75,9.75,0,0,1,1.5,6.76,8,8,0,0,1-4.14,4.51,5.57,5.57,0,0,1-3.38.75c-1.5.38-3,.38-4.88,1.88h-.38c.75-2.25,3-3.37,5.26-4.88A22.16,22.16,0,0,0,515.76,519.14Zm-18,2.25a9.11,9.11,0,0,1,3.76-2.25,17.87,17.87,0,0,1,2.63-1.13c3-1.13,5.26-2.26,6.76-6h.38a7.26,7.26,0,0,1,0,5.64,6.83,6.83,0,0,1-4.13,3.76,38.85,38.85,0,0,1-4.51,1.13,30.55,30.55,0,0,0-4.88,1.13h-.38C496.59,522.52,497,522.15,497.72,521.39Zm2.25,6.76c-1.13-.75-1.88-1.5-3-1.5v-.38c3-1.5,5.26,0,7.52,1.5a7.5,7.5,0,0,0,3,1.5v.38C503.73,531.16,501.85,529.66,500,528.16Zm3,7.14h0a7.08,7.08,0,0,1,3,.75c1.13,0,2.25.38,3.38,0a19.24,19.24,0,0,0,4.51-.75,13.56,13.56,0,0,0,4.13-1.5.37.37,0,0,1,.38.38,6.75,6.75,0,0,1-3,2.63,10,10,0,0,1-4.51,1.13,16.3,16.3,0,0,1-4.13-.75A7,7,0,0,1,503,535.3Zm13.15,6.39a7.45,7.45,0,0,1-4.13-.75,8.23,8.23,0,0,1-3-1.88v-.38a20,20,0,0,0,6.76.38,26.17,26.17,0,0,0,7.52-1.13s.38.38,0,.38a.81.81,0,0,0-.75.75C521,540.18,519.52,541.68,516.13,541.68Zm8.27,27.81h0c-1.13-1.88-1.88-3.38-2.63-4.51-.75-1.5-1.88-2.63-1.88-4.51a8.85,8.85,0,0,1,.75-4.14,7.86,7.86,0,0,1,2.26-3.76h.38c-.38,1.13-.38,1.88-.75,3v3a9.42,9.42,0,0,0,1.5,4.88C524,565.36,524.78,566.86,524.4,569.49Z" transform="translate(-371.09 -326)" style="fill:#f2be4b"/><path d="M465.41,498.47c.75.38,1.88.38,3,.75a7.08,7.08,0,0,1,3.38,1.5c.75.38,1.13.75,1.13,1.5a1.71,1.71,0,0,1,0,1.88,3.25,3.25,0,0,1-1.13,2.25,13.35,13.35,0,0,0,3.76-.75c1.88-.38,3.38-.75,4.13-.38v.38a7.86,7.86,0,0,0-2.25,1.5,20.64,20.64,0,0,1-5.26,3.38,11.62,11.62,0,0,0,3,.75,6.06,6.06,0,0,0,3.38-1.13,1.31,1.31,0,0,1,.75-.38c1.5-.75,3.76-2.63,5.64-1.13V509c-1.88,0-2.63,1.13-3.76,2.63a8.87,8.87,0,0,1-3.38,3,11.87,11.87,0,0,0,7.52-1.13,14.07,14.07,0,0,0,4.51-4.88,14.2,14.2,0,0,1,3-3.38l.75-.75a12.78,12.78,0,0,0-3.76-.38,12.78,12.78,0,0,1-3.76-.38c-1.5-.38-2.63-.75-3.76-1.13s-2.25-1.13-3.38-1.5a13.69,13.69,0,0,1-4.13-3.76,13.05,13.05,0,0,1-2.25-3.38,1.38,1.38,0,0,1-.38-1.13c-1.13-2.63-1.88-4.88-5.64-4.51A9.42,9.42,0,0,1,468,491a7,7,0,0,1,.75,2.63s-.38.38-.38,0a9.58,9.58,0,0,0-3.38-4.13c-.75-.38-1.13-.75-1.88-.75a3.39,3.39,0,0,0-1.88.38,4.43,4.43,0,0,0-1.88,1.88c.38,0,.75.38,1.13.38l.38.38c.75.38,1.13.75,1.88,1.13.38.38.75,1.13,1.13,1.5v.38c-.75,0-1.13-.38-1.88-.75-.75-.75-1.88-1.13-3.76-.75C459.77,497.72,461.27,498.1,465.41,498.47Z" transform="translate(-371.09 -326)" style="fill:#f2be4b"/><path d="M512.75,557.47a30.67,30.67,0,0,1,3.38-7.13,4.49,4.49,0,0,0-3.76.38q-1.69,1.13-4.51,3.38h-.38a25,25,0,0,1,2.25-4.51c.75-1.13,1.88-1.5,3-2.26a18.12,18.12,0,0,0-4.51.38,14.1,14.1,0,0,0-6,2.63h-.38a3.83,3.83,0,0,1,1.88-3c.75-.75,2.25-1.13,3-1.88a8.08,8.08,0,0,0,1.88-1.13c.38-.38.75-.38,1.13-.75a14,14,0,0,0-3.76.38c-1.13,0-2.25.38-3.38.38h-1.88a10.31,10.31,0,0,0-3.38.38,9,9,0,0,0-4.13,2.25,6.76,6.76,0,0,0-1.13,4.14,7.9,7.9,0,0,0,1.5,4.14c.75,1.5,1.88,3,1.88,5.26s-1.5,3.38-3,4.14a12.79,12.79,0,0,1-5.26.75h-3a5.45,5.45,0,0,1-2.25-.75c-.75-.37-1.13-.75-1.88-.75a7.17,7.17,0,0,0-3-1.13,5.58,5.58,0,0,0-3.38.75,9.72,9.72,0,0,0-1.88,2.25h1.88a5.08,5.08,0,0,1,3.38,0c.75.38,1.13.75,1.13,1.5v.38H476.3a8.19,8.19,0,0,0-3.38.38,3.76,3.76,0,0,0-1.88,1.5,5.34,5.34,0,0,0-.75,2.26v1.13c0,.38.38.75.38,1.13a5,5,0,0,1,3-2.63,5.15,5.15,0,0,1,4.13-.38v.38a10.58,10.58,0,0,0-4.51,5.26c1.13-.38,2.25,0,3.38,0a2.81,2.81,0,0,0,3-.38c.38-.38.75-.75.75-1.13l2.25-2.25c.38-.38.75-.75,1.13-.75s.75-.38,1.13-.38h7.52a11.22,11.22,0,0,1,3.38,1.13,2,2,0,0,0-.75-1.5,16.13,16.13,0,0,0-2.63-1.88v-.38c2.63-1.13,4.88-.38,7.52.38,3,1.13,6,1.88,8.64-.38a3.8,3.8,0,0,1-2.63-1.5,8.39,8.39,0,0,0-4.88-1.88v-.38A4.53,4.53,0,0,1,503,563.5a7,7,0,0,1,3-.75,9,9,0,0,1,3.38.75,16,16,0,0,0,4.13.75C512.38,562.73,512.38,560.1,512.75,557.47Z" transform="translate(-371.09 -326)" style="fill:#f2be4b"/><path d="M486.45,492.46a7.57,7.57,0,0,0,4.13,1.13c1.5,0,3-.75,4.88-1.5,2.63-1.13,5.64-2.63,9.39-2.25-4.13-1.13-7.52,0-10.52.75a16.54,16.54,0,0,1-3.76.75,10.47,10.47,0,0,1-3.76-.38,6.12,6.12,0,0,1-2.25-1.13C484.57,491,485.32,491.71,486.45,492.46Z" transform="translate(-371.09 -326)" style="fill:#f2be4b"/></svg>